<svg width="6" height="11" viewBox="0 0 6 11" fill="none" xmlns="http://www.w3.org/2000/svg">
<path d="M4.36456 9.86458L0.239563 5.73958C0.170118 5.67014 0.121508 5.60069 0.0937298 5.53125C0.065952 5.46181 0.052063 5.38542 0.052063 5.30208C0.052063 5.21875 0.065952 5.14236 0.0937298 5.07292C0.121508 5.00347 0.170118 4.93403 0.239563 4.86458L4.3854 0.71875C4.5104 0.59375 4.6597 0.53125 4.83331 0.53125C5.00692 0.53125 5.15623 0.59375 5.28123 0.71875C5.40623 0.84375 5.46526 0.996528 5.45831 1.17708C5.45137 1.35764 5.3854 1.51042 5.2604 1.63542L1.59373 5.30208L5.28123 8.98958C5.40623 9.11458 5.46873 9.26042 5.46873 9.42708C5.46873 9.59375 5.40623 9.73958 5.28123 9.86458C5.15623 9.98958 5.00345 10.0521 4.8229 10.0521C4.64234 10.0521 4.48956 9.98958 4.36456 9.86458V9.86458Z" fill="black"/>
</svg>
