<svg width="24" height="24" viewBox="0 0 24 24" fill="none" xmlns="http://www.w3.org/2000/svg">
<path d="M11.475 19.4502C11.3417 19.3169 11.275 19.1419 11.275 18.9252C11.275 18.7085 11.3417 18.5335 11.475 18.4002L17.125 12.7502H4.75C4.53333 12.7502 4.35417 12.6794 4.2125 12.5377C4.07083 12.396 4 12.2169 4 12.0002C4 11.7835 4.07083 11.6044 4.2125 11.4627C4.35417 11.321 4.53333 11.2502 4.75 11.2502H17.125L11.475 5.6002C11.3417 5.46686 11.275 5.2877 11.275 5.0627C11.275 4.8377 11.3417 4.65853 11.475 4.5252C11.6083 4.39186 11.7833 4.3252 12 4.3252C12.2167 4.3252 12.3917 4.39186 12.525 4.5252L19.475 11.4752C19.5583 11.5585 19.6167 11.6419 19.65 11.7252C19.6833 11.8085 19.7 11.9002 19.7 12.0002C19.7 12.0835 19.6833 12.171 19.65 12.2627C19.6167 12.3544 19.5583 12.4419 19.475 12.5252L12.525 19.4752C12.3917 19.6085 12.2167 19.671 12 19.6627C11.7833 19.6544 11.6083 19.5835 11.475 19.4502Z" fill="white"/>
</svg>
