<svg width="1440" height="1024" viewBox="0 0 1440 1024" fill="none" xmlns="http://www.w3.org/2000/svg">
<path fill-rule="evenodd" clip-rule="evenodd" d="M1395.52 376.234L1406.51 357.193L1425.55 368.186L1414.56 387.227C1410 395.114 1412.71 405.2 1420.59 409.753C1428.48 414.307 1438.57 411.604 1443.12 403.717L1454.11 384.676L1473.15 395.67L1462.16 414.711C1451.53 433.114 1428 439.419 1409.6 428.794C1391.2 418.169 1384.89 394.637 1395.52 376.234Z" fill="white"/>
<path d="M1447.54 330.105L1428.5 319.111L1417.5 338.152L1436.54 349.146L1447.54 330.105Z" fill="white"/>
<path fill-rule="evenodd" clip-rule="evenodd" d="M918.885 101.052L929.878 82.011L948.919 93.0042L937.925 112.045C933.372 119.932 936.074 130.018 943.961 134.571C951.848 139.125 961.933 136.422 966.487 128.535L977.48 109.494L996.521 120.488L985.528 139.529C974.903 157.932 951.371 164.237 932.968 153.612C914.565 142.987 908.26 119.455 918.885 101.052Z" fill="white"/>
<path d="M970.905 54.9228L951.864 43.9294L940.871 62.9704L959.912 73.9637L970.905 54.9228Z" fill="white"/>
<path d="M1018.61 82.2511L999.569 71.2578L988.576 90.2995L1007.62 101.293L1018.61 82.2511Z" fill="white"/>
<path fill-rule="evenodd" clip-rule="evenodd" d="M993.099 16.3965L982.105 35.4375L963.065 24.4443L974.058 5.40329C978.612 -2.48377 975.909 -12.5691 968.022 -17.1227C960.135 -21.6762 950.05 -18.9738 945.496 -11.0868L934.503 7.95424L915.462 -3.03909L926.455 -22.0801C937.08 -40.4832 960.612 -46.7885 979.015 -36.1635C997.418 -25.5385 1003.72 -2.00657 993.099 16.3965Z" fill="white"/>
<path d="M941.078 62.526L960.119 73.5193L971.112 54.4783L952.071 43.485L941.078 62.526Z" fill="white"/>
<path d="M893.373 35.1974L912.414 46.1907L923.408 27.149L904.367 16.1557L893.373 35.1974Z" fill="white"/>
<path fill-rule="evenodd" clip-rule="evenodd" d="M1469.73 291.579L1458.74 310.62L1439.69 299.627L1450.69 280.586C1455.24 272.699 1452.54 262.614 1444.65 258.06C1436.77 253.506 1426.68 256.209 1422.13 264.096L1411.13 283.137L1392.09 272.144L1403.09 253.103C1413.71 234.699 1437.24 228.394 1455.65 239.019C1474.05 249.644 1480.35 273.176 1469.73 291.579Z" fill="white"/>
<path d="M1417.71 337.708L1436.75 348.702L1447.74 329.661L1428.7 318.667L1417.71 337.708Z" fill="white"/>
<path d="M1370 310.38L1389.04 321.373L1400.04 302.332L1381 291.338L1370 310.38Z" fill="white"/>
<path fill-rule="evenodd" clip-rule="evenodd" d="M1014.2 156.084L1025.2 137.043L1044.24 148.036L1033.25 167.077C1028.69 174.964 1031.39 185.05 1039.28 189.603C1047.17 194.157 1057.25 191.455 1061.81 183.567L1072.8 164.526L1091.84 175.52L1080.85 194.561C1070.22 212.964 1046.69 219.269 1028.29 208.644C1009.89 198.019 1003.58 174.487 1014.2 156.084Z" fill="white"/>
<path d="M1066.23 109.955L1047.19 98.9617L1036.19 118.003L1055.23 128.996L1066.23 109.955Z" fill="white"/>
<path d="M1113.93 137.283L1094.89 126.29L1083.9 145.332L1102.94 156.325L1113.93 137.283Z" fill="white"/>
<path d="M845.761 7.49472L864.802 18.488L875.795 -0.552941L856.754 -11.5463L845.761 7.49472Z" fill="white"/>
<path fill-rule="evenodd" clip-rule="evenodd" d="M1374.41 236.547L1363.42 255.588L1344.38 244.594L1355.37 225.553C1359.92 217.666 1357.22 207.581 1349.33 203.027C1341.45 198.474 1331.36 201.176 1326.81 209.063L1315.81 228.104L1296.77 217.111L1307.77 198.07C1318.39 179.667 1341.92 173.362 1360.33 183.987C1378.73 194.612 1385.03 218.144 1374.41 236.547Z" fill="white"/>
<path d="M1322.39 282.676L1341.43 293.669L1352.42 274.628L1333.38 263.635L1322.39 282.676Z" fill="white"/>
<path d="M1274.68 255.348L1293.72 266.341L1304.72 247.299L1285.68 236.306L1274.68 255.348Z" fill="white"/>
<path fill-rule="evenodd" clip-rule="evenodd" d="M632.892 -64.0654L643.886 -83.1064L662.927 -72.1132L651.933 -53.0722C647.38 -45.1852 650.082 -35.0998 657.969 -30.5462C665.856 -25.9928 675.941 -28.6951 680.495 -36.5822L691.488 -55.6232L710.529 -44.6299L699.536 -25.5889C688.911 -7.18578 665.379 -0.880445 646.976 -11.5055C628.573 -22.1305 622.267 -45.6624 632.892 -64.0654Z" fill="white"/>
<path fill-rule="evenodd" clip-rule="evenodd" d="M1109.52 211.117L1120.52 192.076L1139.56 203.069L1128.57 222.11C1124.01 229.997 1126.71 240.082 1134.6 244.636C1142.49 249.189 1152.57 246.487 1157.13 238.6L1168.12 219.559L1187.16 230.552L1176.17 249.593C1165.54 267.996 1142.01 274.302 1123.61 263.677C1105.2 253.052 1098.9 229.52 1109.52 211.117Z" fill="white"/>
<path d="M1161.54 164.987L1142.5 153.994L1131.51 173.035L1150.55 184.028L1161.54 164.987Z" fill="white"/>
<path d="M1209.25 192.316L1190.21 181.322L1179.21 200.364L1198.26 211.357L1209.25 192.316Z" fill="white"/>
<path fill-rule="evenodd" clip-rule="evenodd" d="M1279.09 181.514L1268.1 200.555L1249.06 189.562L1260.05 170.521C1264.6 162.634 1261.9 152.549 1254.01 147.995C1246.13 143.442 1236.04 146.144 1231.49 154.031L1220.5 173.072L1201.45 162.079L1212.45 143.038C1223.07 124.635 1246.6 118.329 1265.01 128.954C1283.41 139.579 1289.72 163.111 1279.09 181.514Z" fill="white"/>
<path d="M1227.07 227.644L1246.11 238.637L1257.1 219.596L1238.06 208.603L1227.07 227.644Z" fill="white"/>
<path d="M1179.37 200.315L1198.41 211.309L1209.4 192.267L1190.36 181.274L1179.37 200.315Z" fill="white"/>
<path fill-rule="evenodd" clip-rule="evenodd" d="M728.212 -9.03297L739.205 -28.074L758.246 -17.0808L747.253 1.96023C742.699 9.84729 745.401 19.9326 753.288 24.4862C761.175 29.0397 771.261 26.3373 775.814 18.4503L786.807 -0.590719L805.848 10.4026L794.855 29.4436C784.23 47.8467 760.698 54.152 742.295 43.527C723.892 32.902 717.587 9.3701 728.212 -9.03297Z" fill="white"/>
<path fill-rule="evenodd" clip-rule="evenodd" d="M1204.84 266.149L1215.83 247.108L1234.87 258.101L1223.88 277.142C1219.33 285.029 1222.03 295.115 1229.92 299.668C1237.8 304.222 1247.89 301.519 1252.44 293.632L1263.44 274.591L1282.48 285.584L1271.48 304.625C1260.86 323.029 1237.33 329.334 1218.92 318.709C1200.52 308.084 1194.21 284.552 1204.84 266.149Z" fill="white"/>
<path d="M1256.86 220.019L1237.82 209.026L1226.83 228.067L1245.87 239.06L1256.86 220.019Z" fill="white"/>
<path d="M1304.57 247.348L1285.52 236.355L1274.53 255.396L1293.57 266.39L1304.57 247.348Z" fill="white"/>
<path fill-rule="evenodd" clip-rule="evenodd" d="M1183.77 126.483L1172.78 145.524L1153.74 134.53L1164.73 115.489C1169.29 107.602 1166.59 97.5171 1158.7 92.9635C1150.81 88.41 1140.73 91.1124 1136.17 98.9994L1125.18 118.04L1106.14 107.047L1117.13 88.0061C1127.76 69.603 1151.29 63.2977 1169.69 73.9227C1188.09 84.5477 1194.4 108.08 1183.77 126.483Z" fill="white"/>
<path d="M1131.75 172.612L1150.79 183.605L1161.79 164.564L1142.75 153.571L1131.75 172.612Z" fill="white"/>
<path d="M1084.05 145.284L1103.09 156.277L1114.08 137.235L1095.04 126.242L1084.05 145.284Z" fill="white"/>
<path fill-rule="evenodd" clip-rule="evenodd" d="M823.531 45.9995L834.524 26.9585L853.565 37.9517L842.572 56.9927C838.018 64.8798 840.721 74.9651 848.608 79.5187C856.495 84.0722 866.58 81.3698 871.133 73.4828L882.127 54.4418L901.168 65.4351L890.174 84.4761C879.549 102.879 856.018 109.184 837.614 98.5595C819.211 87.9345 812.906 64.4026 823.531 45.9995Z" fill="white"/>
<path d="M875.552 -0.129976L856.511 -11.1233L845.517 7.91769L864.558 18.911L875.552 -0.129976Z" fill="white"/>
<path d="M923.257 27.1984L904.216 16.2051L893.222 35.2467L912.263 46.24L923.257 27.1984Z" fill="white"/>
<path fill-rule="evenodd" clip-rule="evenodd" d="M1300.16 321.181L1311.15 302.14L1330.19 313.133L1319.2 332.174C1314.65 340.061 1317.35 350.146 1325.24 354.7C1333.12 359.254 1343.21 356.551 1347.76 348.664L1358.75 329.623L1377.8 340.616L1366.8 359.657C1356.18 378.061 1332.65 384.366 1314.24 373.741C1295.84 363.116 1289.53 339.584 1300.16 321.181Z" fill="white"/>
<path d="M1352.18 275.051L1333.14 264.058L1322.15 283.099L1341.19 294.092L1352.18 275.051Z" fill="white"/>
<path d="M1399.88 302.38L1380.84 291.387L1369.85 310.428L1388.89 321.422L1399.88 302.38Z" fill="white"/>
<path fill-rule="evenodd" clip-rule="evenodd" d="M1088.46 71.4497L1077.46 90.4907L1058.42 79.4975L1069.41 60.4565C1073.97 52.5695 1071.27 42.4841 1063.38 37.9305C1055.49 33.377 1045.41 36.0794 1040.85 43.9665L1029.86 63.0075L1010.82 52.0141L1021.81 32.9731C1032.44 14.5701 1055.97 8.26472 1074.37 18.8897C1092.77 29.5148 1099.08 53.0467 1088.46 71.4497Z" fill="white"/>
<path d="M1036.43 117.579L1055.48 128.573L1066.47 109.532L1047.43 98.5382L1036.43 117.579Z" fill="white"/>
<path d="M988.73 90.2513L1007.77 101.245L1018.76 82.203L999.723 71.2097L988.73 90.2513Z" fill="white"/>
<path fill-rule="evenodd" clip-rule="evenodd" d="M23.8006 550.654L34.7939 531.613L53.8347 542.606L42.8414 561.647C38.2878 569.535 40.9902 579.62 48.8772 584.173C56.7641 588.727 66.8494 586.025 71.403 578.138L82.3963 559.097L101.437 570.09L90.444 589.131C79.819 607.534 56.2871 613.839 37.884 603.214C19.481 592.589 13.1756 569.057 23.8006 550.654Z" fill="white"/>
<path d="M75.8213 504.525L56.7803 493.531L45.787 512.572L64.8279 523.566L75.8213 504.525Z" fill="white"/>
<path d="M123.526 531.853L104.485 520.86L93.4917 539.902L112.533 550.895L123.526 531.853Z" fill="white"/>
<path fill-rule="evenodd" clip-rule="evenodd" d="M500.431 825.837L511.425 806.796L530.466 817.789L519.472 836.83C514.919 844.717 517.621 854.803 525.508 859.356C533.395 863.91 543.48 861.207 548.034 853.32L559.027 834.279L578.068 845.273L567.075 864.314C556.45 882.717 532.918 889.022 514.515 878.397C496.112 867.772 489.806 844.24 500.431 825.837Z" fill="white"/>
<path d="M552.452 779.708L533.411 768.715L522.418 787.756L541.459 798.749L552.452 779.708Z" fill="white"/>
<path d="M600.157 807.036L581.116 796.043L570.123 815.085L589.163 826.078L600.157 807.036Z" fill="white"/>
<path fill-rule="evenodd" clip-rule="evenodd" d="M574.645 741.182L563.651 760.223L544.611 749.23L555.604 730.189C560.158 722.302 557.455 712.217 549.568 707.663C541.681 703.109 531.596 705.812 527.042 713.699L516.049 732.74L497.008 721.747L508.001 702.706C518.626 684.302 542.158 677.997 560.561 688.622C578.964 699.247 585.27 722.779 574.645 741.182Z" fill="white"/>
<path d="M522.624 787.312L541.665 798.305L552.658 779.264L533.617 768.271L522.624 787.312Z" fill="white"/>
<path d="M474.919 759.983L493.96 770.976L504.954 751.935L485.913 740.941L474.919 759.983Z" fill="white"/>
<path fill-rule="evenodd" clip-rule="evenodd" d="M1051.28 1016.36L1040.28 1035.4L1021.24 1024.41L1032.23 1005.37C1036.79 997.484 1034.09 987.398 1026.2 982.845C1018.31 978.291 1008.23 980.993 1003.67 988.881L992.68 1007.92L973.639 996.928L984.632 977.887C995.257 959.484 1018.79 953.179 1037.19 963.804C1055.6 974.429 1061.9 997.961 1051.28 1016.36Z" fill="white"/>
<path d="M951.55 1035.16L970.591 1046.16L981.585 1027.12L962.544 1016.12L951.55 1035.16Z" fill="white"/>
<path fill-rule="evenodd" clip-rule="evenodd" d="M98.0158 466.001L87.0225 485.042L67.9817 474.048L78.975 455.007C83.5286 447.12 80.8262 437.035 72.9392 432.481C65.0523 427.928 54.967 430.63 50.4134 438.517L39.4201 457.558L20.3791 446.565L31.3724 427.524C41.9974 409.121 65.5293 402.816 83.9324 413.441C102.335 424.066 108.641 447.597 98.0158 466.001Z" fill="white"/>
<path d="M45.9952 512.13L65.0361 523.123L76.0294 504.082L56.9885 493.089L45.9952 512.13Z" fill="white"/>
<path d="M-1.70993 484.801L17.3311 495.795L28.3248 476.753L9.28377 465.76L-1.70993 484.801Z" fill="white"/>
<path fill-rule="evenodd" clip-rule="evenodd" d="M119.119 605.687L130.112 586.646L149.153 597.639L138.16 616.68C133.606 624.568 136.309 634.653 144.196 639.206C152.082 643.76 162.168 641.058 166.721 633.17L177.715 614.129L196.756 625.123L185.762 644.164C175.137 662.567 151.605 668.872 133.202 658.247C114.799 647.622 108.494 624.09 119.119 605.687Z" fill="white"/>
<path d="M171.139 559.558L152.098 548.564L141.104 567.605L160.145 578.599L171.139 559.558Z" fill="white"/>
<path d="M218.844 586.886L199.803 575.893L188.809 594.935L207.85 605.928L218.844 586.886Z" fill="white"/>
<path fill-rule="evenodd" clip-rule="evenodd" d="M595.75 880.869L606.743 861.828L625.784 872.821L614.791 891.862C610.237 899.749 612.939 909.835 620.826 914.388C628.713 918.942 638.799 916.239 643.352 908.352L654.346 889.311L673.387 900.305L662.393 919.346C651.768 937.749 628.236 944.054 609.833 933.429C591.43 922.804 585.125 899.272 595.75 880.869Z" fill="white"/>
<path d="M647.77 834.739L628.729 823.746L617.736 842.787L636.777 853.78L647.77 834.739Z" fill="white"/>
<path d="M695.476 862.068L676.435 851.074L665.441 870.116L684.482 881.109L695.476 862.068Z" fill="white"/>
<path fill-rule="evenodd" clip-rule="evenodd" d="M479.325 686.15L468.332 705.191L449.291 694.197L460.285 675.156C464.838 667.269 462.136 657.184 454.249 652.63C446.362 648.077 436.277 650.779 431.723 658.666L420.73 677.707L401.689 666.714L412.682 647.673C423.307 629.27 446.839 622.965 465.242 633.59C483.645 644.215 489.95 667.747 479.325 686.15Z" fill="white"/>
<path d="M427.305 732.279L446.346 743.272L457.339 724.231L438.298 713.238L427.305 732.279Z" fill="white"/>
<path d="M379.6 704.951L398.641 715.944L409.634 696.902L390.593 685.909L379.6 704.951Z" fill="white"/>
<path fill-rule="evenodd" clip-rule="evenodd" d="M955.957 961.332L944.964 980.373L925.923 969.379L936.916 950.338C941.47 942.451 938.768 932.366 930.881 927.812C922.994 923.259 912.908 925.961 908.355 933.848L897.361 952.889L878.32 941.896L889.314 922.855C899.939 904.452 923.471 898.147 941.874 908.772C960.277 919.397 966.582 942.928 955.957 961.332Z" fill="white"/>
<path d="M903.937 1007.46L922.978 1018.45L933.971 999.413L914.93 988.42L903.937 1007.46Z" fill="white"/>
<path d="M856.231 980.133L875.272 991.126L886.266 972.084L867.225 961.091L856.231 980.133Z" fill="white"/>
<path fill-rule="evenodd" clip-rule="evenodd" d="M2.69646 410.967L-8.29688 430.008L-27.3377 419.015L-16.3443 399.974C-11.7907 392.087 -14.4931 382.002 -22.3802 377.448C-30.267 372.895 -40.3523 375.597 -44.9059 383.484L-55.8993 402.525L-74.9403 391.532L-63.9469 372.491C-53.3219 354.088 -29.79 347.782 -11.387 358.407C7.01612 369.032 13.3215 392.564 2.69646 410.967Z" fill="white"/>
<path fill-rule="evenodd" clip-rule="evenodd" d="M214.439 660.719L225.433 641.678L244.473 652.672L233.48 671.713C228.926 679.6 231.629 689.685 239.516 694.239C247.403 698.792 257.488 696.09 262.042 688.203L273.035 669.162L292.076 680.155L281.083 699.196C270.458 717.599 246.926 723.904 228.523 713.279C210.12 702.654 203.814 679.123 214.439 660.719Z" fill="white"/>
<path d="M266.461 614.59L247.42 603.596L236.427 622.637L255.468 633.631L266.461 614.59Z" fill="white"/>
<path d="M314.165 641.918L295.124 630.925L284.13 649.966L303.171 660.96L314.165 641.918Z" fill="white"/>
<path fill-rule="evenodd" clip-rule="evenodd" d="M691.068 935.902L702.062 916.861L721.102 927.854L710.109 946.895C705.555 954.782 708.258 964.867 716.145 969.421C724.032 973.975 734.117 971.272 738.671 963.385L749.664 944.344L768.705 955.337L757.712 974.378C747.087 992.782 723.555 999.087 705.152 988.462C686.749 977.837 680.443 954.305 691.068 935.902Z" fill="white"/>
<path d="M743.09 889.772L724.049 878.779L713.056 897.82L732.096 908.813L743.09 889.772Z" fill="white"/>
<path d="M790.794 917.1L771.753 906.107L760.759 925.149L779.8 936.142L790.794 917.1Z" fill="white"/>
<path fill-rule="evenodd" clip-rule="evenodd" d="M384.009 631.118L373.016 650.159L353.975 639.165L364.968 620.124C369.522 612.237 366.819 602.152 358.932 597.598C351.046 593.045 340.96 595.747 336.407 603.634L325.413 622.675L306.372 611.682L317.366 592.641C327.991 574.238 351.522 567.933 369.926 578.558C388.329 589.183 394.634 612.715 384.009 631.118Z" fill="white"/>
<path d="M331.986 677.247L351.027 688.24L362.021 669.2L342.98 658.206L331.986 677.247Z" fill="white"/>
<path d="M284.283 649.919L303.324 660.912L314.318 641.87L295.277 630.877L284.283 649.919Z" fill="white"/>
<path fill-rule="evenodd" clip-rule="evenodd" d="M860.637 906.299L849.644 925.34L830.603 914.347L841.596 895.306C846.15 887.419 843.447 877.333 835.56 872.78C827.673 868.226 817.588 870.929 813.034 878.816L802.041 897.857L783 886.863L793.993 867.822C804.619 849.419 828.15 843.114 846.553 853.739C864.957 864.364 871.262 887.896 860.637 906.299Z" fill="white"/>
<path d="M808.615 952.429L827.656 963.422L838.65 944.381L819.609 933.388L808.615 952.429Z" fill="white"/>
<path d="M760.911 925.1L779.952 936.094L790.946 917.052L771.905 906.059L760.911 925.1Z" fill="white"/>
<path fill-rule="evenodd" clip-rule="evenodd" d="M309.756 715.752L320.749 696.711L339.79 707.704L328.796 726.745C324.243 734.632 326.945 744.717 334.832 749.271C342.719 753.824 352.804 751.122 357.358 743.235L368.351 724.194L387.392 735.187L376.399 754.228C365.774 772.631 342.242 778.937 323.839 768.312C305.436 757.687 299.131 734.155 309.756 715.752Z" fill="white"/>
<path d="M361.776 669.622L342.735 658.629L331.742 677.67L350.783 688.663L361.776 669.622Z" fill="white"/>
<path d="M409.481 696.951L390.44 685.958L379.447 704.999L398.488 715.992L409.481 696.951Z" fill="white"/>
<path fill-rule="evenodd" clip-rule="evenodd" d="M786.389 990.934L797.383 971.893L816.424 982.886L805.43 1001.93C800.877 1009.81 803.579 1019.9 811.466 1024.45C819.353 1029.01 829.438 1026.3 833.992 1018.42L844.985 999.376L864.026 1010.37L853.033 1029.41C842.408 1047.81 818.876 1054.12 800.473 1043.49C782.07 1032.87 775.764 1009.34 786.389 990.934Z" fill="white"/>
<path d="M838.409 944.804L819.368 933.811L808.375 952.852L827.416 963.845L838.409 944.804Z" fill="white"/>
<path d="M886.114 972.133L867.073 961.139L856.08 980.181L875.121 991.174L886.114 972.133Z" fill="white"/>
<path fill-rule="evenodd" clip-rule="evenodd" d="M288.69 576.085L277.696 595.126L258.656 584.133L269.649 565.092C274.202 557.205 271.5 547.12 263.613 542.566C255.726 538.013 245.641 540.715 241.087 548.602L230.094 567.643L211.053 556.65L222.046 537.609C232.671 519.206 256.203 512.9 274.606 523.525C293.009 534.151 299.315 557.682 288.69 576.085Z" fill="white"/>
<path d="M236.669 622.215L255.71 633.208L266.703 614.167L247.662 603.174L236.669 622.215Z" fill="white"/>
<path d="M188.964 594.886L208.005 605.88L218.999 586.838L199.958 575.845L188.964 594.886Z" fill="white"/>
<path fill-rule="evenodd" clip-rule="evenodd" d="M765.317 851.267L754.323 870.308L735.282 859.315L746.276 840.274C750.829 832.387 748.127 822.301 740.24 817.748C732.353 813.194 722.268 815.897 717.714 823.784L706.721 842.825L687.68 831.831L698.673 812.79C709.298 794.387 732.83 788.082 751.233 798.707C769.636 809.332 775.942 832.864 765.317 851.267Z" fill="white"/>
<path d="M713.295 897.397L732.336 908.39L743.329 889.349L724.288 878.356L713.295 897.397Z" fill="white"/>
<path d="M665.591 870.068L684.632 881.062L695.626 862.02L676.585 851.027L665.591 870.068Z" fill="white"/>
<path fill-rule="evenodd" clip-rule="evenodd" d="M405.075 770.784L416.068 751.743L435.109 762.736L424.116 781.777C419.562 789.664 422.265 799.75 430.152 804.303C438.038 808.857 448.124 806.154 452.677 798.267L463.671 779.226L482.712 790.22L471.718 809.261C461.093 827.664 437.562 833.969 419.158 823.344C400.755 812.719 394.45 789.187 405.075 770.784Z" fill="white"/>
<path d="M457.096 724.654L438.055 713.661L427.061 732.702L446.102 743.695L457.096 724.654Z" fill="white"/>
<path d="M504.801 751.983L485.76 740.99L474.766 760.031L493.807 771.024L504.801 751.983Z" fill="white"/>
<path d="M933.728 999.836L914.688 988.843L903.694 1007.88L922.735 1018.88L933.728 999.836Z" fill="white"/>
<path d="M981.433 1027.16L962.392 1016.17L951.398 1035.21L970.439 1046.21L981.433 1027.16Z" fill="white"/>
<path fill-rule="evenodd" clip-rule="evenodd" d="M-71.5539 495.602L-60.5605 476.561L-41.5198 487.554L-52.5131 506.595C-57.0667 514.482 -54.3643 524.568 -46.4773 529.121C-38.5904 533.675 -28.5051 530.972 -23.9515 523.085L-12.9582 504.044L6.08285 515.038L-4.91048 534.079C-15.5355 552.482 -39.0674 558.787 -57.4705 548.162C-75.8735 537.537 -82.1789 514.005 -71.5539 495.602Z" fill="white"/>
<path d="M28.1718 476.801L9.13086 465.808L-1.86284 484.849L17.1781 495.843L28.1718 476.801Z" fill="white"/>
<path fill-rule="evenodd" clip-rule="evenodd" d="M1146.63 1071.42L1135.64 1090.46L1116.6 1079.46L1127.59 1060.42C1132.14 1052.54 1129.44 1042.45 1121.55 1037.9C1113.67 1033.34 1103.58 1036.05 1099.03 1043.93L1088.03 1062.97L1068.99 1051.98L1079.99 1032.94C1090.61 1014.54 1114.14 1008.23 1132.55 1018.86C1150.95 1029.48 1157.26 1053.01 1146.63 1071.42Z" fill="white"/>
<path fill-rule="evenodd" clip-rule="evenodd" d="M193.37 521.053L182.377 540.094L163.336 529.1L174.329 510.059C178.883 502.172 176.181 492.087 168.294 487.533C160.407 482.98 150.321 485.682 145.768 493.569L134.775 512.61L115.734 501.617L126.727 482.576C137.352 464.173 160.884 457.868 179.287 468.493C197.69 479.118 203.995 502.649 193.37 521.053Z" fill="white"/>
<path d="M141.35 567.182L160.391 578.175L171.384 559.134L152.343 548.141L141.35 567.182Z" fill="white"/>
<path d="M93.6446 539.854L112.686 550.847L123.679 531.806L104.638 520.812L93.6446 539.854Z" fill="white"/>
<path fill-rule="evenodd" clip-rule="evenodd" d="M670.001 796.235L659.008 815.276L639.967 804.283L650.96 785.242C655.514 777.355 652.812 767.269 644.925 762.716C637.038 758.162 626.952 760.865 622.399 768.752L611.405 787.793L592.364 776.799L603.358 757.758C613.983 739.355 637.515 733.05 655.918 743.675C674.321 754.3 680.626 777.832 670.001 796.235Z" fill="white"/>
<path d="M617.981 842.364L637.021 853.358L648.015 834.317L628.974 823.323L617.981 842.364Z" fill="white"/>
<path d="M570.275 815.036L589.316 826.029L600.31 806.987L581.269 795.994L570.275 815.036Z" fill="white"/>
<path fill-rule="evenodd" clip-rule="evenodd" d="M1186.29 738.627L1197.28 719.586L1216.32 730.579L1205.33 749.62C1200.77 757.507 1203.48 767.592 1211.36 772.146C1219.25 776.699 1229.34 773.997 1233.89 766.11L1244.88 747.069L1263.92 758.062L1252.93 777.103C1242.31 795.506 1218.77 801.812 1200.37 791.187C1181.97 780.562 1175.66 757.03 1186.29 738.627Z" fill="white"/>
<path d="M1238.31 692.497L1219.27 681.504L1208.27 700.545L1227.31 711.538L1238.31 692.497Z" fill="white"/>
<path d="M1286.01 719.826L1266.97 708.833L1255.98 727.874L1275.02 738.867L1286.01 719.826Z" fill="white"/>
<path fill-rule="evenodd" clip-rule="evenodd" d="M233.028 188.262L244.021 169.221L263.062 180.215L252.069 199.256C247.515 207.143 250.218 217.228 258.105 221.782C265.992 226.335 276.077 223.633 280.631 215.746L291.624 196.705L310.665 207.698L299.672 226.739C289.047 245.142 265.515 251.447 247.112 240.822C228.708 230.197 222.403 206.666 233.028 188.262Z" fill="white"/>
<path d="M285.049 142.133L266.008 131.14L255.014 150.181L274.055 161.174L285.049 142.133Z" fill="white"/>
<path d="M332.754 169.462L313.713 158.468L302.719 177.51L321.76 188.503L332.754 169.462Z" fill="white"/>
<path fill-rule="evenodd" clip-rule="evenodd" d="M709.658 463.445L720.651 444.404L739.692 455.397L728.699 474.438C724.145 482.325 726.848 492.41 734.735 496.964C742.621 501.517 752.707 498.815 757.26 490.928L768.254 471.887L787.295 482.88L776.301 501.921C765.676 520.324 742.145 526.63 723.741 516.005C705.338 505.38 699.033 481.848 709.658 463.445Z" fill="white"/>
<path d="M761.679 417.316L742.638 406.322L731.644 425.363L750.685 436.357L761.679 417.316Z" fill="white"/>
<path d="M809.384 444.643L790.343 433.65L779.349 452.692L798.39 463.685L809.384 444.643Z" fill="white"/>
<path fill-rule="evenodd" clip-rule="evenodd" d="M783.871 378.79L772.878 397.831L753.837 386.837L764.83 367.796C769.384 359.909 766.682 349.824 758.795 345.27C750.908 340.717 740.822 343.419 736.269 351.306L725.276 370.347L706.235 359.354L717.228 340.313C727.853 321.91 751.385 315.605 769.788 326.23C788.191 336.855 794.496 360.386 783.871 378.79Z" fill="white"/>
<path d="M731.851 424.919L750.892 435.912L761.885 416.871L742.844 405.878L731.851 424.919Z" fill="white"/>
<path d="M684.146 397.59L703.187 408.584L714.18 389.542L695.139 378.549L684.146 397.59Z" fill="white"/>
<path fill-rule="evenodd" clip-rule="evenodd" d="M1260.5 653.971L1249.51 673.012L1230.47 662.019L1241.46 642.978C1246.01 635.091 1243.31 625.006 1235.42 620.452C1227.54 615.899 1217.45 618.601 1212.9 626.488L1201.91 645.529L1182.86 634.536L1193.86 615.495C1204.48 597.092 1228.01 590.786 1246.42 601.411C1264.82 612.036 1271.13 635.568 1260.5 653.971Z" fill="white"/>
<path d="M1208.48 700.101L1227.52 711.094L1238.51 692.053L1219.47 681.06L1208.48 700.101Z" fill="white"/>
<path d="M1160.78 672.772L1179.82 683.766L1190.81 664.724L1171.77 653.731L1160.78 672.772Z" fill="white"/>
<path fill-rule="evenodd" clip-rule="evenodd" d="M307.242 103.608L296.249 122.649L277.208 111.655L288.202 92.6145C292.755 84.7274 290.053 74.6421 282.166 70.0885C274.279 65.535 264.194 68.2374 259.64 76.1244L248.647 95.1654L229.606 84.1721L240.599 65.1311C251.224 46.728 274.756 40.4227 293.159 51.0477C311.562 61.6727 317.867 85.2046 307.242 103.608Z" fill="white"/>
<path d="M255.222 149.737L274.263 160.73L285.256 141.689L266.215 130.696L255.222 149.737Z" fill="white"/>
<path d="M207.517 122.409L226.558 133.402L237.551 114.36L218.51 103.367L207.517 122.409Z" fill="white"/>
<path fill-rule="evenodd" clip-rule="evenodd" d="M1281.61 793.659L1292.6 774.618L1311.64 785.611L1300.65 804.652C1296.09 812.539 1298.8 822.625 1306.68 827.178C1314.57 831.732 1324.66 829.029 1329.21 821.142L1340.2 802.101L1359.24 813.095L1348.25 832.136C1337.62 850.539 1314.09 856.844 1295.69 846.219C1277.29 835.594 1270.98 812.062 1281.61 793.659Z" fill="white"/>
<path d="M1333.63 747.529L1314.59 736.536L1303.59 755.577L1322.63 766.57L1333.63 747.529Z" fill="white"/>
<path d="M1381.33 774.858L1362.29 763.865L1351.3 782.906L1370.34 793.899L1381.33 774.858Z" fill="white"/>
<path fill-rule="evenodd" clip-rule="evenodd" d="M328.347 243.295L339.341 224.254L358.382 235.247L347.388 254.288C342.835 262.175 345.537 272.261 353.424 276.814C361.311 281.368 371.396 278.665 375.95 270.778L386.943 251.737L405.984 262.73L394.991 281.771C384.366 300.175 360.834 306.48 342.431 295.855C324.028 285.23 317.722 261.698 328.347 243.295Z" fill="white"/>
<path d="M380.369 197.166L361.328 186.172L350.335 205.213L369.376 216.207L380.369 197.166Z" fill="white"/>
<path d="M428.073 224.494L409.032 213.5L398.039 232.542L417.08 243.535L428.073 224.494Z" fill="white"/>
<path fill-rule="evenodd" clip-rule="evenodd" d="M804.978 518.477L815.972 499.436L835.012 510.429L824.019 529.47C819.466 537.357 822.168 547.442 830.055 551.996C837.942 556.549 848.027 553.847 852.581 545.96L863.574 526.919L882.615 537.912L871.622 556.953C860.997 575.356 837.465 581.662 819.062 571.037C800.659 560.412 794.353 536.88 804.978 518.477Z" fill="white"/>
<path d="M856.998 472.347L837.957 461.354L826.964 480.395L846.005 491.388L856.998 472.347Z" fill="white"/>
<path d="M904.702 499.676L885.661 488.682L874.667 507.724L893.708 518.717L904.702 499.676Z" fill="white"/>
<path fill-rule="evenodd" clip-rule="evenodd" d="M688.554 323.758L677.561 342.799L658.52 331.806L669.513 312.765C674.067 304.878 671.364 294.792 663.477 290.239C655.59 285.685 645.505 288.388 640.951 296.275L629.958 315.316L610.917 304.322L621.91 285.281C632.536 266.878 656.067 260.573 674.47 271.198C692.874 281.823 699.179 305.355 688.554 323.758Z" fill="white"/>
<path d="M636.533 369.887L655.574 380.881L666.568 361.84L647.527 350.846L636.533 369.887Z" fill="white"/>
<path d="M588.828 342.559L607.869 353.552L618.863 334.51L599.822 323.517L588.828 342.559Z" fill="white"/>
<path fill-rule="evenodd" clip-rule="evenodd" d="M1165.18 598.939L1154.19 617.98L1135.15 606.987L1146.14 587.946C1150.69 580.059 1147.99 569.974 1140.11 565.42C1132.22 560.867 1122.13 563.569 1117.58 571.456L1106.59 590.497L1087.55 579.504L1098.54 560.463C1109.16 542.06 1132.7 535.754 1151.1 546.379C1169.5 557.005 1175.81 580.536 1165.18 598.939Z" fill="white"/>
<path d="M1113.16 645.069L1132.2 656.062L1143.2 637.021L1124.15 626.028L1113.16 645.069Z" fill="white"/>
<path d="M1065.46 617.74L1084.5 628.734L1095.49 609.692L1076.45 598.699L1065.46 617.74Z" fill="white"/>
<path fill-rule="evenodd" clip-rule="evenodd" d="M211.923 48.5757L200.93 67.6167L181.889 56.6235L192.882 37.5825C197.436 29.6954 194.733 19.6101 186.846 15.0565C178.96 10.503 168.874 13.2054 164.321 21.0924L153.327 40.1334L134.286 29.1401L145.28 10.0991C155.905 -8.30396 179.437 -14.6093 197.84 -3.98428C216.243 6.64074 222.548 30.1726 211.923 48.5757Z" fill="white"/>
<path d="M159.903 94.7052L178.944 105.698L189.938 86.6575L170.897 75.6642L159.903 94.7052Z" fill="white"/>
<path d="M112.198 67.3766L131.239 78.3699L142.233 59.3282L123.192 48.3349L112.198 67.3766Z" fill="white"/>
<path fill-rule="evenodd" clip-rule="evenodd" d="M1376.92 848.691L1387.92 829.65L1406.96 840.643L1395.96 859.684C1391.41 867.571 1394.11 877.657 1402 882.21C1409.89 886.764 1419.97 884.061 1424.53 876.174L1435.52 857.133L1454.56 868.126L1443.57 887.167C1432.94 905.571 1409.41 911.876 1391.01 901.251C1372.6 890.626 1366.3 867.094 1376.92 848.691Z" fill="white"/>
<path d="M1428.94 802.561L1409.9 791.568L1398.91 810.609L1417.95 821.602L1428.94 802.561Z" fill="white"/>
<path fill-rule="evenodd" clip-rule="evenodd" d="M423.666 298.327L434.659 279.286L453.7 290.279L442.707 309.32C438.153 317.207 440.855 327.292 448.742 331.846C456.629 336.4 466.715 333.697 471.268 325.81L482.262 306.769L501.303 317.762L490.309 336.803C479.684 355.207 456.152 361.512 437.749 350.887C419.346 340.262 413.041 316.73 423.666 298.327Z" fill="white"/>
<path d="M475.686 252.197L456.645 241.204L445.651 260.245L464.692 271.238L475.686 252.197Z" fill="white"/>
<path d="M523.391 279.526L504.35 268.533L493.356 287.574L512.397 298.568L523.391 279.526Z" fill="white"/>
<path fill-rule="evenodd" clip-rule="evenodd" d="M900.295 573.509L911.288 554.468L930.329 565.461L919.336 584.502C914.782 592.389 917.484 602.475 925.371 607.028C933.258 611.582 943.344 608.879 947.897 600.992L958.89 581.951L977.931 592.945L966.938 611.986C956.313 630.389 932.781 636.694 914.378 626.069C895.975 615.444 889.67 591.912 900.295 573.509Z" fill="white"/>
<path d="M952.315 527.379L933.274 516.386L922.281 535.427L941.322 546.42L952.315 527.379Z" fill="white"/>
<path d="M1000.02 554.708L980.979 543.715L969.986 562.756L989.027 573.75L1000.02 554.708Z" fill="white"/>
<path fill-rule="evenodd" clip-rule="evenodd" d="M-52.9631 23.145L-41.9697 4.104L-22.9289 15.0972L-33.9223 34.1382C-38.4759 42.0253 -35.7735 52.1106 -27.8864 56.6642C-19.9996 61.2177 -9.91426 58.5153 -5.36066 50.6283L5.63267 31.5873L24.6737 42.5806L13.6803 61.6216C3.05533 80.0247 -20.4766 86.33 -38.8796 75.705C-57.2827 65.08 -63.5881 41.5481 -52.9631 23.145Z" fill="white"/>
<path d="M46.7627 4.3439L27.7217 -6.64941L16.728 12.3922L35.769 23.3855L46.7627 4.3439Z" fill="white"/>
<path fill-rule="evenodd" clip-rule="evenodd" d="M593.234 268.725L582.24 287.766L563.199 276.773L574.193 257.732C578.746 249.845 576.044 239.759 568.157 235.206C560.27 230.652 550.185 233.355 545.631 241.242L534.638 260.283L515.597 249.289L526.59 230.248C537.215 211.845 560.747 205.54 579.15 216.165C597.553 226.79 603.859 250.322 593.234 268.725Z" fill="white"/>
<path d="M541.214 314.854L560.255 325.847L571.248 306.806L552.207 295.813L541.214 314.854Z" fill="white"/>
<path d="M493.509 287.526L512.55 298.52L523.544 279.478L504.503 268.485L493.509 287.526Z" fill="white"/>
<path fill-rule="evenodd" clip-rule="evenodd" d="M1069.86 543.907L1058.87 562.948L1039.83 551.955L1050.82 532.914C1055.38 525.027 1052.67 514.941 1044.79 510.388C1036.9 505.834 1026.81 508.537 1022.26 516.424L1011.27 535.465L992.226 524.471L1003.22 505.43C1013.84 487.027 1037.38 480.722 1055.78 491.347C1074.18 501.972 1080.49 525.504 1069.86 543.907Z" fill="white"/>
<path d="M1017.84 590.036L1036.88 601.03L1047.88 581.989L1028.84 570.995L1017.84 590.036Z" fill="white"/>
<path d="M970.137 562.708L989.178 573.701L1000.17 554.66L981.13 543.666L970.137 562.708Z" fill="white"/>
<path fill-rule="evenodd" clip-rule="evenodd" d="M116.605 -6.45726L105.611 12.5837L86.5705 1.59053L97.5639 -17.4505C102.117 -25.3375 99.4151 -35.4229 91.5281 -39.9765C83.6412 -44.5299 73.5559 -41.8276 69.0023 -33.9405L58.0089 -14.8995L38.9679 -25.8928L49.9613 -44.9339C60.5863 -63.3369 84.1182 -69.6423 102.521 -59.0172C120.924 -48.3922 127.23 -24.8603 116.605 -6.45726Z" fill="white"/>
<path d="M64.583 39.6725L83.624 50.6658L94.6173 31.6248L75.5764 20.6315L64.583 39.6725Z" fill="white"/>
<path d="M16.8789 12.3441L35.9199 23.3374L46.9136 4.29576L27.8726 -6.69756L16.8789 12.3441Z" fill="white"/>
<path fill-rule="evenodd" clip-rule="evenodd" d="M518.984 353.359L529.978 334.318L549.018 345.312L538.025 364.353C533.471 372.24 536.174 382.325 544.061 386.879C551.948 391.432 562.033 388.73 566.587 380.843L577.58 361.802L596.621 372.795L585.628 391.836C575.003 410.239 551.471 416.544 533.068 405.919C514.665 395.294 508.359 371.762 518.984 353.359Z" fill="white"/>
<path d="M571.005 307.23L551.964 296.237L540.971 315.278L560.012 326.271L571.005 307.23Z" fill="white"/>
<path d="M618.71 334.558L599.669 323.565L588.675 342.607L607.716 353.6L618.71 334.558Z" fill="white"/>
<path fill-rule="evenodd" clip-rule="evenodd" d="M995.614 628.541L1006.61 609.5L1025.65 620.494L1014.65 639.535C1010.1 647.422 1012.8 657.507 1020.69 662.061C1028.58 666.614 1038.66 663.912 1043.22 656.025L1054.21 636.984L1073.25 647.977L1062.26 667.018C1051.63 685.421 1028.1 691.726 1009.7 681.101C991.294 670.476 984.989 646.945 995.614 628.541Z" fill="white"/>
<path d="M1047.63 582.412L1028.59 571.419L1017.6 590.46L1036.64 601.453L1047.63 582.412Z" fill="white"/>
<path d="M1095.34 609.74L1076.3 598.747L1065.31 617.788L1084.35 628.782L1095.34 609.74Z" fill="white"/>
<path fill-rule="evenodd" clip-rule="evenodd" d="M42.3553 78.1775L53.3486 59.1365L72.3894 70.1297L61.3961 89.1707C56.8425 97.0577 59.5449 107.143 67.4319 111.697C75.3188 116.25 85.4041 113.548 89.9577 105.661L100.951 86.6197L119.992 97.6131L108.999 116.654C98.3737 135.057 74.8418 141.362 56.4387 130.737C38.0356 120.112 31.7303 96.5805 42.3553 78.1775Z" fill="white"/>
<path d="M94.3769 32.0478L75.3359 21.0544L64.3426 40.0954L83.3836 51.0887L94.3769 32.0478Z" fill="white"/>
<path d="M142.081 59.3761L123.04 48.3828L112.046 67.4245L131.087 78.4178L142.081 59.3761Z" fill="white"/>
<path fill-rule="evenodd" clip-rule="evenodd" d="M1451.17 764.057L1440.18 783.098L1421.14 772.104L1432.13 753.063C1436.69 745.176 1433.99 735.091 1426.1 730.537C1418.21 725.984 1408.13 728.686 1403.57 736.573L1392.58 755.614L1373.54 744.621L1384.53 725.58C1395.16 707.177 1418.69 700.872 1437.09 711.497C1455.49 722.122 1461.8 745.654 1451.17 764.057Z" fill="white"/>
<path d="M1399.15 810.186L1418.2 821.179L1429.19 802.138L1410.15 791.145L1399.15 810.186Z" fill="white"/>
<path d="M1351.45 782.858L1370.49 793.851L1381.48 774.809L1362.44 763.816L1351.45 782.858Z" fill="white"/>
<path fill-rule="evenodd" clip-rule="evenodd" d="M497.915 213.693L486.922 232.734L467.881 221.741L478.874 202.7C483.428 194.813 480.726 184.728 472.839 180.174C464.952 175.62 454.866 178.323 450.313 186.21L439.319 205.251L420.278 194.258L431.272 175.217C441.897 156.813 465.429 150.508 483.832 161.133C502.235 171.758 508.54 195.29 497.915 213.693Z" fill="white"/>
<path d="M445.895 259.823L464.936 270.816L475.929 251.775L456.888 240.782L445.895 259.823Z" fill="white"/>
<path d="M398.189 232.494L417.23 243.488L428.224 224.446L409.183 213.453L398.189 232.494Z" fill="white"/>
<path fill-rule="evenodd" clip-rule="evenodd" d="M974.546 488.875L963.553 507.916L944.512 496.923L955.505 477.882C960.059 469.995 957.357 459.909 949.469 455.356C941.583 450.802 931.497 453.504 926.944 461.392L915.95 480.433L896.909 469.439L907.903 450.398C918.528 431.995 942.06 425.69 960.463 436.315C978.866 446.94 985.171 470.472 974.546 488.875Z" fill="white"/>
<path d="M922.525 535.004L941.566 545.998L952.56 526.957L933.519 515.963L922.525 535.004Z" fill="white"/>
<path d="M874.82 507.676L893.861 518.669L904.855 499.627L885.814 488.634L874.82 507.676Z" fill="white"/>
<path fill-rule="evenodd" clip-rule="evenodd" d="M614.303 408.391L625.296 389.35L644.337 400.343L633.343 419.384C628.79 427.271 631.492 437.357 639.379 441.91C647.266 446.464 657.351 443.761 661.905 435.874L672.898 416.833L691.939 427.827L680.946 446.868C670.321 465.271 646.789 471.576 628.386 460.951C609.983 450.326 603.678 426.794 614.303 408.391Z" fill="white"/>
<path d="M666.323 362.262L647.282 351.268L636.289 370.309L655.33 381.303L666.323 362.262Z" fill="white"/>
<path d="M714.028 389.59L694.987 378.597L683.994 397.639L703.035 408.632L714.028 389.59Z" fill="white"/>
<path fill-rule="evenodd" clip-rule="evenodd" d="M1090.93 683.574L1101.93 664.533L1120.97 675.526L1109.97 694.567C1105.42 702.454 1108.12 712.539 1116.01 717.093C1123.9 721.646 1133.98 718.944 1138.54 711.057L1149.53 692.016L1168.57 703.009L1157.58 722.05C1146.95 740.453 1123.42 746.759 1105.02 736.134C1086.61 725.509 1080.31 701.977 1090.93 683.574Z" fill="white"/>
<path d="M1142.95 637.444L1123.91 626.451L1112.92 645.492L1131.96 656.485L1142.95 637.444Z" fill="white"/>
<path d="M1190.66 664.773L1171.62 653.779L1160.62 672.821L1179.66 683.814L1190.66 664.773Z" fill="white"/>
<path fill-rule="evenodd" clip-rule="evenodd" d="M137.673 133.209L148.666 114.168L167.707 125.162L156.713 144.203C152.16 152.09 154.862 162.175 162.749 166.729C170.636 171.282 180.721 168.58 185.275 160.693L196.268 141.652L215.309 152.645L204.316 171.686C193.691 190.089 170.159 196.394 151.756 185.769C133.353 175.144 127.048 151.613 137.673 133.209Z" fill="white"/>
<path d="M189.692 87.08L170.651 76.0867L159.658 95.1276L178.699 106.121L189.692 87.08Z" fill="white"/>
<path d="M237.397 114.409L218.356 103.415L207.363 122.457L226.404 133.45L237.397 114.409Z" fill="white"/>
<path fill-rule="evenodd" clip-rule="evenodd" d="M1355.86 709.024L1344.86 728.065L1325.82 717.072L1336.82 698.031C1341.37 690.144 1338.67 680.059 1330.78 675.505C1322.89 670.952 1312.81 673.654 1308.25 681.541L1297.26 700.582L1278.22 689.589L1289.21 670.548C1299.84 652.145 1323.37 645.839 1341.77 656.464C1360.18 667.089 1366.48 690.621 1355.86 709.024Z" fill="white"/>
<path d="M1303.84 755.154L1322.88 766.147L1333.87 747.106L1314.83 736.113L1303.84 755.154Z" fill="white"/>
<path d="M1256.13 727.825L1275.17 738.819L1286.17 719.777L1267.12 708.784L1256.13 727.825Z" fill="white"/>
<path fill-rule="evenodd" clip-rule="evenodd" d="M402.598 158.66L391.604 177.701L372.564 166.708L383.557 147.667C388.111 139.78 385.408 129.695 377.521 125.141C369.634 120.588 359.549 123.29 354.995 131.177L344.002 150.218L324.961 139.225L335.954 120.184C346.579 101.781 370.111 95.4754 388.514 106.1C406.917 116.725 413.223 140.257 402.598 158.66Z" fill="white"/>
<path d="M350.577 204.79L369.618 215.783L380.611 196.742L361.571 185.749L350.577 204.79Z" fill="white"/>
<path d="M302.872 177.462L321.913 188.455L332.907 169.413L313.866 158.42L302.872 177.462Z" fill="white"/>
<path fill-rule="evenodd" clip-rule="evenodd" d="M879.226 433.843L868.232 452.884L849.192 441.89L860.185 422.849C864.739 414.962 862.036 404.877 854.149 400.323C846.262 395.77 836.177 398.472 831.623 406.359L820.63 425.4L801.589 414.407L812.582 395.366C823.207 376.963 846.739 370.658 865.142 381.283C883.545 391.908 889.851 415.439 879.226 433.843Z" fill="white"/>
<path d="M827.204 479.972L846.245 490.966L857.238 471.925L838.197 460.931L827.204 479.972Z" fill="white"/>
<path d="M779.5 452.644L798.541 463.637L809.535 444.596L790.494 433.602L779.5 452.644Z" fill="white"/>
<path d="M9.61813 949.279L-9.42285 938.285L-20.4165 957.327L-1.37557 968.32L9.61813 949.279Z" fill="white"/>
<path fill-rule="evenodd" clip-rule="evenodd" d="M270.098 1048.54L259.104 1067.58L240.064 1056.59L251.057 1037.55C255.611 1029.66 252.908 1019.58 245.021 1015.02C237.134 1010.47 227.049 1013.17 222.495 1021.06L211.502 1040.1L192.461 1029.11L203.454 1010.07C214.079 991.663 237.611 985.357 256.014 995.983C274.417 1006.61 280.723 1030.14 270.098 1048.54Z" fill="white"/>
<path fill-rule="evenodd" clip-rule="evenodd" d="M5.21077 1023.11L16.2041 1004.07L35.2449 1015.06L24.2516 1034.1C19.698 1041.99 22.4003 1052.08 30.2874 1056.63C38.1742 1061.18 48.2596 1058.48 52.8132 1050.59L63.8065 1031.55L82.8475 1042.55L71.8542 1061.59C61.2292 1079.99 37.6973 1086.3 19.2942 1075.67C0.891112 1065.05 -5.41425 1041.51 5.21077 1023.11Z" fill="white"/>
<path d="M57.2324 976.982L38.1914 965.989L27.1981 985.03L46.2391 996.023L57.2324 976.982Z" fill="white"/>
<path d="M104.936 1004.31L85.8955 993.317L74.9018 1012.36L93.9428 1023.35L104.936 1004.31Z" fill="white"/>
<path fill-rule="evenodd" clip-rule="evenodd" d="M174.78 993.509L163.787 1012.55L144.746 1001.56L155.74 982.516C160.293 974.629 157.591 964.544 149.704 959.99C141.817 955.437 131.732 958.139 127.178 966.026L116.185 985.067L97.1437 974.074L108.137 955.033C118.762 936.63 142.294 930.324 160.697 940.949C179.1 951.574 185.405 975.106 174.78 993.509Z" fill="white"/>
<path d="M122.76 1039.64L141.801 1050.63L152.794 1031.59L133.753 1020.6L122.76 1039.64Z" fill="white"/>
<path d="M75.0547 1012.31L94.0957 1023.3L105.089 1004.26L86.0484 993.269L75.0547 1012.31Z" fill="white"/>
<path d="M152.55 1032.01L133.509 1021.02L122.515 1040.06L141.556 1051.06L152.55 1032.01Z" fill="white"/>
<path fill-rule="evenodd" clip-rule="evenodd" d="M79.4631 938.478L68.4697 957.519L49.4289 946.525L60.4223 927.484C64.9759 919.597 62.2735 909.512 54.3864 904.958C46.4996 900.405 36.4143 903.107 31.8607 910.994L20.8673 930.035L1.82633 919.042L12.8197 900.001C23.4447 881.598 46.9766 875.293 65.3797 885.918C83.7827 896.543 90.0881 920.074 79.4631 938.478Z" fill="white"/>
<path d="M27.4424 984.607L46.4834 995.6L57.4767 976.559L38.4357 965.566L27.4424 984.607Z" fill="white"/>
<path d="M-20.2627 957.279L-1.22168 968.272L9.77202 949.231L-9.26896 938.237L-20.2627 957.279Z" fill="white"/>
<path fill-rule="evenodd" clip-rule="evenodd" d="M-15.8573 883.446L-26.8506 902.487L-45.8914 891.493L-34.898 872.452C-30.3444 864.565 -33.0468 854.48 -40.9339 849.926C-48.8207 845.373 -58.906 848.075 -63.4596 855.962L-74.453 875.003L-93.494 864.01L-82.5007 844.969C-71.8756 826.566 -48.3437 820.261 -29.9407 830.886C-11.5376 841.511 -5.23224 865.042 -15.8573 883.446Z" fill="white"/>
<path fill-rule="evenodd" clip-rule="evenodd" d="M1452.42 167.495L1463.42 148.454L1482.46 159.448L1471.46 178.489C1466.91 186.376 1469.61 196.461 1477.5 201.015C1485.39 205.568 1495.47 202.866 1500.03 194.979L1511.02 175.938L1530.06 186.931L1519.07 205.972C1508.44 224.375 1484.91 230.68 1466.51 220.055C1448.1 209.43 1441.8 185.898 1452.42 167.495Z" fill="white"/>
<path d="M1426.91 101.641L1445.95 112.634L1456.95 93.5926L1437.91 82.5993L1426.91 101.641Z" fill="white"/>
<path fill-rule="evenodd" clip-rule="evenodd" d="M1071.11 -52.6546L1082.11 -71.6956L1101.15 -60.7024L1090.15 -41.6613C1085.6 -33.7743 1088.3 -23.689 1096.19 -19.1354C1104.08 -14.5819 1114.16 -17.2842 1118.71 -25.1713L1129.71 -44.2123L1148.75 -33.219L1137.76 -14.178C1127.13 4.2251 1103.6 10.5304 1085.2 -0.0945735C1066.79 -10.7196 1060.49 -34.2515 1071.11 -52.6546Z" fill="white"/>
<path fill-rule="evenodd" clip-rule="evenodd" d="M1431.32 27.8081L1420.32 46.8491L1401.28 35.8559L1412.28 16.8149C1416.83 8.92785 1414.13 -1.15748 1406.24 -5.71108C1398.35 -10.2646 1388.27 -7.5622 1383.72 0.32486L1372.72 19.3659L1353.68 8.37253L1364.67 -10.6685C1375.3 -29.0715 1398.83 -35.3769 1417.23 -24.7519C1435.64 -14.1268 1441.94 9.40505 1431.32 27.8081Z" fill="white"/>
<path d="M1379.3 73.9376L1398.34 84.9309L1409.33 65.8899L1390.29 54.8966L1379.3 73.9376Z" fill="white"/>
<path d="M1331.59 46.609L1350.63 57.6023L1361.63 38.5607L1342.59 27.5673L1331.59 46.609Z" fill="white"/>
<path fill-rule="evenodd" clip-rule="evenodd" d="M1166.43 2.37792L1177.42 -16.6631L1196.47 -5.66988L1185.47 13.3711C1180.92 21.2582 1183.62 31.3435 1191.51 35.8971C1199.39 40.4506 1209.48 37.7482 1214.03 29.8612L1225.03 10.8202L1244.07 21.8135L1233.07 40.8545C1222.45 59.2576 1198.92 65.5629 1180.51 54.9379C1162.11 44.3129 1155.81 20.781 1166.43 2.37792Z" fill="white"/>
<path d="M1266.16 -16.4232L1247.12 -27.4165L1236.12 -8.37486L1255.16 2.61846L1266.16 -16.4232Z" fill="white"/>
<path d="M1283.98 18.9049L1303.02 29.8982L1314.01 10.8572L1294.97 -0.136101L1283.98 18.9049Z" fill="white"/>
<path d="M1236.27 -8.42349L1255.32 2.56982L1266.31 -16.4718L1247.27 -27.4651L1236.27 -8.42349Z" fill="white"/>
<path fill-rule="evenodd" clip-rule="evenodd" d="M1261.75 57.4099L1272.74 38.3689L1291.78 49.3621L1280.79 68.4031C1276.24 76.2902 1278.94 86.3755 1286.83 90.9291C1294.71 95.4826 1304.8 92.7802 1309.35 84.8932L1320.35 65.8522L1339.39 76.8455L1328.39 95.8865C1317.77 114.29 1294.24 120.595 1275.83 109.97C1257.43 99.3449 1251.12 75.813 1261.75 57.4099Z" fill="white"/>
<path d="M1313.77 11.2807L1294.73 0.287354L1283.74 19.3283L1302.78 30.3216L1313.77 11.2807Z" fill="white"/>
<path d="M1361.48 38.609L1342.43 27.6157L1331.44 46.6574L1350.48 57.6507L1361.48 38.609Z" fill="white"/>
<path fill-rule="evenodd" clip-rule="evenodd" d="M1357.07 112.442L1368.06 93.4011L1387.1 104.394L1376.11 123.435C1371.56 131.322 1374.26 141.408 1382.15 145.961C1390.03 150.515 1400.12 147.812 1404.67 139.925L1415.67 120.884L1434.71 131.878L1423.71 150.919C1413.09 169.322 1389.56 175.627 1371.15 165.002C1352.75 154.377 1346.45 130.845 1357.07 112.442Z" fill="white"/>
<path d="M1409.09 66.3127L1390.05 55.3193L1379.06 74.3603L1398.1 85.3536L1409.09 66.3127Z" fill="white"/>
<path d="M1456.79 93.6413L1437.75 82.6479L1426.76 101.69L1445.8 112.683L1456.79 93.6413Z" fill="white"/>
<path fill-rule="evenodd" clip-rule="evenodd" d="M1033.97 892.28L1044.96 873.239L1064 884.232L1053.01 903.273C1048.46 911.161 1051.16 921.246 1059.05 925.799C1066.93 930.353 1077.02 927.651 1081.57 919.764L1092.56 900.723L1111.61 911.716L1100.61 930.757C1089.99 949.16 1066.46 955.465 1048.05 944.84C1029.65 934.215 1023.34 910.683 1033.97 892.28Z" fill="white"/>
<path d="M1085.99 846.15L1066.95 835.157L1055.95 854.198L1075 865.191L1085.99 846.15Z" fill="white"/>
<path d="M1133.69 873.479L1114.65 862.486L1103.66 881.527L1122.7 892.521L1133.69 873.479Z" fill="white"/>
<path fill-rule="evenodd" clip-rule="evenodd" d="M80.7108 341.916L91.7041 322.875L110.745 333.868L99.7516 352.909C95.198 360.796 97.9003 370.882 105.787 375.435C113.674 379.989 123.76 377.286 128.313 369.399L139.306 350.358L158.348 361.352L147.354 380.393C136.729 398.796 113.197 405.101 94.7942 394.476C76.3911 383.851 70.0858 360.319 80.7108 341.916Z" fill="white"/>
<path d="M132.73 295.787L113.689 284.793L102.696 303.834L121.737 314.828L132.73 295.787Z" fill="white"/>
<path d="M180.436 323.115L161.395 312.122L150.401 331.163L169.442 342.157L180.436 323.115Z" fill="white"/>
<path fill-rule="evenodd" clip-rule="evenodd" d="M557.339 617.097L568.332 598.056L587.373 609.05L576.379 628.091C571.826 635.978 574.528 646.063 582.415 650.617C590.302 655.17 600.387 652.468 604.941 644.581L615.934 625.54L634.975 636.533L623.982 655.574C613.357 673.977 589.825 680.282 571.422 669.657C553.019 659.032 546.714 635.5 557.339 617.097Z" fill="white"/>
<path d="M609.359 570.968L590.318 559.975L579.325 579.016L598.366 590.009L609.359 570.968Z" fill="white"/>
<path d="M657.064 598.297L638.023 587.303L627.03 606.345L646.071 617.338L657.064 598.297Z" fill="white"/>
<path fill-rule="evenodd" clip-rule="evenodd" d="M631.554 532.443L620.561 551.484L601.52 540.491L612.513 521.45C617.067 513.563 614.364 503.477 606.477 498.924C598.59 494.37 588.505 497.073 583.951 504.96L572.958 524.001L553.917 513.007L564.91 493.966C575.536 475.563 599.067 469.258 617.47 479.883C635.874 490.508 642.179 514.04 631.554 532.443Z" fill="white"/>
<path d="M579.533 578.572L598.574 589.566L609.568 570.525L590.527 559.531L579.533 578.572Z" fill="white"/>
<path d="M531.828 551.244L550.869 562.237L561.863 543.196L542.822 532.202L531.828 551.244Z" fill="white"/>
<path fill-rule="evenodd" clip-rule="evenodd" d="M1108.18 807.625L1097.19 826.666L1078.15 815.673L1089.14 796.632C1093.7 788.745 1090.99 778.659 1083.11 774.106C1075.22 769.552 1065.13 772.254 1060.58 780.142L1049.59 799.183L1030.55 788.189L1041.54 769.148C1052.16 750.745 1075.7 744.44 1094.1 755.065C1112.5 765.69 1118.81 789.222 1108.18 807.625Z" fill="white"/>
<path d="M1056.16 853.755L1075.2 864.748L1086.2 845.707L1067.16 834.714L1056.16 853.755Z" fill="white"/>
<path d="M1008.46 826.426L1027.5 837.419L1038.49 818.378L1019.45 807.384L1008.46 826.426Z" fill="white"/>
<path fill-rule="evenodd" clip-rule="evenodd" d="M154.924 257.261L143.931 276.302L124.89 265.309L135.883 246.268C140.437 238.381 137.734 228.295 129.847 223.742C121.961 219.188 111.875 221.891 107.322 229.778L96.3283 248.819L77.2873 237.825L88.2806 218.784C98.9056 200.381 122.438 194.076 140.841 204.701C159.244 215.326 165.549 238.858 154.924 257.261Z" fill="white"/>
<path d="M102.904 303.391L121.945 314.384L132.939 295.343L113.898 284.35L102.904 303.391Z" fill="white"/>
<path d="M55.1993 276.062L74.2402 287.055L85.2339 268.014L66.193 257.02L55.1993 276.062Z" fill="white"/>
<path fill-rule="evenodd" clip-rule="evenodd" d="M1129.29 947.313L1140.28 928.272L1159.32 939.265L1148.33 958.306C1143.77 966.193 1146.48 976.278 1154.36 980.832C1162.25 985.385 1172.33 982.683 1176.89 974.796L1187.88 955.755L1206.92 966.748L1195.93 985.789C1185.3 1004.19 1161.77 1010.5 1143.37 999.873C1124.97 989.248 1118.66 965.716 1129.29 947.313Z" fill="white"/>
<path d="M1181.31 901.183L1162.27 890.19L1151.27 909.231L1170.31 920.224L1181.31 901.183Z" fill="white"/>
<path d="M1229.01 928.511L1209.97 917.518L1198.98 936.56L1218.02 947.553L1229.01 928.511Z" fill="white"/>
<path fill-rule="evenodd" clip-rule="evenodd" d="M176.029 396.948L187.022 377.907L206.063 388.9L195.07 407.941C190.516 415.828 193.219 425.914 201.106 430.467C208.993 435.021 219.078 432.319 223.632 424.431L234.625 405.39L253.666 416.384L242.673 435.425C232.048 453.828 208.516 460.133 190.113 449.508C171.709 438.883 165.404 415.351 176.029 396.948Z" fill="white"/>
<path d="M228.05 350.819L209.009 339.826L198.015 358.867L217.056 369.86L228.05 350.819Z" fill="white"/>
<path d="M275.755 378.147L256.714 367.154L245.72 386.195L264.761 397.189L275.755 378.147Z" fill="white"/>
<path fill-rule="evenodd" clip-rule="evenodd" d="M652.658 672.131L663.651 653.09L682.692 664.083L671.699 683.124C667.145 691.011 669.848 701.096 677.735 705.65C685.621 710.203 695.707 707.501 700.26 699.614L711.254 680.573L730.295 691.566L719.301 710.607C708.676 729.01 685.145 735.316 666.741 724.691C648.338 714.066 642.033 690.534 652.658 672.131Z" fill="white"/>
<path d="M704.678 626.001L685.637 615.008L674.643 634.049L693.684 645.042L704.678 626.001Z" fill="white"/>
<path d="M752.383 653.329L733.342 642.336L722.348 661.377L741.389 672.371L752.383 653.329Z" fill="white"/>
<path fill-rule="evenodd" clip-rule="evenodd" d="M1489.49 1027.77L1478.5 1046.82L1459.46 1035.82L1470.45 1016.78C1475.01 1008.89 1472.3 998.809 1464.42 994.256C1456.53 989.702 1446.44 992.405 1441.89 1000.29L1430.9 1019.33L1411.86 1008.34L1422.85 989.298C1433.47 970.895 1457.01 964.59 1475.41 975.215C1493.81 985.84 1500.12 1009.37 1489.49 1027.77Z" fill="white"/>
<path fill-rule="evenodd" clip-rule="evenodd" d="M536.235 477.411L525.241 496.452L506.2 485.459L517.194 466.418C521.747 458.531 519.045 448.445 511.158 443.892C503.271 439.338 493.186 442.041 488.632 449.928L477.639 468.969L458.598 457.975L469.591 438.934C480.216 420.531 503.748 414.226 522.151 424.851C540.554 435.476 546.86 459.008 536.235 477.411Z" fill="white"/>
<path d="M484.214 523.54L503.255 534.534L514.248 515.493L495.207 504.499L484.214 523.54Z" fill="white"/>
<path d="M436.509 496.212L455.55 507.205L466.544 488.163L447.503 477.17L436.509 496.212Z" fill="white"/>
<path fill-rule="evenodd" clip-rule="evenodd" d="M1012.86 752.593L1001.87 771.634L982.83 760.641L993.824 741.6C998.377 733.713 995.675 723.627 987.788 719.074C979.901 714.52 969.816 717.222 965.262 725.11L954.269 744.151L935.228 733.157L946.221 714.116C956.846 695.713 980.378 689.408 998.781 700.033C1017.18 710.658 1023.49 734.19 1012.86 752.593Z" fill="white"/>
<path d="M960.844 798.722L979.885 809.716L990.878 790.675L971.837 779.681L960.844 798.722Z" fill="white"/>
<path d="M913.139 771.394L932.18 782.387L943.173 763.345L924.132 752.352L913.139 771.394Z" fill="white"/>
<path fill-rule="evenodd" clip-rule="evenodd" d="M59.6056 202.229L48.6123 221.27L29.5715 210.276L40.5648 191.235C45.1184 183.348 42.4161 173.263 34.529 168.709C26.6422 164.156 16.5568 166.858 12.0032 174.745L1.00991 193.786L-18.0311 182.793L-7.03776 163.752C3.58726 145.349 27.1192 139.044 45.5222 149.669C63.9253 160.294 70.2307 183.825 59.6056 202.229Z" fill="white"/>
<path d="M7.585 248.358L26.626 259.351L37.6193 240.31L18.5783 229.317L7.585 248.358Z" fill="white"/>
<path fill-rule="evenodd" clip-rule="evenodd" d="M1224.6 1002.34L1235.6 983.303L1254.64 994.296L1243.65 1013.34C1239.09 1021.22 1241.79 1031.31 1249.68 1035.86C1257.57 1040.42 1267.65 1037.71 1272.21 1029.83L1283.2 1010.79L1302.24 1021.78L1291.25 1040.82C1280.62 1059.22 1257.09 1065.53 1238.69 1054.9C1220.28 1044.28 1213.98 1020.75 1224.6 1002.34Z" fill="white"/>
<path d="M1276.62 956.215L1257.58 945.221L1246.59 964.262L1265.63 975.255L1276.62 956.215Z" fill="white"/>
<path d="M1324.33 983.543L1305.29 972.55L1294.3 991.591L1313.34 1002.58L1324.33 983.543Z" fill="white"/>
<path fill-rule="evenodd" clip-rule="evenodd" d="M271.347 451.98L282.34 432.939L301.381 443.932L290.387 462.973C285.834 470.86 288.536 480.946 296.423 485.499C304.31 490.053 314.395 487.351 318.949 479.463L329.942 460.422L348.983 471.416L337.99 490.457C327.365 508.86 303.833 515.165 285.43 504.54C267.027 493.915 260.721 470.383 271.347 451.98Z" fill="white"/>
<path d="M323.367 405.851L304.326 394.857L293.333 413.898L312.374 424.892L323.367 405.851Z" fill="white"/>
<path d="M371.072 433.179L352.031 422.186L341.038 441.228L360.079 452.221L371.072 433.179Z" fill="white"/>
<path fill-rule="evenodd" clip-rule="evenodd" d="M747.977 727.163L758.971 708.122L778.011 719.115L767.018 738.156C762.465 746.043 765.167 756.128 773.054 760.682C780.941 765.236 791.026 762.533 795.58 754.646L806.573 735.605L825.614 746.598L814.621 765.639C803.996 784.042 780.464 790.348 762.061 779.723C743.658 769.098 737.352 745.566 747.977 727.163Z" fill="white"/>
<path d="M799.997 681.033L780.956 670.04L769.963 689.081L789.004 700.074L799.997 681.033Z" fill="white"/>
<path d="M847.702 708.362L828.661 697.368L817.667 716.41L836.708 727.403L847.702 708.362Z" fill="white"/>
<path fill-rule="evenodd" clip-rule="evenodd" d="M1394.17 972.742L1383.18 991.783L1364.14 980.79L1375.13 961.749C1379.69 953.862 1376.98 943.776 1369.1 939.223C1361.21 934.669 1351.12 937.372 1346.57 945.259L1335.58 964.3L1316.54 953.306L1327.53 934.265C1338.15 915.862 1361.69 909.557 1380.09 920.182C1398.49 930.807 1404.8 954.339 1394.17 972.742Z" fill="white"/>
<path d="M1342.15 1018.87L1361.19 1029.87L1372.19 1010.82L1353.15 999.831L1342.15 1018.87Z" fill="white"/>
<path d="M1294.45 991.544L1313.49 1002.54L1324.48 983.495L1305.44 972.502L1294.45 991.544Z" fill="white"/>
<path fill-rule="evenodd" clip-rule="evenodd" d="M440.916 422.378L429.923 441.419L410.882 430.426L421.875 411.385C426.429 403.498 423.727 393.413 415.84 388.859C407.953 384.306 397.867 387.008 393.314 394.895L382.32 413.936L363.279 402.943L374.273 383.902C384.898 365.499 408.43 359.193 426.833 369.818C445.236 380.443 451.541 403.975 440.916 422.378Z" fill="white"/>
<path d="M388.897 468.508L407.938 479.501L418.931 460.46L399.89 449.467L388.897 468.508Z" fill="white"/>
<path d="M341.191 441.18L360.232 452.173L371.226 433.131L352.185 422.138L341.191 441.18Z" fill="white"/>
<path fill-rule="evenodd" clip-rule="evenodd" d="M917.544 697.56L906.551 716.601L887.51 705.608L898.503 686.567C903.057 678.68 900.355 668.595 892.468 664.041C884.581 659.488 874.495 662.19 869.942 670.077L858.948 689.118L839.907 678.125L850.901 659.084C861.526 640.681 885.058 634.375 903.461 645C921.864 655.625 928.169 679.157 917.544 697.56Z" fill="white"/>
<path d="M865.523 743.69L884.564 754.683L895.558 735.642L876.517 724.649L865.523 743.69Z" fill="white"/>
<path d="M817.818 716.361L836.859 727.355L847.853 708.313L828.812 697.32L817.818 716.361Z" fill="white"/>
<path d="M1371.95 1011.25L1352.9 1000.25L1341.91 1019.3L1360.95 1030.29L1371.95 1011.25Z" fill="white"/>
<path fill-rule="evenodd" clip-rule="evenodd" d="M366.666 507.013L377.659 487.972L396.7 498.965L385.707 518.006C381.153 525.893 383.855 535.979 391.742 540.532C399.629 545.086 409.715 542.383 414.268 534.496L425.262 515.455L444.303 526.449L433.309 545.49C422.684 563.893 399.152 570.198 380.749 559.573C362.346 548.948 356.041 525.416 366.666 507.013Z" fill="white"/>
<path d="M418.687 460.883L399.646 449.89L388.653 468.931L407.694 479.924L418.687 460.883Z" fill="white"/>
<path d="M466.392 488.212L447.351 477.218L436.357 496.26L455.398 507.253L466.392 488.212Z" fill="white"/>
<path fill-rule="evenodd" clip-rule="evenodd" d="M843.295 782.194L854.288 763.153L873.329 774.147L862.336 793.188C857.782 801.075 860.484 811.16 868.371 815.714C876.258 820.267 886.344 817.565 890.897 809.678L901.89 790.637L920.931 801.63L909.938 820.671C899.313 839.074 875.781 845.379 857.378 834.754C838.975 824.129 832.67 800.597 843.295 782.194Z" fill="white"/>
<path d="M895.315 736.065L876.274 725.072L865.281 744.113L884.322 755.106L895.315 736.065Z" fill="white"/>
<path d="M943.02 763.393L923.979 752.4L912.986 771.442L932.027 782.435L943.02 763.393Z" fill="white"/>
<path fill-rule="evenodd" clip-rule="evenodd" d="M1298.86 917.71L1287.86 936.751L1268.82 925.758L1279.81 906.717C1284.37 898.83 1281.67 888.745 1273.78 884.191C1265.89 879.638 1255.81 882.34 1251.25 890.227L1240.26 909.268L1221.22 898.275L1232.21 879.234C1242.84 860.831 1266.37 854.525 1284.77 865.15C1303.18 875.776 1309.48 899.307 1298.86 917.71Z" fill="white"/>
<path d="M1246.83 963.84L1265.88 974.833L1276.87 955.792L1257.83 944.799L1246.83 963.84Z" fill="white"/>
<path d="M1199.13 936.511L1218.17 947.505L1229.16 928.463L1210.12 917.47L1199.13 936.511Z" fill="white"/>
<path fill-rule="evenodd" clip-rule="evenodd" d="M345.598 367.346L334.604 386.387L315.564 375.394L326.557 356.353C331.111 348.466 328.408 338.381 320.521 333.827C312.634 329.274 302.549 331.976 297.995 339.863L287.002 358.904L267.961 347.911L278.954 328.87C289.579 310.467 313.111 304.161 331.514 314.786C349.917 325.411 356.223 348.943 345.598 367.346Z" fill="white"/>
<path d="M293.577 413.476L312.618 424.469L323.611 405.428L304.571 394.435L293.577 413.476Z" fill="white"/>
<path d="M245.872 386.147L264.913 397.141L275.907 378.099L256.866 367.106L245.872 386.147Z" fill="white"/>
<path fill-rule="evenodd" clip-rule="evenodd" d="M822.227 642.528L811.233 661.569L792.193 650.576L803.186 631.535C807.74 623.648 805.037 613.562 797.15 609.009C789.263 604.455 779.178 607.158 774.624 615.045L763.631 634.086L744.59 623.093L755.583 604.051C766.208 585.648 789.74 579.343 808.143 589.968C826.546 600.593 832.852 624.125 822.227 642.528Z" fill="white"/>
<path d="M770.206 688.658L789.247 699.651L800.24 680.61L781.199 669.617L770.206 688.658Z" fill="white"/>
<path d="M722.501 661.329L741.542 672.323L752.536 653.281L733.495 642.288L722.501 661.329Z" fill="white"/>
<path fill-rule="evenodd" clip-rule="evenodd" d="M461.985 562.045L472.979 543.004L492.019 553.997L481.026 573.038C476.472 580.925 479.175 591.011 487.062 595.564C494.949 600.118 505.034 597.415 509.588 589.528L520.581 570.487L539.622 581.48L528.629 600.521C518.004 618.925 494.472 625.23 476.069 614.605C457.666 603.98 451.36 580.448 461.985 562.045Z" fill="white"/>
<path d="M514.006 515.915L494.965 504.922L483.972 523.963L503.013 534.956L514.006 515.915Z" fill="white"/>
<path d="M561.711 543.244L542.67 532.251L531.676 551.292L550.717 562.286L561.711 543.244Z" fill="white"/>
<path fill-rule="evenodd" clip-rule="evenodd" d="M938.613 837.227L949.606 818.186L968.647 829.179L957.654 848.22C953.1 856.108 955.803 866.193 963.69 870.746C971.577 875.3 981.662 872.598 986.216 864.711L997.209 845.67L1016.25 856.663L1005.26 875.704C994.631 894.107 971.1 900.412 952.697 889.787C934.293 879.162 927.988 855.63 938.613 837.227Z" fill="white"/>
<path d="M990.633 791.098L971.592 780.104L960.598 799.145L979.639 810.139L990.633 791.098Z" fill="white"/>
<path d="M1038.34 818.426L1019.3 807.433L1008.3 826.474L1027.34 837.468L1038.34 818.426Z" fill="white"/>
<path fill-rule="evenodd" clip-rule="evenodd" d="M-14.6457 286.863L-3.65234 267.822L15.3884 278.815L4.39512 297.856C-0.15848 305.744 2.54388 315.829 10.4309 320.382C18.3178 324.936 28.4031 322.234 32.9567 314.347L43.9501 295.306L62.9911 306.299L51.9977 325.34C41.3727 343.743 17.8408 350.048 -0.562262 339.423C-18.9653 328.798 -25.2707 305.266 -14.6457 286.863Z" fill="white"/>
<path d="M37.375 240.734L18.334 229.74L7.34067 248.781L26.3816 259.775L37.375 240.734Z" fill="white"/>
<path d="M85.08 268.062L66.0391 257.069L55.0454 276.11L74.0863 287.104L85.08 268.062Z" fill="white"/>
<path fill-rule="evenodd" clip-rule="evenodd" d="M1203.54 862.678L1192.54 881.719L1173.5 870.726L1184.5 851.685C1189.05 843.797 1186.35 833.712 1178.46 829.159C1170.57 824.605 1160.49 827.307 1155.93 835.194L1144.94 854.235L1125.9 843.242L1136.89 824.201C1147.52 805.798 1171.05 799.493 1189.45 810.118C1207.86 820.743 1214.16 844.275 1203.54 862.678Z" fill="white"/>
<path d="M1151.52 908.807L1170.56 919.801L1181.55 900.76L1162.51 889.766L1151.52 908.807Z" fill="white"/>
<path d="M1103.81 881.479L1122.85 892.472L1133.85 873.431L1114.81 862.437L1103.81 881.479Z" fill="white"/>
<path fill-rule="evenodd" clip-rule="evenodd" d="M250.279 312.314L239.286 331.355L220.245 320.362L231.239 301.321C235.792 293.434 233.09 283.349 225.203 278.795C217.316 274.242 207.231 276.944 202.677 284.831L191.684 303.872L172.643 292.879L183.636 273.838C194.261 255.435 217.793 249.129 236.196 259.754C254.599 270.379 260.904 293.911 250.279 312.314Z" fill="white"/>
<path d="M198.259 358.444L217.3 369.437L228.293 350.396L209.252 339.403L198.259 358.444Z" fill="white"/>
<path d="M150.554 331.115L169.595 342.108L180.588 323.067L161.547 312.073L150.554 331.115Z" fill="white"/>
<path fill-rule="evenodd" clip-rule="evenodd" d="M726.908 587.496L715.915 606.537L696.874 595.544L707.868 576.503C712.421 568.616 709.719 558.531 701.832 553.977C693.945 549.424 683.86 552.126 679.306 560.013L668.313 579.054L649.272 568.061L660.265 549.02C670.89 530.617 694.422 524.311 712.825 534.936C731.228 545.561 737.533 569.093 726.908 587.496Z" fill="white"/>
<path d="M674.888 633.626L693.929 644.619L704.922 625.578L685.881 614.585L674.888 633.626Z" fill="white"/>
<path d="M627.183 606.297L646.224 617.291L657.217 598.249L638.176 587.256L627.183 606.297Z" fill="white"/>
<path fill-rule="evenodd" clip-rule="evenodd" d="M1243.2 529.889L1254.19 510.848L1273.23 521.841L1262.24 540.882C1257.68 548.769 1260.38 558.854 1268.27 563.408C1276.16 567.961 1286.24 565.259 1290.8 557.372L1301.79 538.331L1320.83 549.324L1309.84 568.365C1299.21 586.768 1275.68 593.074 1257.28 582.449C1238.88 571.824 1232.57 548.292 1243.2 529.889Z" fill="white"/>
<path d="M1295.22 483.759L1276.18 472.766L1265.18 491.807L1284.22 502.8L1295.22 483.759Z" fill="white"/>
<path d="M1342.92 511.088L1323.88 500.094L1312.89 519.136L1331.93 530.129L1342.92 511.088Z" fill="white"/>
<path fill-rule="evenodd" clip-rule="evenodd" d="M289.937 -20.4763L300.931 -39.5173L319.971 -28.5241L308.978 -9.48312C304.425 -1.59606 307.127 8.48927 315.014 13.0429C322.901 17.5963 332.986 14.894 337.54 7.00693L348.533 -12.0341L367.574 -1.04075L356.581 18.0003C345.956 36.4033 322.424 42.7087 304.021 32.0836C285.618 21.4586 279.312 -2.07326 289.937 -20.4763Z" fill="white"/>
<path fill-rule="evenodd" clip-rule="evenodd" d="M766.568 254.707L777.562 235.666L796.602 246.659L785.609 265.7C781.055 273.587 783.758 283.672 791.645 288.226C799.532 292.779 809.617 290.077 814.171 282.19L825.164 263.149L844.205 274.142L833.212 293.183C822.587 311.586 799.055 317.892 780.652 307.267C762.249 296.641 755.943 273.11 766.568 254.707Z" fill="white"/>
<path d="M818.59 208.577L799.549 197.584L788.556 216.625L807.596 227.618L818.59 208.577Z" fill="white"/>
<path d="M866.294 235.905L847.253 224.912L836.259 243.954L855.3 254.947L866.294 235.905Z" fill="white"/>
<path fill-rule="evenodd" clip-rule="evenodd" d="M840.78 170.051L829.787 189.092L810.746 178.099L821.74 159.058C826.293 151.171 823.591 141.085 815.704 136.532C807.817 131.978 797.732 134.68 793.178 142.568L782.185 161.609L763.144 150.615L774.137 131.574C784.762 113.171 808.294 106.866 826.697 117.491C845.1 128.116 851.405 151.648 840.78 170.051Z" fill="white"/>
<path d="M788.76 216.18L807.801 227.174L818.794 208.133L799.753 197.139L788.76 216.18Z" fill="white"/>
<path d="M741.055 188.852L760.096 199.845L771.089 180.803L752.048 169.81L741.055 188.852Z" fill="white"/>
<path fill-rule="evenodd" clip-rule="evenodd" d="M1317.41 445.233L1306.42 464.274L1287.38 453.281L1298.37 434.24C1302.92 426.353 1300.22 416.268 1292.33 411.714C1284.45 407.16 1274.36 409.863 1269.81 417.75L1258.82 436.791L1239.77 425.798L1250.77 406.757C1261.39 388.354 1284.92 382.048 1303.33 392.673C1321.73 403.298 1328.04 426.83 1317.41 445.233Z" fill="white"/>
<path d="M1265.39 491.363L1284.43 502.356L1295.42 483.315L1276.38 472.322L1265.39 491.363Z" fill="white"/>
<path d="M1217.69 464.035L1236.73 475.028L1247.72 455.986L1228.68 444.993L1217.69 464.035Z" fill="white"/>
<path fill-rule="evenodd" clip-rule="evenodd" d="M1338.52 584.921L1349.51 565.88L1368.55 576.873L1357.56 595.914C1353 603.801 1355.71 613.886 1363.59 618.44C1371.48 622.993 1381.56 620.291 1386.12 612.404L1397.11 593.363L1416.15 604.356L1405.16 623.397C1394.53 641.8 1371 648.106 1352.6 637.481C1334.2 626.856 1327.89 603.324 1338.52 584.921Z" fill="white"/>
<path d="M1390.54 538.791L1371.49 527.798L1360.5 546.839L1379.54 557.832L1390.54 538.791Z" fill="white"/>
<path d="M1438.24 566.12L1419.2 555.126L1408.21 574.168L1427.25 585.161L1438.24 566.12Z" fill="white"/>
<path fill-rule="evenodd" clip-rule="evenodd" d="M385.255 34.5557L396.248 15.5146L415.289 26.5079L404.296 45.5489C399.742 53.4359 402.444 63.5213 410.331 68.0749C418.218 72.6283 428.304 69.926 432.857 62.0389L443.85 42.9979L462.891 53.9912L451.898 73.0322C441.273 91.4353 417.741 97.7406 399.338 87.1156C380.935 76.4906 374.63 52.9587 385.255 34.5557Z" fill="white"/>
<path d="M437.275 -11.5738L418.234 -22.5671L407.241 -3.52616L426.282 7.46716L437.275 -11.5738Z" fill="white"/>
<path d="M484.98 15.7548L465.939 4.76147L454.946 23.8031L473.987 34.7964L484.98 15.7548Z" fill="white"/>
<path fill-rule="evenodd" clip-rule="evenodd" d="M861.885 309.738L872.878 290.697L891.919 301.69L880.925 320.731C876.372 328.618 879.074 338.704 886.961 343.257C894.848 347.811 904.933 345.108 909.487 337.221L920.48 318.18L939.521 329.174L928.528 348.215C917.903 366.618 894.371 372.923 875.968 362.298C857.565 351.673 851.26 328.141 861.885 309.738Z" fill="white"/>
<path d="M913.905 263.609L894.864 252.615L883.871 271.656L902.912 282.65L913.905 263.609Z" fill="white"/>
<path d="M961.61 290.937L942.569 279.944L931.576 298.985L950.617 309.979L961.61 290.937Z" fill="white"/>
<path fill-rule="evenodd" clip-rule="evenodd" d="M745.463 115.019L734.47 134.06L715.429 123.066L726.422 104.025C730.976 96.1383 728.274 86.053 720.386 81.4994C712.5 76.9459 702.414 79.6482 697.861 87.5353L686.867 106.576L667.826 95.583L678.82 76.542C689.445 58.1389 712.977 51.8336 731.38 62.4586C749.783 73.0836 756.088 96.6155 745.463 115.019Z" fill="white"/>
<path d="M693.443 161.148L712.484 172.141L723.478 153.1L704.437 142.107L693.443 161.148Z" fill="white"/>
<path d="M645.738 133.819L664.779 144.813L675.773 125.771L656.732 114.778L645.738 133.819Z" fill="white"/>
<path fill-rule="evenodd" clip-rule="evenodd" d="M1222.09 390.201L1211.1 409.242L1192.06 398.249L1203.05 379.208C1207.6 371.321 1204.9 361.236 1197.02 356.682C1189.13 352.129 1179.04 354.831 1174.49 362.718L1163.5 381.759L1144.46 370.766L1155.45 351.725C1166.07 333.322 1189.61 327.016 1208.01 337.641C1226.41 348.266 1232.72 371.798 1222.09 390.201Z" fill="white"/>
<path d="M1170.07 436.33L1189.11 447.324L1200.11 428.283L1181.06 417.289L1170.07 436.33Z" fill="white"/>
<path d="M1122.37 409.002L1141.41 419.995L1152.4 400.954L1133.36 389.96L1122.37 409.002Z" fill="white"/>
<path fill-rule="evenodd" clip-rule="evenodd" d="M1433.83 639.953L1444.83 620.912L1463.87 631.905L1452.88 650.946C1448.32 658.833 1451.02 668.918 1458.91 673.472C1466.8 678.026 1476.88 675.323 1481.44 667.436L1492.43 648.395L1511.47 659.388L1500.48 678.429C1489.85 696.833 1466.32 703.138 1447.92 692.513C1429.52 681.888 1423.21 658.356 1433.83 639.953Z" fill="white"/>
<path fill-rule="evenodd" clip-rule="evenodd" d="M480.574 89.5884L491.567 70.5474L510.608 81.5406L499.615 100.582C495.061 108.469 497.764 118.554 505.651 123.108C513.538 127.661 523.623 124.959 528.176 117.072L539.17 98.0306L558.211 109.024L547.217 128.065C536.592 146.468 513.061 152.773 494.657 142.148C476.254 131.523 469.949 107.991 480.574 89.5884Z" fill="white"/>
<path d="M532.595 43.4589L513.554 32.4656L502.56 51.5066L521.601 62.4999L532.595 43.4589Z" fill="white"/>
<path d="M580.3 70.7875L561.259 59.7942L550.265 78.8358L569.306 89.8292L580.3 70.7875Z" fill="white"/>
<path fill-rule="evenodd" clip-rule="evenodd" d="M957.205 364.771L968.198 345.73L987.239 356.723L976.246 375.764C971.692 383.651 974.394 393.737 982.282 398.29C990.168 402.844 1000.25 400.142 1004.81 392.254L1015.8 373.213L1034.84 384.207L1023.85 403.248C1013.22 421.651 989.691 427.956 971.288 417.331C952.885 406.706 946.58 383.174 957.205 364.771Z" fill="white"/>
<path d="M1009.22 318.642L990.184 307.648L979.19 326.689L998.231 337.683L1009.22 318.642Z" fill="white"/>
<path d="M1056.93 345.97L1037.89 334.977L1026.89 354.019L1045.94 365.012L1056.93 345.97Z" fill="white"/>
<path fill-rule="evenodd" clip-rule="evenodd" d="M650.144 59.9868L639.15 79.0278L620.11 68.0346L631.103 48.9936C635.657 41.1066 632.954 31.0212 625.067 26.4676C617.18 21.9142 607.095 24.6165 602.541 32.5036L591.548 51.5446L572.507 40.5512L583.5 21.5102C594.125 3.10717 617.657 -3.19817 636.06 7.42685C654.463 18.0519 660.769 41.5838 650.144 59.9868Z" fill="white"/>
<path d="M598.123 106.116L617.164 117.109L628.157 98.0684L609.116 87.0751L598.123 106.116Z" fill="white"/>
<path d="M550.418 78.7877L569.459 89.781L580.453 70.7394L561.412 59.746L550.418 78.7877Z" fill="white"/>
<path fill-rule="evenodd" clip-rule="evenodd" d="M1126.77 335.168L1115.78 354.209L1096.74 343.216L1107.73 324.175C1112.28 316.288 1109.58 306.203 1101.7 301.649C1093.81 297.096 1083.72 299.798 1079.17 307.685L1068.18 326.726L1049.13 315.733L1060.13 296.692C1070.75 278.289 1094.29 271.983 1112.69 282.608C1131.09 293.234 1137.4 316.765 1126.77 335.168Z" fill="white"/>
<path d="M1074.75 381.298L1093.79 392.291L1104.79 373.25L1085.74 362.257L1074.75 381.298Z" fill="white"/>
<path d="M1027.05 353.97L1046.09 364.963L1057.08 345.922L1038.04 334.928L1027.05 353.97Z" fill="white"/>
<path fill-rule="evenodd" clip-rule="evenodd" d="M575.892 144.621L586.886 125.58L605.927 136.573L594.933 155.614C590.38 163.501 593.082 173.586 600.969 178.14C608.856 182.693 618.941 179.991 623.495 172.104L634.488 153.063L653.529 164.056L642.536 183.097C631.911 201.5 608.379 207.806 589.976 197.181C571.573 186.556 565.267 163.024 575.892 144.621Z" fill="white"/>
<path d="M627.913 98.4914L608.872 87.498L597.879 106.539L616.92 117.532L627.913 98.4914Z" fill="white"/>
<path d="M675.618 125.82L656.577 114.826L645.583 133.868L664.624 144.861L675.618 125.82Z" fill="white"/>
<path fill-rule="evenodd" clip-rule="evenodd" d="M1052.52 419.803L1063.52 400.762L1082.56 411.755L1071.56 430.796C1067.01 438.683 1069.71 448.769 1077.6 453.322C1085.49 457.876 1095.57 455.174 1100.13 447.286L1111.12 428.245L1130.16 439.239L1119.17 458.28C1108.54 476.683 1085.01 482.988 1066.61 472.363C1048.2 461.738 1041.9 438.206 1052.52 419.803Z" fill="white"/>
<path d="M1104.54 373.674L1085.5 362.68L1074.51 381.721L1093.55 392.715L1104.54 373.674Z" fill="white"/>
<path d="M1152.25 401.002L1133.21 390.009L1122.21 409.05L1141.26 420.044L1152.25 401.002Z" fill="white"/>
<path fill-rule="evenodd" clip-rule="evenodd" d="M1508.08 555.318L1497.09 574.359L1478.05 563.366L1489.04 544.325C1493.6 536.438 1490.89 526.353 1483.01 521.799C1475.12 517.246 1465.04 519.948 1460.48 527.835L1449.49 546.876L1430.45 535.883L1441.44 516.842C1452.07 498.439 1475.6 492.133 1494 502.758C1512.4 513.383 1518.71 536.915 1508.08 555.318Z" fill="white"/>
<path d="M1408.36 574.119L1427.4 585.113L1438.39 566.071L1419.35 555.078L1408.36 574.119Z" fill="white"/>
<path fill-rule="evenodd" clip-rule="evenodd" d="M554.825 4.95387L543.832 23.9949L524.791 13.0017L535.785 -6.03934C540.338 -13.9264 537.636 -24.0117 529.749 -28.5653C521.862 -33.1188 511.777 -30.4164 507.223 -22.5294L496.23 -3.48839L477.189 -14.4817L488.182 -33.5227C498.807 -51.9258 522.339 -58.2311 540.742 -47.6061C559.145 -36.9811 565.45 -13.4492 554.825 4.95387Z" fill="white"/>
<path d="M502.803 51.0831L521.844 62.0764L532.837 43.0354L513.796 32.0421L502.803 51.0831Z" fill="white"/>
<path d="M455.1 23.7552L474.141 34.7485L485.134 15.7069L466.093 4.71357L455.1 23.7552Z" fill="white"/>
<path fill-rule="evenodd" clip-rule="evenodd" d="M1031.45 280.136L1020.46 299.177L1001.42 288.184L1012.41 269.143C1016.97 261.256 1014.26 251.171 1006.38 246.617C998.49 242.064 988.404 244.766 983.851 252.653L972.858 271.694L953.817 260.701L964.81 241.66C975.435 223.257 998.967 216.951 1017.37 227.576C1035.77 238.201 1042.08 261.733 1031.45 280.136Z" fill="white"/>
<path d="M979.433 326.266L998.474 337.259L1009.47 318.218L990.426 307.225L979.433 326.266Z" fill="white"/>
<path d="M931.728 298.937L950.769 309.93L961.762 290.889L942.721 279.895L931.728 298.937Z" fill="white"/>
<path fill-rule="evenodd" clip-rule="evenodd" d="M671.213 199.653L682.206 180.612L701.247 191.605L690.254 210.646C685.7 218.533 688.402 228.618 696.289 233.172C704.176 237.725 714.262 235.023 718.815 227.136L729.808 208.095L748.849 219.088L737.856 238.129C727.231 256.532 703.699 262.838 685.296 252.213C666.893 241.588 660.588 218.056 671.213 199.653Z" fill="white"/>
<path d="M723.233 153.523L704.192 142.53L693.199 161.571L712.24 172.564L723.233 153.523Z" fill="white"/>
<path d="M770.938 180.852L751.897 169.859L740.904 188.9L759.945 199.894L770.938 180.852Z" fill="white"/>
<path fill-rule="evenodd" clip-rule="evenodd" d="M1147.84 474.835L1158.83 455.794L1177.88 466.787L1166.88 485.828C1162.33 493.715 1165.03 503.801 1172.92 508.354C1180.81 512.908 1190.89 510.205 1195.44 502.318L1206.44 483.277L1225.48 494.271L1214.49 513.312C1203.86 531.715 1180.33 538.02 1161.93 527.395C1143.52 516.77 1137.22 493.238 1147.84 474.835Z" fill="white"/>
<path d="M1199.86 428.705L1180.82 417.712L1169.83 436.753L1188.87 447.746L1199.86 428.705Z" fill="white"/>
<path d="M1247.57 456.034L1228.53 445.041L1217.53 464.082L1236.57 475.076L1247.57 456.034Z" fill="white"/>
<path fill-rule="evenodd" clip-rule="evenodd" d="M1412.76 500.287L1401.77 519.328L1382.73 508.334L1393.72 489.293C1398.28 481.406 1395.57 471.321 1387.69 466.767C1379.8 462.214 1369.72 464.916 1365.16 472.803L1354.17 491.844L1335.13 480.851L1346.12 461.81C1356.75 443.407 1380.28 437.102 1398.68 447.727C1417.08 458.352 1423.39 481.884 1412.76 500.287Z" fill="white"/>
<path d="M1360.74 546.416L1379.78 557.409L1390.78 538.368L1371.74 527.375L1360.74 546.416Z" fill="white"/>
<path d="M1313.04 519.087L1332.08 530.081L1343.07 511.039L1324.03 500.046L1313.04 519.087Z" fill="white"/>
<path d="M407.487 -3.94864L426.528 7.04468L437.522 -11.9963L418.481 -22.9896L407.487 -3.94864Z" fill="white"/>
<path fill-rule="evenodd" clip-rule="evenodd" d="M936.135 225.104L925.142 244.145L906.101 233.152L917.094 214.111C921.648 206.224 918.945 196.138 911.058 191.585C903.171 187.031 893.086 189.734 888.533 197.621L877.539 216.662L858.498 205.668L869.492 186.627C880.117 168.224 903.648 161.919 922.052 172.544C940.455 183.169 946.76 206.701 936.135 225.104Z" fill="white"/>
<path d="M884.114 271.233L903.155 282.227L914.149 263.186L895.108 252.193L884.114 271.233Z" fill="white"/>
<path d="M836.409 243.905L855.45 254.898L866.444 235.857L847.403 224.863L836.409 243.905Z" fill="white"/>
<path fill-rule="evenodd" clip-rule="evenodd" d="M348.111 979.49L359.104 960.449L378.145 971.443L367.152 990.484C362.598 998.371 365.301 1008.46 373.188 1013.01C381.075 1017.56 391.16 1014.86 395.714 1006.97L406.707 987.933L425.748 998.926L414.755 1017.97C404.13 1036.37 380.598 1042.68 362.195 1032.05C343.792 1021.43 337.486 997.894 348.111 979.49Z" fill="white"/>
<path d="M400.131 933.361L381.09 922.368L370.097 941.409L389.138 952.402L400.131 933.361Z" fill="white"/>
<path d="M447.836 960.689L428.795 949.696L417.801 968.738L436.842 979.731L447.836 960.689Z" fill="white"/>
<path fill-rule="evenodd" clip-rule="evenodd" d="M422.325 894.835L411.332 913.876L392.291 902.883L403.285 883.842C407.838 875.955 405.136 865.87 397.249 861.316C389.362 856.763 379.277 859.465 374.723 867.352L363.73 886.393L344.689 875.4L355.682 856.359C366.307 837.956 389.839 831.65 408.242 842.275C426.645 852.901 432.95 876.432 422.325 894.835Z" fill="white"/>
<path d="M370.305 940.965L389.346 951.958L400.339 932.917L381.298 921.924L370.305 940.965Z" fill="white"/>
<path d="M322.6 913.637L341.641 924.63L352.634 905.588L333.593 894.595L322.6 913.637Z" fill="white"/>
<path fill-rule="evenodd" clip-rule="evenodd" d="M-33.2004 759.341L-22.207 740.3L-3.16624 751.293L-14.1596 770.334C-18.7132 778.221 -16.0108 788.306 -8.12375 792.86C-0.236904 797.413 9.84844 794.711 14.402 786.824L25.3954 767.783L44.4364 778.776L33.443 797.817C22.818 816.22 -0.713881 822.526 -19.1169 811.901C-37.52 801.276 -43.8254 777.744 -33.2004 759.341Z" fill="white"/>
<path d="M18.8213 713.211L-0.219727 702.218L-11.213 721.259L7.82794 732.252L18.8213 713.211Z" fill="white"/>
<path d="M66.5254 740.54L47.4844 729.547L36.4907 748.588L55.5317 759.582L66.5254 740.54Z" fill="white"/>
<path fill-rule="evenodd" clip-rule="evenodd" d="M443.43 1034.52L454.424 1015.48L473.465 1026.48L462.471 1045.52C457.918 1053.4 460.62 1063.49 468.507 1068.04C476.394 1072.6 486.479 1069.89 491.033 1062.01L502.026 1042.97L521.067 1053.96L510.074 1073C499.449 1091.4 475.917 1097.71 457.514 1087.08C439.111 1076.46 432.805 1052.93 443.43 1034.52Z" fill="white"/>
<path d="M495.452 988.393L476.411 977.4L465.418 996.441L484.459 1007.43L495.452 988.393Z" fill="white"/>
<path d="M543.155 1015.72L524.114 1004.73L513.121 1023.77L532.162 1034.76L543.155 1015.72Z" fill="white"/>
<path fill-rule="evenodd" clip-rule="evenodd" d="M327.006 839.803L316.013 858.844L296.972 847.851L307.965 828.81C312.519 820.923 309.816 810.838 301.929 806.284C294.043 801.731 283.957 804.433 279.404 812.32L268.41 831.361L249.369 820.368L260.363 801.327C270.988 782.924 294.52 776.618 312.923 787.244C331.326 797.869 337.631 821.4 327.006 839.803Z" fill="white"/>
<path d="M274.984 885.933L294.025 896.927L305.019 877.886L285.978 866.892L274.984 885.933Z" fill="white"/>
<path d="M227.28 858.605L246.321 869.598L257.315 850.557L238.274 839.563L227.28 858.605Z" fill="white"/>
<path fill-rule="evenodd" clip-rule="evenodd" d="M62.119 814.373L73.1123 795.332L92.1531 806.325L81.1598 825.366C76.6062 833.253 79.3085 843.339 87.1956 847.892C95.0824 852.446 105.168 849.743 109.721 841.856L120.715 822.815L139.756 833.809L128.762 852.85C118.137 871.253 94.6055 877.558 76.2024 866.933C57.7993 856.308 51.494 832.776 62.119 814.373Z" fill="white"/>
<path d="M114.139 768.243L95.0977 757.25L84.1043 776.291L103.145 787.284L114.139 768.243Z" fill="white"/>
<path d="M161.844 795.572L142.803 784.579L131.809 803.62L150.85 814.614L161.844 795.572Z" fill="white"/>
<path fill-rule="evenodd" clip-rule="evenodd" d="M231.688 784.771L220.694 803.812L201.654 792.819L212.647 773.778C217.2 765.891 214.498 755.806 206.611 751.252C198.724 746.699 188.639 749.401 184.085 757.288L173.092 776.329L154.051 765.336L165.044 746.295C175.669 727.892 199.201 721.586 217.604 732.212C236.007 742.837 242.313 766.368 231.688 784.771Z" fill="white"/>
<path d="M179.667 830.901L198.708 841.894L209.701 822.853L190.66 811.86L179.667 830.901Z" fill="white"/>
<path d="M131.962 803.572L151.003 814.566L161.997 795.524L142.956 784.531L131.962 803.572Z" fill="white"/>
<path fill-rule="evenodd" clip-rule="evenodd" d="M708.318 1059.95L697.324 1078.99L678.283 1068L689.277 1048.96C693.83 1041.07 691.128 1030.99 683.241 1026.43C675.354 1021.88 665.269 1024.58 660.715 1032.47L649.722 1051.51L630.681 1040.52L641.674 1021.48C652.299 1003.07 675.831 996.769 694.234 1007.39C712.637 1018.02 718.943 1041.55 708.318 1059.95Z" fill="white"/>
<path fill-rule="evenodd" clip-rule="evenodd" d="M157.437 869.405L168.431 850.364L187.471 861.357L176.478 880.398C171.925 888.285 174.627 898.371 182.514 902.924C190.401 907.478 200.486 904.775 205.04 896.888L216.033 877.847L235.074 888.841L224.081 907.882C213.456 926.285 189.924 932.59 171.521 921.965C153.118 911.34 146.812 887.808 157.437 869.405Z" fill="white"/>
<path d="M209.458 823.276L190.417 812.282L179.424 831.323L198.465 842.317L209.458 823.276Z" fill="white"/>
<path d="M257.163 850.604L238.122 839.611L227.128 858.652L246.169 869.646L257.163 850.604Z" fill="white"/>
<path fill-rule="evenodd" clip-rule="evenodd" d="M136.369 729.739L125.376 748.78L106.335 737.787L117.329 718.746C121.882 710.859 119.18 700.773 111.293 696.22C103.406 691.666 93.3205 694.368 88.7669 702.256L77.7736 721.297L58.7326 710.303L69.7259 691.262C80.3509 672.859 103.883 666.554 122.286 677.179C140.689 687.804 146.994 711.336 136.369 729.739Z" fill="white"/>
<path d="M84.3487 775.868L103.39 786.862L114.383 767.821L95.342 756.827L84.3487 775.868Z" fill="white"/>
<path d="M36.6436 748.54L55.6846 759.533L66.6783 740.491L47.6373 729.498L36.6436 748.54Z" fill="white"/>
<path fill-rule="evenodd" clip-rule="evenodd" d="M613 1004.92L602.007 1023.96L582.966 1012.97L593.959 993.927C598.513 986.04 595.811 975.955 587.924 971.401C580.037 966.848 569.951 969.55 565.398 977.437L554.404 996.478L535.363 985.485L546.357 966.444C556.982 948.041 580.514 941.736 598.917 952.361C617.32 962.986 623.625 986.518 613 1004.92Z" fill="white"/>
<path d="M513.274 1023.72L532.315 1034.72L543.309 1015.67L524.268 1004.68L513.274 1023.72Z" fill="white"/>
<path fill-rule="evenodd" clip-rule="evenodd" d="M252.757 924.437L263.75 905.396L282.791 916.389L271.797 935.43C267.244 943.317 269.946 953.403 277.833 957.956C285.72 962.51 295.805 959.807 300.359 951.92L311.352 932.879L330.393 943.873L319.4 962.914C308.775 981.317 285.243 987.622 266.84 976.997C248.437 966.372 242.132 942.84 252.757 924.437Z" fill="white"/>
<path d="M304.777 878.308L285.736 867.314L274.743 886.355L293.784 897.349L304.777 878.308Z" fill="white"/>
<path d="M352.482 905.636L333.441 894.643L322.448 913.684L341.489 924.678L352.482 905.636Z" fill="white"/>
<path fill-rule="evenodd" clip-rule="evenodd" d="M41.049 674.707L30.0557 693.748L11.0149 682.754L22.0082 663.713C26.5618 655.826 23.8594 645.741 15.9724 641.187C8.08554 636.634 -1.9998 639.336 -6.5534 647.223L-17.5467 666.264L-36.5877 655.271L-25.5944 636.23C-14.9694 617.827 8.56252 611.522 26.9656 622.147C45.3687 632.772 51.674 656.303 41.049 674.707Z" fill="white"/>
<path d="M-10.9716 720.836L8.06934 731.829L19.0627 712.788L0.021674 701.795L-10.9716 720.836Z" fill="white"/>
<path fill-rule="evenodd" clip-rule="evenodd" d="M517.68 949.888L506.687 968.929L487.646 957.936L498.639 938.895C503.193 931.008 500.49 920.923 492.603 916.369C484.716 911.816 474.631 914.518 470.077 922.405L459.084 941.446L440.043 930.453L451.036 911.412C461.661 893.009 485.193 886.703 503.596 897.328C522 907.953 528.305 931.485 517.68 949.888Z" fill="white"/>
<path d="M465.659 996.018L484.7 1007.01L495.694 987.97L476.653 976.977L465.659 996.018Z" fill="white"/>
<path d="M417.954 968.69L436.995 979.683L447.989 960.641L428.948 949.648L417.954 968.69Z" fill="white"/>
</svg>
