<svg width="24" height="24" viewBox="0 0 24 24" fill="none" xmlns="http://www.w3.org/2000/svg">
<path d="M6.75 14.025H13.1C13.3 14.025 13.4708 13.9542 13.6125 13.8125C13.7542 13.6708 13.825 13.4917 13.825 13.275C13.825 13.0583 13.7542 12.8792 13.6125 12.7375C13.4708 12.5958 13.2917 12.525 13.075 12.525H6.725C6.525 12.525 6.35417 12.5958 6.2125 12.7375C6.07083 12.8792 6 13.0583 6 13.275C6 13.4917 6.07083 13.6708 6.2125 13.8125C6.35417 13.9542 6.53333 14.025 6.75 14.025ZM6.75 10.775H17.275C17.475 10.775 17.6458 10.7042 17.7875 10.5625C17.9292 10.4208 18 10.2417 18 10.025C18 9.80833 17.9292 9.62917 17.7875 9.4875C17.6458 9.34583 17.4667 9.275 17.25 9.275H6.725C6.525 9.275 6.35417 9.34583 6.2125 9.4875C6.07083 9.62917 6 9.80833 6 10.025C6 10.2417 6.07083 10.4208 6.2125 10.5625C6.35417 10.7042 6.53333 10.775 6.75 10.775ZM6.75 7.525H17.275C17.475 7.525 17.6458 7.45417 17.7875 7.3125C17.9292 7.17083 18 6.99167 18 6.775C18 6.55833 17.9292 6.37917 17.7875 6.2375C17.6458 6.09583 17.4667 6.025 17.25 6.025H6.725C6.525 6.025 6.35417 6.09583 6.2125 6.2375C6.07083 6.37917 6 6.55833 6 6.775C6 6.99167 6.07083 7.17083 6.2125 7.3125C6.35417 7.45417 6.53333 7.525 6.75 7.525ZM2 20.2V3.5C2 3.11667 2.15 2.77083 2.45 2.4625C2.75 2.15417 3.1 2 3.5 2H20.5C20.8833 2 21.2292 2.15417 21.5375 2.4625C21.8458 2.77083 22 3.11667 22 3.5V16.5C22 16.8833 21.8458 17.2292 21.5375 17.5375C21.2292 17.8458 20.8833 18 20.5 18H6L3.275 20.725C3.04167 20.9583 2.77083 21.0125 2.4625 20.8875C2.15417 20.7625 2 20.5333 2 20.2ZM3.5 18.375L5.375 16.5H20.5V3.5H3.5V18.375ZM3.5 3.5V18.375V3.5Z" fill="white"/>
</svg>
