<svg width="24" height="24" viewBox="0 0 24 24" fill="none" xmlns="http://www.w3.org/2000/svg">
<path d="M19 14.0001C18.7833 14.0001 18.6042 13.9293 18.4625 13.7876C18.3208 13.6459 18.25 13.4668 18.25 13.2501V10.7501H15.75C15.5333 10.7501 15.3542 10.6793 15.2125 10.5376C15.0708 10.3959 15 10.2168 15 10.0001C15 9.78343 15.0708 9.60426 15.2125 9.4626C15.3542 9.32093 15.5333 9.2501 15.75 9.2501H18.25V6.7501C18.25 6.53343 18.3208 6.35426 18.4625 6.2126C18.6042 6.07093 18.7833 6.0001 19 6.0001C19.2167 6.0001 19.3958 6.07093 19.5375 6.2126C19.6792 6.35426 19.75 6.53343 19.75 6.7501V9.2501H22.25C22.4667 9.2501 22.6458 9.32093 22.7875 9.4626C22.9292 9.60426 23 9.78343 23 10.0001C23 10.2168 22.9292 10.3959 22.7875 10.5376C22.6458 10.6793 22.4667 10.7501 22.25 10.7501H19.75V13.2501C19.75 13.4668 19.6792 13.6459 19.5375 13.7876C19.3958 13.9293 19.2167 14.0001 19 14.0001ZM9 11.9751C7.9 11.9751 7 11.6251 6.3 10.9251C5.6 10.2251 5.25 9.3251 5.25 8.2251C5.25 7.1251 5.6 6.2251 6.3 5.5251C7 4.8251 7.9 4.4751 9 4.4751C10.1 4.4751 11 4.8251 11.7 5.5251C12.4 6.2251 12.75 7.1251 12.75 8.2251C12.75 9.3251 12.4 10.2251 11.7 10.9251C11 11.6251 10.1 11.9751 9 11.9751ZM1.75 20.0001C1.53333 20.0001 1.35417 19.9293 1.2125 19.7876C1.07083 19.6459 1 19.4668 1 19.2501V17.6501C1 17.0668 1.15 16.5376 1.45 16.0626C1.75 15.5876 2.16667 15.2334 2.7 15.0001C3.95 14.4501 5.0625 14.0626 6.0375 13.8376C7.0125 13.6126 8 13.5001 9 13.5001C10 13.5001 10.9875 13.6126 11.9625 13.8376C12.9375 14.0626 14.0417 14.4501 15.275 15.0001C15.8083 15.2501 16.2292 15.6084 16.5375 16.0751C16.8458 16.5418 17 17.0668 17 17.6501V19.2501C17 19.4668 16.9292 19.6459 16.7875 19.7876C16.6458 19.9293 16.4667 20.0001 16.25 20.0001H1.75ZM2.5 18.5001H15.5V17.6501C15.5 17.3834 15.4333 17.1293 15.3 16.8876C15.1667 16.6459 14.9583 16.4668 14.675 16.3501C13.5083 15.7834 12.5125 15.4168 11.6875 15.2501C10.8625 15.0834 9.96667 15.0001 9 15.0001C8.03333 15.0001 7.1375 15.0876 6.3125 15.2626C5.4875 15.4376 4.48333 15.8001 3.3 16.3501C3.05 16.4668 2.85417 16.6459 2.7125 16.8876C2.57083 17.1293 2.5 17.3834 2.5 17.6501V18.5001ZM9 10.4751C9.65 10.4751 10.1875 10.2626 10.6125 9.8376C11.0375 9.4126 11.25 8.8751 11.25 8.2251C11.25 7.5751 11.0375 7.0376 10.6125 6.6126C10.1875 6.1876 9.65 5.9751 9 5.9751C8.35 5.9751 7.8125 6.1876 7.3875 6.6126C6.9625 7.0376 6.75 7.5751 6.75 8.2251C6.75 8.8751 6.9625 9.4126 7.3875 9.8376C7.8125 10.2626 8.35 10.4751 9 10.4751Z" fill="white"/>
</svg>
