<svg width="10" height="10" viewBox="0 0 10 10" fill="none" xmlns="http://www.w3.org/2000/svg">
<path d="M5.00039 5.6999L1.50039 9.1999C1.40039 9.2999 1.28372 9.3499 1.15039 9.3499C1.01706 9.3499 0.900391 9.2999 0.800391 9.1999C0.700391 9.0999 0.650391 8.98323 0.650391 8.8499C0.650391 8.71657 0.700391 8.5999 0.800391 8.4999L4.30039 4.9999L0.800391 1.4999C0.700391 1.3999 0.650391 1.28324 0.650391 1.1499C0.650391 1.01657 0.700391 0.899902 0.800391 0.799902C0.900391 0.699902 1.01706 0.649902 1.15039 0.649902C1.28372 0.649902 1.40039 0.699902 1.50039 0.799902L5.00039 4.2999L8.50039 0.799902C8.60039 0.699902 8.71706 0.649902 8.85039 0.649902C8.98372 0.649902 9.10039 0.699902 9.20039 0.799902C9.30039 0.899902 9.35039 1.01657 9.35039 1.1499C9.35039 1.28324 9.30039 1.3999 9.20039 1.4999L5.70039 4.9999L9.20039 8.4999C9.30039 8.5999 9.35039 8.71657 9.35039 8.8499C9.35039 8.98323 9.30039 9.0999 9.20039 9.1999C9.10039 9.2999 8.98372 9.3499 8.85039 9.3499C8.71706 9.3499 8.60039 9.2999 8.50039 9.1999L5.00039 5.6999Z" fill="black"/>
</svg>
