<svg width="172" height="120" viewBox="0 0 172 120" fill="none" xmlns="http://www.w3.org/2000/svg">
<path d="M172 76.9291C172 72.6883 170.316 68.621 167.319 65.6209L125.562 23.8233C119.313 17.5674 109.173 17.5675 102.924 23.8235L75.7399 51.0352C69.4903 57.2912 59.3509 57.2914 53.1012 51.0355L50.8813 48.8134C44.6316 42.5577 34.4925 42.5577 28.2428 48.8134L4.68076 72.3985C1.68356 75.3986 0 79.4659 0 83.7067V103.86C0 112.696 7.16344 119.86 16 119.86H156C164.837 119.86 172 112.696 172 103.86V76.9291Z" fill="black"/>
<path d="M65.3412 31.7656C74.1044 31.7656 81.2084 24.6546 81.2084 15.8828C81.2084 7.11096 74.1044 0 65.3412 0C56.5779 0 49.4739 7.11096 49.4739 15.8828C49.4739 24.6546 56.5779 31.7656 65.3412 31.7656Z" fill="black"/>
</svg>
