<svg width="559" height="632" viewBox="0 0 559 632" fill="none" xmlns="http://www.w3.org/2000/svg">
<g filter="url(#filter0_d_188_3714)">
<rect x="58.8274" y="131.827" width="476.173" height="476.173" rx="32" fill="white"/>
<rect x="60.8085" y="133.808" width="472.21" height="472.21" rx="30.0189" stroke="black" stroke-width="3.96217"/>
</g>
<path fill-rule="evenodd" clip-rule="evenodd" d="M12.8836 332.955C19.8171 333.636 26.7506 334.317 33.6841 334.998C66.8905 337.538 100.084 342.843 133.036 346.026C133.856 344.69 135.462 344.91 136.437 345.839C139.725 345.551 143.411 343.034 146.389 345.652C146.486 345.638 146.583 345.622 146.68 345.613C151.984 335.422 155.649 324.553 159.207 313.67C161.478 306.978 164.533 300.501 170.179 296.008C179.815 289.312 201.892 275.733 213.206 276.304C213.394 274.276 214.338 272.185 215.889 270.835C212.471 265.002 226.136 261.196 227.1 261.873C226.482 242.385 235.638 225.461 255.828 221.581C273.915 217.808 299.641 217.174 309.369 236.098C310.438 235.977 321.369 235.92 322.426 236.039C324.07 233.954 342.128 253.711 334.727 260.589C400.895 289.893 438.519 286.396 456.833 368.778C459.309 376.517 459.489 384.985 462.104 392.552C471.405 414.296 478.95 437.45 480.827 461.111C485.362 462.274 485.884 470.279 480.631 471.437C478.625 471.879 476.947 472.484 475.484 473.631C476.628 493.02 471.943 537.312 468.992 537.176C462.974 556.349 436.132 561.761 417.128 555.023C420.404 561.193 417.128 565.073 417.128 568.369C348.749 570.959 273.982 569.468 205.622 573.02C196.877 572.895 187.68 575.17 179.055 573.861C173.795 572.598 173.786 564.318 179.121 563.295L155.808 558.225C156.329 558.028 146.198 551.282 138.542 538.676C131.415 524.574 136.265 507.551 133.036 492.211C107.814 490.146 82.1748 489.263 57.2288 484.987C53.8275 495.175 39.1035 482.99 34.4234 478.089C34.4292 478.081 34.435 478.074 34.4409 478.066C32.1759 477.446 30.3595 475.32 30.2988 472.804C28.7104 470.532 28.3769 467.329 29.9002 465.134C22.9186 424.802 12.2751 383.622 8.42801 342.91C7.06802 342.609 5.78729 342.012 4.70145 341.092L4.78946 341.004C2.94974 338.951 2.59201 335.407 5.65897 333.662C8.13297 332.253 10.1987 332.69 12.8836 332.955Z" fill="white"/>
<path fill-rule="evenodd" clip-rule="evenodd" d="M308.108 231.703C306.048 226.519 299.084 228.534 299.86 233.98C300.325 237.241 302.109 240.686 303.712 243.545C305.017 245.872 306.506 248.143 308.524 249.888C304.931 253.244 301.202 256.477 297.377 259.548C293.204 262.898 288.816 265.985 284.281 268.823C280.304 271.312 276.147 273.517 272.398 276.357C268.912 278.997 265.736 282.173 264.12 286.318C262.399 290.732 263.147 295.29 264.415 299.701L264.56 300.2C265.855 304.57 268.097 309.838 264.989 313.956C263.406 316.052 261.106 317.537 259.119 319.212C257.354 320.702 255.696 322.321 254.177 324.061C250.863 327.854 248.167 332.121 246.466 336.877L246.314 337.309C244.856 341.518 243.791 346.675 245.761 350.808C246.326 351.992 248.149 351.607 248.465 350.454C249.181 347.841 249.144 345.104 249.744 342.453C250.368 339.697 251.408 337.081 252.765 334.606C255.39 329.817 258.947 325.727 263.148 322.268L264.406 321.244C267.683 318.552 270.695 315.695 271.36 311.238C272.072 306.47 270.164 301.927 268.937 297.414C268.082 294.269 267.802 291.254 268.726 288.412C269.855 290.257 271.396 292.008 272.614 293.57C275.04 296.681 277.489 299.774 279.932 302.872C282.437 306.05 284.879 309.277 287.206 312.588C288.246 314.069 289.276 315.559 290.302 317.05C291.073 318.171 292.149 319.291 292.99 320.435C292.786 321.046 292.801 321.751 293.172 322.252C297.632 328.285 303.977 315.697 305.631 312.517C309.001 306.04 311.509 299.16 314.89 292.685C318.393 285.973 322.383 279.439 326.829 273.311C329.518 269.605 332.533 266.123 334.993 262.299C340.789 267.56 348.416 271.088 355.422 274.286C363.119 277.8 371.116 280.671 379.008 283.719L381.339 284.626C394.937 289.939 408.867 295.776 420.17 305.213C433.451 316.302 441.309 331.759 447.158 347.765C453.892 366.191 459.463 385.114 464.656 404.026C467.313 413.702 469.835 423.422 472.205 433.173C474.294 441.764 476.026 450.44 478.444 458.942C473.539 458.768 467.946 460.669 463.759 461.218C444.677 463.718 425.852 467.705 407.837 474.606C405.611 475.459 404.967 477.684 405.452 479.487C404.169 479.124 402.886 478.757 401.603 478.396C403.009 476.239 402.338 472.383 402.227 469.993L402.221 469.828C402.107 466.643 401.762 463.454 401.538 460.274C401.112 454.213 400.557 448.196 399.819 442.169L399.631 440.662C398.795 434.106 398.176 427.511 397.264 420.965L397.156 420.216C397.594 418.541 398.103 416.887 398.638 415.24C400.062 410.853 402.073 406.723 403.835 402.474C404.043 401.974 403.331 401.687 402.998 401.987C400.014 404.674 397.644 408.084 395.739 411.65C395.706 411.482 395.677 411.313 395.643 411.145L395.425 410.074C394.89 407.463 394.238 404.715 392.638 402.597C392.467 402.372 392.13 402.325 391.969 402.597C390.438 405.192 390.266 408.477 390.031 411.429C389.764 414.769 389.731 418.151 389.778 421.5C389.869 428.044 390.33 434.607 390.697 441.141C391.057 447.562 391.765 453.901 392.676 460.259L392.849 461.451C393.295 464.477 393.66 467.541 394.247 470.546L394.413 471.365C394.727 472.855 394.921 474.956 395.546 476.702C379.456 472.209 363.34 467.818 347.195 463.505C335.525 460.387 323.844 457.316 312.167 454.225C311.551 453.113 310.784 452.075 309.826 451.147C306.671 448.088 302.491 446.724 298.656 449.078C298.345 449.27 298.318 449.759 298.656 449.944C299.391 450.346 300.127 450.759 300.85 451.188L293.839 449.287C288.598 447.865 283.295 446.088 277.931 445.097C268.051 440.216 257.425 436.683 247.018 433.191L245.791 432.776C240.462 430.957 234.95 428.921 229.445 427.913C225.414 427.175 220.683 428.065 219.062 432.199C217.01 433.553 215.079 435.144 213.216 436.709C211.869 437.84 210.578 439.042 209.265 440.212L209.023 440.425C207.95 441.357 207.1 441.982 206.836 443.466C206.7 444.232 207.187 445.269 208.131 445.167C211.021 444.858 213.37 441.504 215.33 439.502C216.844 437.954 218.37 436.354 219.752 434.653C220.558 435.092 221.662 435.013 222.174 434.041C224.833 429.001 232.117 432.493 236.147 433.689L241.921 435.399C244.807 436.256 247.692 437.117 250.573 437.993C258.489 440.399 266.367 443.093 274.355 445.303C273.641 446.09 273.739 447.489 275.097 448.021C281.35 450.478 288.21 451.748 294.706 453.433C298.808 454.498 302.907 455.57 307.004 456.647C307.707 457.787 308.213 459.076 308.425 460.577C309.207 466.094 307.699 472.461 306.23 477.797L306.009 478.593C304.801 482.884 303.024 488.144 299.327 490.853C298.424 491.514 297.275 491.973 296.116 492.077C288.878 488.348 281.64 484.618 274.398 480.895C273.057 480.206 271.817 481.139 271.516 482.25C268.962 481.83 266.415 481.169 264.094 480.381C260.195 479.055 257.151 476.527 253.495 474.778C246.423 471.396 239.2 475.55 232.868 478.709L231.408 479.427C228.568 480.807 222.661 483.457 221.298 479.684C219.98 476.034 224.147 472.134 226.838 470.491C230.045 468.532 233.78 467.484 237.405 466.611C239.475 466.113 241.571 465.706 243.678 465.409C246.069 465.072 248.539 465.122 250.841 464.346C251.985 463.961 252.161 462.142 250.841 461.842C247.297 461.034 243.068 461.915 239.37 462.815L237.437 463.292C233.711 464.207 229.95 465.356 226.556 467.182C224.089 468.51 221.484 470.527 219.783 472.996C218.305 471.622 216.466 471.669 214.551 472.178L213.511 472.468C211.794 472.944 210.402 473.272 208.732 472.942C208.508 471.725 208.282 470.508 208.04 469.291C205.659 457.326 203.048 445.406 200.167 433.55C195.198 413.1 189.448 392.875 182.966 372.857L182.315 370.856C180.82 366.277 179.617 361.288 177.207 357.082C174.927 353.105 171.275 350.814 166.935 349.6C162.011 348.224 156.836 347.503 151.813 346.573C150.692 346.366 149.568 346.169 148.447 345.966C149.395 344.252 150.102 342.307 150.739 340.815L150.851 340.556C152.22 337.431 153.45 334.25 154.638 331.051L155.526 328.647C157.671 322.857 159.884 317.162 162.899 311.746C166.073 306.047 170.283 301.388 175.532 297.531C186.232 289.668 199.564 286.314 209.943 277.91C210.368 277.566 210.938 276.004 210.506 276.222C209.943 275.096 194.183 281.287 187.095 285.331L185.657 285.899C179.896 288.185 174.044 290.675 169.058 294.377C163.498 298.505 159.119 303.631 155.828 309.728C152.585 315.737 150.51 322.463 148.221 328.882L147.609 330.592C146.686 333.157 145.733 335.714 144.64 338.21C143.773 340.191 142.155 342.453 141.419 344.716C139.407 344.367 137.394 344.016 135.38 343.679C91.7441 336.386 47.6209 332.1 3.39957 330.846C1.66953 330.797 0.774658 332.45 1.02957 333.961C5.27335 359.084 9.04468 384.293 13.1826 409.435C14.9889 420.408 16.8311 431.373 18.7166 442.332C19.6717 447.885 20.7758 453.416 21.6804 458.976C22.4107 463.467 22.9409 467.993 24.1946 472.38C25.3192 476.313 27.0449 480.105 29.8791 483.106C32.9342 486.341 37.1984 487.907 41.4907 488.646C52.3871 490.524 63.5637 491.29 74.5485 492.541L133.033 499.203C132.178 506.98 132.114 514.636 132.506 522.504L132.73 526.799C132.912 530.253 133.131 533.713 133.626 537.132C134.248 541.421 136.208 545.053 139.094 548.256C141.745 551.198 144.965 553.709 148.098 556.114C151.349 558.612 154.708 561.022 158.531 562.567L159.027 562.764C162.381 564.075 168.672 566.105 173.256 565.363C172.657 568.369 171.498 571.6 172.526 574.574C173.002 575.955 174.806 576.644 175.911 575.469C178.101 573.14 178.272 570.064 178.79 567.026C179.33 563.864 179.795 560.691 180.208 557.511C181.007 551.361 181.629 545.155 181.819 538.953C182.014 532.584 181.939 526.206 181.596 519.843C181.42 516.576 181.202 513.311 180.787 510.065C180.611 508.68 180.43 507.295 180.224 505.914C180.148 505.41 180.065 504.909 179.975 504.409L185.224 505.002C193.273 505.901 201.326 506.714 209.432 506.84C210.392 506.854 211.13 506.417 211.613 505.78C212.127 506.618 213.023 507.218 214.305 507.213C225.625 507.171 236.166 503.465 246.462 499.098C251.652 496.896 256.761 494.512 261.958 492.329C266.809 490.291 271.996 488.837 276.73 486.542L289.17 493.074C289.261 493.395 289.378 493.699 289.503 493.953C290.312 495.609 291.909 496.507 293.54 497.183C295.106 497.833 296.727 498.035 298.307 497.871C307.741 502.821 317.178 507.766 326.621 512.699L336.066 517.628C354.884 527.438 373.628 537.408 392.565 546.987L393.959 547.689C400.5 550.973 407.524 554.301 414.783 556.785C414.912 558.624 414.83 560.413 414.676 562.36L414.639 562.784C414.423 565.085 413.959 567.968 415.802 569.606C416.761 570.457 418.474 570.461 419.126 569.176C420.31 566.847 419.247 563.176 418.872 560.646C418.739 559.746 418.577 558.821 418.337 557.923C426.659 560.404 435.232 561.606 443.7 560.213C451.945 558.859 458.331 553.659 463.479 547.298C468.912 540.587 472.772 532.764 474.844 524.379C477.201 514.838 477.355 504.984 477.3 495.211C477.241 484.804 476.856 474.345 475.592 464.008C476.977 463.682 478.514 463.4 479.913 463.497C480.607 464.608 481.952 465.075 483.167 464.931C485.81 467.849 479.106 470.831 476.964 471.578C476.22 471.838 476.3 473.047 477.158 473.011L477.698 472.985C481.009 472.809 484.428 472.243 486.375 469.163C487.934 466.694 487.466 463.77 485.607 461.757C484.379 450.133 481.443 438.814 478.711 427.475C476.029 416.345 473.048 405.287 469.887 394.285L468.47 389.36C463.494 372.109 458.293 354.718 451.429 338.152C448.001 329.88 444.052 321.76 438.7 314.548C433.711 307.824 427.821 302.071 421.05 297.158C408.428 287.996 393.617 282.461 379.065 277.187L378.414 276.951C370.872 274.22 363.35 271.457 355.894 268.498C349.301 265.881 342.984 262.563 336.422 259.907C336.635 259.52 336.841 259.128 337.039 258.732L337.161 258.834C337.181 258.85 337.203 258.866 337.225 258.881C337.885 259.339 338.856 259.114 339.4 258.6C340.936 257.15 340.416 255.54 339.391 254.035L339.257 253.844C338.004 252.085 336.885 250.227 335.728 248.405L335.004 247.265C333.061 244.221 331.02 241.157 328.431 238.641C327.231 237.476 325.918 236.604 324.527 235.954C324.646 235.702 323.603 235.187 323.308 235.446C318.9 233.831 313.829 234.17 309.024 234.615M135.862 499.524L141.99 500.222C148.732 500.99 155.476 501.732 162.221 502.468L176.871 504.062C176.909 504.898 177.01 505.715 177.029 506.347C177.124 509.602 177.196 512.859 177.263 516.116C177.399 522.643 177.25 529.177 176.821 535.692C176.405 542.005 175.857 548.319 175.005 554.589L174.831 555.842L174.73 556.501C174.035 556.569 173.352 556.899 172.785 557.578C171.546 559.059 167.059 557.62 165.306 556.995C162.424 555.969 159.711 554.234 157.207 552.495C154.761 550.797 152.559 548.816 150.443 546.73L148.712 545.016C146.99 543.303 145.266 541.477 144.211 539.322C142.78 536.4 142.595 532.812 142.175 529.629C141.659 525.714 141.043 521.799 140.393 517.903M313.749 458.427L314.385 458.594C337.474 464.736 360.528 471.06 383.688 476.931C395.149 479.837 406.664 482.531 418.14 485.381L419.997 485.846C429.05 488.137 438.212 490.894 445.144 497.467C445.4 497.71 445.771 497.338 445.53 497.081C438.059 489.118 427.433 485.747 417.231 482.825C415.345 482.285 413.456 481.758 411.57 481.221C425.445 476.268 439.54 471.96 453.959 468.887C457.672 468.096 461.429 467.515 465.139 466.721C467.726 466.166 470.253 465.365 472.813 464.7L474.827 464.193L474.854 470.565C474.887 479.59 474.871 488.607 474.411 497.631L474.324 499.302C473.788 509.344 472.95 519.595 469.391 529.063C466.498 536.757 461.888 544.006 455.859 549.61C452.808 552.446 449.528 554.653 445.474 555.743C441.709 556.755 437.765 556.873 433.895 556.603C415.333 555.307 398.809 545.212 382.685 536.854C356.31 523.183 329.933 509.518 303.533 495.9C304.246 495.411 304.918 494.848 305.53 494.216C309.07 490.555 310.937 485.545 312.164 480.692C313.47 475.526 314.25 469.99 314.341 464.657M280.157 501.177C279.924 501.052 279.654 501.209 279.643 501.472C279.562 503.491 280.676 505.482 281.509 507.301L281.597 507.495C282.608 509.747 283.716 511.97 284.861 514.157C287.15 518.528 289.53 522.852 292.013 527.115C297.006 535.69 302.555 543.905 309.114 551.372C310.596 553.058 313.032 550.896 312.081 549.079C307.498 540.325 302.154 532.058 296.654 523.864C293.9 519.761 291.149 515.654 288.368 511.57C287.208 509.866 286.033 508.167 284.826 506.495L284.098 505.495M6.32355 335.861C29.493 336.561 52.6352 338.074 75.6944 340.445C97.1395 342.649 118.506 345.584 139.752 349.243C144.19 350.007 148.622 350.802 153.049 351.629L155.704 352.129C160.131 352.969 165.54 353.315 169.481 355.683C173.637 358.179 174.76 363.396 176.143 367.698C177.769 372.758 179.353 377.832 180.895 382.918C187.017 403.113 192.609 423.483 197.598 443.987C200.074 454.165 202.271 464.4 204.586 474.614C206.643 483.69 208.913 492.663 211.284 501.648C210.991 501.421 210.633 501.248 210.2 501.155C198.427 498.648 186.408 497.557 174.459 496.172L173.302 496.037C160.94 494.581 148.579 493.137 136.21 491.744L54.3157 482.524C49.4858 481.981 44.3117 481.907 39.6115 480.61C31.6203 478.402 29.7472 469.458 28.4064 462.335L28.366 462.12C24.3237 440.598 21.1059 418.889 17.336 397.313M209.378 476.63C212.557 476.42 216.909 473.504 219.321 473.713C218.055 475.841 217.483 478.267 218.213 480.858C220.244 488.068 229.43 484.337 233.854 482.135C237.482 480.328 240.984 478.117 245.001 477.271C249.55 476.313 252.633 478.124 256.476 480.212C259.633 481.927 263.072 483.158 266.607 483.795C268.487 484.135 270.273 484.171 272.056 484.039C272.163 484.126 272.284 484.207 272.422 484.28L273.365 484.775C269.101 484.97 264.758 486.288 260.79 487.494C256.679 488.743 252.642 490.249 248.627 491.789L244.677 493.309C234.934 497.044 224.849 500.591 214.305 500.56C213.547 500.558 212.926 500.768 212.437 501.111M227.167 454.038C224.026 453.653 221.126 454.066 218.617 456.113C215.59 458.581 213.556 462.675 209.204 462.944C207.936 463.022 207.641 464.808 208.902 465.182C212.141 466.142 214.764 464.387 216.971 462.109L218.454 460.557C220.635 458.297 222.647 456.549 226.347 456.684C230.31 456.829 234.28 457.746 238.218 458.212C242.678 458.74 247.137 459.19 251.612 459.578C251.82 459.596 251.855 459.269 251.66 459.22L246.649 457.972M230.199 441.182L229.681 441.13C225.12 440.687 220.948 440.669 216.875 443.126L216.093 443.599C212.421 445.834 208.423 448.467 206.126 452.085C205.75 452.678 206.372 453.374 207 453.224C211.415 452.163 214.642 448.92 218.354 446.494C222.52 443.771 226.823 444.22 231.573 444.643C236.173 445.052 240.769 445.615 245.324 446.383C249.603 447.103 253.896 448.241 258.218 448.604L258.217 448.595C258.711 448.594 258.992 447.851 258.489 447.6C254.102 445.407 249.022 444.369 244.25 443.367M386.385 317.012C386.39 316.651 385.883 316.515 385.706 316.828C382.738 322.055 381.187 328.463 379.606 334.222C377.95 340.254 376.613 346.348 375.412 352.487C372.98 364.918 371.684 377.277 371.596 389.946C371.584 391.755 374.528 392.236 374.816 390.382C376.727 378.059 378.559 365.723 380.485 353.402C381.454 347.206 382.582 341.033 383.662 334.855M357.005 326.117C357.223 325.396 356.175 325.155 355.907 325.814C349.951 340.45 347.934 357.037 351.758 372.479C352.343 374.841 355.799 373.818 355.358 371.485M280.181 313.111C280.211 312.571 279.511 312.486 279.247 312.858C276.425 316.839 275.255 322.17 270.303 324.227C267.831 325.254 265.05 325.075 262.866 326.81C261.405 327.971 260.286 329.802 261.382 331.56C261.735 332.127 262.725 332.412 263.204 331.795C263.905 330.896 264.275 329.82 265.226 329.146C266.568 328.196 268.377 328.137 269.915 327.69C271.905 327.113 273.659 326.102 275.095 324.6M233.034 246.715C232.743 246.567 232.464 246.662 232.278 246.914C232.012 247.273 232.045 247.622 232.37 247.868C231.935 248.757 231.422 250.984 231.349 251.308C231.052 252.623 230.736 253.929 230.405 255.235C229.738 257.868 229.153 260.522 228.486 263.156C227.778 265.949 226.934 268.711 225.996 271.434C225.935 271.61 225.869 271.79 225.799 271.973L225.692 272.249L225.665 272.207C225.475 271.905 225.077 272.116 225.125 272.435C225.168 272.726 225.227 273.015 225.277 273.306L225.178 273.566C224.564 275.22 224.144 276.963 225.27 278.422C225.692 278.968 226.155 279.292 226.733 279.388C227.66 282.445 228.822 285.446 230.067 288.328L230.431 289.17C232.262 293.375 234.214 297.524 237.129 301.104C240.311 305.012 244.689 307.681 247.461 311.964C248.75 313.956 249.648 316.051 250.376 318.3L250.65 319.154C251.167 320.746 251.763 322.288 253.254 323.221C253.73 323.519 254.443 323.424 254.827 323.018C257.884 319.78 254.683 313.734 252.84 310.599C250.277 306.239 246.568 303.451 242.854 300.162C238.85 296.616 236.297 291.874 233.827 287.202C232.314 284.339 230.853 281.415 229.315 278.541C230.922 277.119 231.436 274.295 231.981 272.332L232.03 272.156C232.93 269.013 233.645 265.788 234.096 262.549C234.531 259.435 234.712 256.365 234.597 253.234L234.564 252.436M227.06 261.538C227.415 261.051 226.828 260.499 226.341 260.601C223.38 261.214 220.485 263.008 217.827 264.459L217.543 264.613C215.422 265.758 213.287 267.161 212.173 269.386C210.962 271.805 211.062 274.59 211.227 277.218L211.243 277.464C211.445 280.615 211.478 283.89 212.144 286.984C212.485 288.568 213.918 289.014 215.143 288.64C216.6 293.248 220.695 296.643 223.686 300.279C227.5 304.915 226.782 311.173 226.383 316.756C226.222 319.017 229.031 319.659 230.477 318.453L233.811 315.681C234.366 315.219 234.92 314.755 235.473 314.29C235.947 313.891 236.416 313.489 236.881 313.082L237.576 312.467C237.885 312.191 239.245 310.67 239.643 310.607C240.606 310.454 242.894 312.995 243.677 313.792L243.777 313.892C245.251 315.339 246.583 316.896 247.823 318.547C248.051 318.851 248.498 318.599 248.334 318.248C247.223 315.864 245.93 313.585 244.396 311.452L244.085 311.027C243.064 309.649 241.693 307.217 239.891 306.81C237.69 306.314 235.493 308.523 233.891 309.749L233.79 309.826C233.028 310.398 232.275 310.981 231.523 311.567C231.602 307.41 231.078 303.21 228.934 299.628C227.422 297.102 225.158 295.231 223.22 293.06C221.063 290.642 219.936 287.671 217.983 285.154C217.732 284.83 217.385 284.655 217.01 284.6C216.935 282.576 216.637 280.532 216.407 278.53L216.34 277.93C216.107 275.755 215.558 273.098 216.622 271.061C217.627 269.136 219.932 267.778 221.64 266.472L223.034 265.39M323.16 238.536C324.051 239.052 324.884 239.694 325.64 240.497C328.02 243.024 329.721 246.169 331.377 249.195C332.269 250.824 333.128 252.472 334.027 254.097C334.418 254.805 334.82 255.504 335.226 256.203C335.414 256.525 335.972 257.164 336.249 257.559C335.942 257.99 335.624 258.415 335.299 258.835C335.176 258.995 326.639 268.305 323.664 271.949C319.107 277.53 315.034 283.425 311.552 289.735C308.143 295.914 305.547 302.456 302.388 308.754C300.807 311.908 299.042 315.039 296.791 317.768C296.704 317.874 296.613 317.975 296.524 318.08C295.665 315.757 293.464 313.27 292.383 311.841L292.282 311.707C289.83 308.398 287.241 305.189 284.596 302.035C282.18 299.154 279.702 296.336 277.165 293.565L276.21 292.527C274.442 290.615 272.197 287.755 269.609 286.389C269.886 285.894 270.207 285.404 270.576 284.921C273.001 281.749 276.429 279.447 279.811 277.369L282.004 276.033C290.272 270.989 298.412 265.711 305.59 259.157C309.387 255.689 313.132 252.056 316.324 248.011L317.453 246.581M309.364 236.039C313.236 236.364 317.417 236.287 320.995 237.55C317.814 240.56 314.79 243.811 311.684 246.872C311.408 244.801 310.843 242.756 310.364 240.737" fill="black"/>
<g clip-path="url(#clip0_188_3714)">
<path d="M82.8316 401.28L108.904 404.037C111.077 404.267 113.182 406.492 113.607 409.007L118.704 439.189C119.129 441.704 117.712 443.557 115.539 443.327L89.4666 440.57C87.2938 440.34 85.1881 438.115 84.7634 435.599L79.6665 405.418C79.2418 402.903 80.6588 401.05 82.8316 401.28Z" fill="black"/>
<path fill-rule="evenodd" clip-rule="evenodd" d="M107.553 426.394L106.676 421.197L102.186 420.722L103.064 425.919C103.427 428.072 102.215 429.658 100.355 429.461C98.4956 429.264 96.6934 427.36 96.3299 425.207L95.4523 420.01L90.9629 419.536L91.8405 424.732C92.6887 429.755 96.8938 434.199 101.233 434.658C105.572 435.117 108.402 431.417 107.553 426.394Z" fill="white"/>
<path d="M100.431 410.329L104.92 410.804L105.798 416L101.309 415.526L100.431 410.329Z" fill="white"/>
<path d="M89.1983 409.098L93.6876 409.573L94.5653 414.77L90.0759 414.295L89.1983 409.098Z" fill="white"/>
</g>
<path fill-rule="evenodd" clip-rule="evenodd" d="M198.69 81.7967C202.127 69.4027 201.635 68.0622 206.757 56.2238C223.742 21.8311 337.246 33.3467 348.83 67.6781C355.114 86.3032 353.638 112.534 355.274 128.684C355.774 137.247 356.266 145.81 356.775 154.372C356.951 157.329 357.129 160.286 357.311 163.242C357.664 168.998 358.007 174.753 358.327 180.511C360.461 198.247 351.558 200.051 336.287 199.526C332.249 209.278 325.71 217.419 317.633 224.042C319.583 229.352 312.513 232.1 308.699 234.223C287.95 245.822 262.462 252.897 239.48 246.375C232.727 244.458 204.839 237.821 196.264 217.275C192.054 207.186 183.494 154.935 194.782 107.934L198.69 81.7967Z" fill="white"/>
<path fill-rule="evenodd" clip-rule="evenodd" d="M271.24 0.954226C268.031 0.385957 264.442 0.604709 262.602 3.7596C262.204 4.43968 261.952 5.12559 261.83 5.80129C253.061 3.82766 243.957 3.61377 234.998 4.90683C232.328 5.29038 231.391 8.85361 232.566 10.8909C232.687 11.1 232.808 11.3036 232.939 11.5034C230.133 11.7314 227.331 12.2175 224.554 12.9666C222.578 13.5014 220.732 16.0632 221.611 18.1632C221.689 18.3479 221.772 18.5327 221.854 18.7169C217.489 19.4514 213.318 21.1674 209.671 23.9383C209.234 24.264 208.831 24.6869 208.496 25.1681C200.344 24.2489 191.949 25.9362 184.67 29.8737C182.631 30.9767 181.645 34.1564 183.029 36.1398C183.461 36.7571 183.913 37.3453 184.398 37.9141C181.232 39.0856 178.431 40.981 176.542 44.0683C174.488 47.4177 173.857 51.7295 174.959 55.4143C172.657 57.7622 171.453 61.359 172.274 64.966C173.021 68.2575 175.037 70.3473 177.62 71.6019C177.095 73.2061 177.518 75.029 178.707 76.2682C180.533 78.1689 182.718 79.6272 185.097 80.5854C185.102 81.2027 185.258 81.8395 185.568 82.4326C187.715 86.5544 192.342 89.2917 197.047 89.7049C195.464 96.3593 194.163 103.097 192.9 109.796C190.657 121.711 188.919 133.742 187.86 145.822L187.732 147.315C186.007 167.756 185.606 189.169 189.759 209.333C192.405 222.171 200.426 232.992 211.128 240.323C222.01 247.78 235.304 251.489 248.385 252.077C255.057 252.374 261.791 251.809 268.326 250.439C271.43 249.788 274.426 248.864 277.373 247.688C280.544 246.419 283.155 244.547 285.836 242.443C287.23 241.349 286.433 238.767 284.783 238.441C283.603 238.204 282.437 237.946 281.262 237.732C280.184 237.532 279.009 238.612 279.233 239.608L276.959 240.194C276.201 240.39 275.444 240.588 274.688 240.791L273.556 241.1C270.337 242 267.045 242.758 263.743 243.298C257.023 244.392 250.031 244.416 243.277 243.565C231.92 242.141 220.32 238.087 211.487 230.615C207.156 226.95 203.549 222.609 200.931 217.568C197.605 211.165 196.6 204.034 195.765 196.952C193.352 176.472 194.095 155.962 195.969 135.478C196.901 125.289 198.173 115.119 199.523 104.974C200.218 99.7723 200.965 94.5612 201.582 89.3403C202.956 88.9709 204.267 88.3584 205.442 87.4688C206.239 86.866 206.705 86.1655 206.909 85.4514C208.095 85.2273 209.232 84.5755 210.052 83.4734L210.157 83.327C212.308 80.2106 216.027 78.427 219.47 77.1291C221.558 76.3416 223.685 75.6557 225.802 74.9561C228.006 74.2221 230.337 73.1381 232.653 72.8561C235.28 72.545 237.926 73.3374 240.577 73.0554C242.986 72.7929 245.108 71.9271 246.84 70.1971C247.447 69.5943 247.972 68.8991 248.39 68.1505C256.474 69.8806 264.967 67.6984 273.367 68.2234C278.893 68.5734 283.768 71.9957 289.352 71.9033C290.876 71.879 292.352 71.3443 293.425 70.4061C298.693 71.4123 304.05 73.3466 309.002 75.0091C313.897 76.6527 318.607 78.8645 323.443 80.6583C323.448 80.6631 323.448 80.6631 323.448 80.668C324.079 82.7145 325.963 83.5988 327.968 83.2395C334.528 82.068 340.054 77.9258 346.439 76.4096C348.197 82.8215 350.085 89.1502 351.376 95.689C352.683 102.286 353.601 108.97 354.208 115.668C354.82 122.391 355.111 129.182 355.125 135.93C355.13 139.371 355.043 142.822 354.926 146.264C354.832 149.147 354.283 152.793 355.324 155.566L355.417 155.802H355.422C355.548 156.206 356.116 156.449 356.436 156.074C358.393 153.799 358.859 150.178 359.403 147.319C360.064 143.848 360.486 140.344 360.825 136.828C361.506 129.775 361.656 122.751 361.297 115.668C360.593 101.727 358.359 87.0016 353.591 73.8235C355.057 73.9591 355.713 71.7964 355.81 70.5762C355.996 68.1241 355.612 65.522 355.196 63.0627L354.762 60.5168C354.349 58.1136 353.913 55.7732 353.096 53.4358C351.134 47.8255 348.313 42.5565 344.798 37.7683C337.626 28.0022 327.686 20.6079 316.368 16.3451C315.659 16.0778 314.989 16.0826 314.397 16.2863C304.098 10.7305 293.027 6.45268 281.782 3.4096C278.305 2.47139 274.785 1.58666 271.24 0.954226ZM356.766 157.693C352.091 154.757 342.443 153.989 339.835 160.245C339.728 160.498 340.029 160.721 340.253 160.663L340.891 160.502C343.342 159.894 345.46 159.544 347.973 160.552C350.182 161.436 352.328 162.821 353.79 164.727C357.245 169.233 357.619 175.355 357.297 180.821L357.281 181.085C356.98 185.883 355.752 191.726 351.066 194.098C348.692 195.299 346.123 195.211 343.545 195.192C340.607 195.172 337.606 195.493 334.8 196.398C333.231 196.903 332.493 198.984 333.795 200.204C334.227 200.608 334.678 200.986 335.154 201.327C333.732 202.844 332.333 204.38 330.978 205.999C328.682 208.745 326.239 211.399 323.69 213.912C321.224 216.338 318.611 218.686 315.795 220.698C312.833 222.809 309.289 224.291 306.725 226.877C305.054 228.559 305.341 230.907 306.725 232.608C310.16 236.837 316.008 232.391 319.292 229.891L319.689 229.589C323.103 227.003 326.346 224.213 329.109 220.927C331.925 217.573 334.363 214.005 336.164 210.004C337.223 207.651 337.898 205.43 338.262 203.106C344.166 205.673 351.61 204.856 356.902 201.244C363.928 196.451 365.9 187.653 365.924 179.622L365.924 179.145C365.872 171.339 363.823 162.123 356.766 157.693ZM343.446 169.007L343.229 169.01C340.629 169.066 338.31 170.004 336.101 171.296L335.873 171.431C333.727 172.709 330.648 173.734 329.512 176.127C328.832 177.57 328.881 179.223 330.066 180.418C332.212 182.587 335.451 182.227 337.772 180.535C339.505 179.267 340.646 177.366 342.346 176.082C345.54 173.662 350.581 173.798 353.906 175.893C354.111 176.024 354.309 175.777 354.217 175.582C352.175 171.398 348.127 168.991 343.446 169.007Z" fill="black"/>
<path fill-rule="evenodd" clip-rule="evenodd" d="M227.034 215.163C230.611 216.2 234.451 216.293 238.097 215.221C241.404 214.25 244.799 212.112 247.233 209.282C249.395 206.769 250.796 203.714 250.741 200.454C250.735 200.081 250.602 199.771 250.397 199.529C250.177 199.27 249.869 199.091 249.54 199.014C249.201 198.934 248.842 198.962 248.537 199.101C248.261 199.227 248.024 199.44 247.877 199.752C247.502 200.244 247.13 200.728 246.756 201.2C243.748 204.918 240.836 207.696 236.313 208.693C233.86 209.234 231.409 208.994 229.16 208.169C226.753 207.285 224.578 205.732 222.872 203.745C222.102 202.847 221.192 202.48 220.303 202.474C219.295 202.467 218.298 202.936 217.548 203.686C216.81 204.422 216.316 205.424 216.271 206.471C216.232 207.39 216.531 208.35 217.328 209.207C219.953 212.028 223.354 214.095 227.034 215.163ZM227.145 168.597C223.478 170.828 217.891 176.031 221.836 181.563C226.479 186.44 233.164 180.848 236.458 178.319C239.512 176.358 242.944 181.4 240.11 183.688C216.306 201.332 206.646 169.18 225.29 165.973C227.343 165.62 228.105 167.906 227.145 168.597ZM261.444 158.779C262.623 158.024 264.009 157.765 265.546 158.465C266.746 159.011 268.852 160.834 270.317 163.229C271.32 164.868 272.031 166.79 271.883 168.793C271.849 169.258 272.02 169.601 272.291 169.855C272.505 170.055 272.814 170.202 273.176 170.248C273.484 170.287 273.829 170.252 274.11 170.164C274.643 169.998 274.925 169.651 275.031 169.369C276.057 166.64 275.615 163.596 274.465 160.849C272.913 157.143 270.095 154.038 268.248 153.037C265.089 151.323 261.361 151.244 258.197 152.99C255.503 154.476 253.819 156.875 252.143 159.32C251.787 159.84 251.434 160.356 251.069 160.862C250.337 161.878 250.264 162.886 250.547 163.749C250.861 164.706 251.662 165.514 252.663 165.937C253.589 166.327 254.663 166.382 255.614 165.981C256.417 165.642 257.154 164.981 257.62 163.859C258.405 161.971 259.714 159.887 261.444 158.779ZM201.592 162.981C202.399 163.402 203.03 163.529 203.925 163.26C204.421 163.111 204.91 162.826 205.293 162.442C205.673 162.062 205.947 161.59 206.053 161.065C206.315 159.771 207.022 158.56 208.03 157.77C208.892 157.095 209.979 156.737 211.185 156.939C212.487 157.156 213.727 157.992 214.581 158.977C214.866 159.307 215.09 159.681 215.315 160.053C215.736 160.749 216.145 161.395 216.725 161.906C216.945 162.1 217.276 162.235 217.598 162.235C217.728 162.235 217.86 162.214 217.987 162.174C219.282 160.873 219.531 159.885 219.489 158.906C219.446 157.879 219.041 156.839 218.388 155.868C216.854 153.592 213.943 151.726 211.979 151.304C209.289 150.725 206.617 151.42 204.475 152.924C202.271 154.472 200.638 156.875 200.128 159.583C200.006 160.235 200.058 160.939 200.306 161.55C200.549 162.146 200.971 162.657 201.592 162.981ZM255.511 134.513C257.126 136.088 259.036 136.332 260.97 136.549C262.044 136.67 262.901 136.768 263.745 136.959C266.064 137.483 268.357 138.273 270.448 139.409C272.634 140.598 275.017 142.031 276.731 143.867C277.139 144.304 277.523 144.763 277.908 145.222C278.258 145.641 278.596 146.044 278.953 146.433C279.362 146.88 279.75 147.348 280.137 147.815C280.375 148.209 280.423 148.306 280.471 148.407C280.543 148.559 280.627 148.728 280.724 148.91C280.855 149.159 281.01 149.432 281.171 149.68C281.44 150.132 281.584 150.256 281.709 150.312C281.916 150.404 282.112 150.45 282.302 150.425C282.481 150.402 282.649 150.316 282.815 150.176C283.644 149.475 283.888 148.324 283.863 147.103C283.825 145.249 283.142 143.197 282.513 141.936C281.049 139.005 279.019 135.957 276.579 133.77C273.793 131.273 270.746 129.382 267.246 128.079C265.071 127.27 262.553 126.526 260.184 126.62C258.478 126.688 256.85 127.195 255.505 128.463C254.679 129.241 254.283 130.348 254.283 131.454C254.283 132.582 254.695 133.717 255.511 134.513ZM198.308 148.934C198.411 149.102 198.553 149.218 198.711 149.288C198.877 149.361 199.062 149.382 199.239 149.352C199.416 149.322 199.584 149.242 199.718 149.119C199.845 149.002 199.943 148.846 199.986 148.655C201.058 143.942 203.139 140.435 207.582 138.174C209.767 137.061 212.28 136.355 214.659 135.791C215.35 135.627 216.08 135.521 216.816 135.414C219.121 135.077 221.443 134.691 222.946 132.825C223.852 131.701 224.232 130.264 224.017 128.95C223.815 127.712 223.092 126.578 221.779 125.898C218.51 124.205 214.448 125.866 211.147 127.28C210.902 127.385 210.661 127.488 210.426 127.588C207.198 128.952 204.253 130.753 201.833 133.328C199.913 135.371 198.133 138.391 197.417 141.499C196.821 144.084 196.961 146.722 198.308 148.934Z" fill="black"/>
<path fill-rule="evenodd" clip-rule="evenodd" d="M270.403 218.582C266.472 209.362 257.892 202.585 248.013 200.108C240.759 198.293 233.146 198.351 225.751 199.071C221.876 199.446 217.721 199.753 214.069 201.193C210.951 202.424 208.41 204.75 206.5 207.481C204.226 210.716 202.679 214.42 201.592 218.215C201.438 218.755 201.293 219.299 201.158 219.845C201.63 222.709 202.633 225.147 205.283 226.947C207.868 228.705 210.953 229.425 214.029 229.68C214.33 229.535 214.622 229.386 214.889 229.233C219.681 226.487 223.054 219.996 229.103 220.874C234.501 221.659 238.055 228.459 241.265 232.446C251.569 233.648 261.866 230.548 270.25 224.649C270.676 222.63 270.701 220.594 270.403 218.582ZM194.154 211.587C194.979 209.272 196.017 207.029 197.248 204.916C201.316 197.928 207.562 192.361 214.976 189.178C232.515 181.659 255.209 186.959 269.374 199.29C274.212 203.505 279.105 209.7 280.584 216.363C281.026 216.45 281.443 216.681 281.786 217.005C292.02 210.554 302.558 204.348 310.805 195.407C316.794 188.91 320.959 181.222 323.51 172.773C323.718 172.078 324.838 172.18 324.804 172.949C324.795 173.129 324.785 173.309 324.775 173.489C324.882 173.158 325.386 173.328 325.425 173.649C326.797 183.913 328.514 194.794 326.933 205.11C325.988 211.266 323.194 215.773 319.461 220.639C315.46 225.856 310.931 230.707 306.3 235.36C303.361 238.314 300.292 241.72 296.694 243.886C292.509 246.401 287.762 248.314 283.296 250.256C278.752 252.236 274.141 254.066 269.442 255.652C260.049 258.835 250.341 261.035 240.463 261.998C232.554 262.767 223.515 263.604 215.936 260.626C210.127 258.343 205.438 254.217 201.719 249.253C197.669 243.847 194.469 237.688 192.699 231.194C190.86 224.448 193.767 212.675 194.154 211.587Z" fill="black"/>
<defs>
<filter id="filter0_d_188_3714" x="58.8274" y="131.827" width="499.946" height="499.946" filterUnits="userSpaceOnUse" color-interpolation-filters="sRGB">
<feFlood flood-opacity="0" result="BackgroundImageFix"/>
<feColorMatrix in="SourceAlpha" type="matrix" values="0 0 0 0 0 0 0 0 0 0 0 0 0 0 0 0 0 0 127 0" result="hardAlpha"/>
<feOffset dx="23.773" dy="23.773"/>
<feComposite in2="hardAlpha" operator="out"/>
<feColorMatrix type="matrix" values="0 0 0 0 0.466667 0 0 0 0 0.172549 0 0 0 0 0.909804 0 0 0 1 0"/>
<feBlend mode="normal" in2="BackgroundImageFix" result="effect1_dropShadow_188_3714"/>
<feBlend mode="normal" in="SourceGraphic" in2="effect1_dropShadow_188_3714" result="shape"/>
</filter>
<clipPath id="clip0_188_3714">
<rect width="34.1343" height="39.8515" fill="white" transform="matrix(-0.994454 -0.10517 0.166515 0.986039 112.838 404.453)"/>
</clipPath>
</defs>
</svg>
