<svg width="1375" height="596" viewBox="0 0 1375 596" fill="none" xmlns="http://www.w3.org/2000/svg">
<rect width="1375" height="596" rx="12" fill="white" fill-opacity="0.2"/>
<path d="M598.404 301.728H593.748L592.948 304H591.044L595.028 292.864H597.14L601.124 304H599.204L598.404 301.728ZM597.892 300.24L596.084 295.072L594.26 300.24H597.892ZM602.248 299.552C602.248 298.667 602.43 297.883 602.792 297.2C603.166 296.517 603.667 295.989 604.296 295.616C604.936 295.232 605.646 295.04 606.424 295.04C607 295.04 607.566 295.168 608.12 295.424C608.686 295.669 609.134 296 609.464 296.416V292.16H611.304V304H609.464V302.672C609.166 303.099 608.75 303.451 608.216 303.728C607.694 304.005 607.091 304.144 606.408 304.144C605.64 304.144 604.936 303.952 604.296 303.568C603.667 303.173 603.166 302.629 602.792 301.936C602.43 301.232 602.248 300.437 602.248 299.552ZM609.464 299.584C609.464 298.976 609.336 298.448 609.08 298C608.835 297.552 608.51 297.211 608.104 296.976C607.699 296.741 607.262 296.624 606.792 296.624C606.323 296.624 605.886 296.741 605.48 296.976C605.075 297.2 604.744 297.536 604.488 297.984C604.243 298.421 604.12 298.944 604.12 299.552C604.12 300.16 604.243 300.693 604.488 301.152C604.744 301.611 605.075 301.963 605.48 302.208C605.896 302.443 606.334 302.56 606.792 302.56C607.262 302.56 607.699 302.443 608.104 302.208C608.51 301.973 608.835 301.632 609.08 301.184C609.336 300.725 609.464 300.192 609.464 299.584ZM617.108 302.368L619.604 295.184H621.54L618.18 304H616.004L612.66 295.184H614.612L617.108 302.368ZM622.311 299.552C622.311 298.667 622.492 297.883 622.855 297.2C623.228 296.517 623.729 295.989 624.359 295.616C624.999 295.232 625.703 295.04 626.471 295.04C627.164 295.04 627.767 295.179 628.279 295.456C628.801 295.723 629.217 296.059 629.527 296.464V295.184H631.367V304H629.527V302.688C629.217 303.104 628.796 303.451 628.263 303.728C627.729 304.005 627.121 304.144 626.439 304.144C625.681 304.144 624.988 303.952 624.359 303.568C623.729 303.173 623.228 302.629 622.855 301.936C622.492 301.232 622.311 300.437 622.311 299.552ZM629.527 299.584C629.527 298.976 629.399 298.448 629.143 298C628.897 297.552 628.572 297.211 628.167 296.976C627.761 296.741 627.324 296.624 626.855 296.624C626.385 296.624 625.948 296.741 625.543 296.976C625.137 297.2 624.807 297.536 624.551 297.984C624.305 298.421 624.183 298.944 624.183 299.552C624.183 300.16 624.305 300.693 624.551 301.152C624.807 301.611 625.137 301.963 625.543 302.208C625.959 302.443 626.396 302.56 626.855 302.56C627.324 302.56 627.761 302.443 628.167 302.208C628.572 301.973 628.897 301.632 629.143 301.184C629.399 300.725 629.527 300.192 629.527 299.584ZM638.211 295.04C638.904 295.04 639.523 295.184 640.067 295.472C640.621 295.76 641.053 296.187 641.363 296.752C641.672 297.317 641.827 298 641.827 298.8V304H640.019V299.072C640.019 298.283 639.821 297.68 639.427 297.264C639.032 296.837 638.493 296.624 637.811 296.624C637.128 296.624 636.584 296.837 636.179 297.264C635.784 297.68 635.587 298.283 635.587 299.072V304H633.763V295.184H635.587V296.192C635.885 295.829 636.264 295.547 636.723 295.344C637.192 295.141 637.688 295.04 638.211 295.04ZM643.545 299.584C643.545 298.677 643.726 297.883 644.089 297.2C644.462 296.507 644.974 295.973 645.625 295.6C646.276 295.227 647.022 295.04 647.865 295.04C648.932 295.04 649.812 295.296 650.505 295.808C651.209 296.309 651.684 297.029 651.929 297.968H649.961C649.801 297.531 649.545 297.189 649.193 296.944C648.841 296.699 648.398 296.576 647.865 296.576C647.118 296.576 646.521 296.843 646.073 297.376C645.636 297.899 645.417 298.635 645.417 299.584C645.417 300.533 645.636 301.275 646.073 301.808C646.521 302.341 647.118 302.608 647.865 302.608C648.921 302.608 649.62 302.144 649.961 301.216H651.929C651.673 302.112 651.193 302.827 650.489 303.36C649.785 303.883 648.91 304.144 647.865 304.144C647.022 304.144 646.276 303.957 645.625 303.584C644.974 303.2 644.462 302.667 644.089 301.984C643.726 301.291 643.545 300.491 643.545 299.584ZM661.827 299.376C661.827 299.707 661.806 300.005 661.763 300.272H655.027C655.08 300.976 655.342 301.541 655.811 301.968C656.28 302.395 656.856 302.608 657.539 302.608C658.52 302.608 659.214 302.197 659.619 301.376H661.587C661.32 302.187 660.835 302.853 660.131 303.376C659.438 303.888 658.574 304.144 657.539 304.144C656.696 304.144 655.939 303.957 655.267 303.584C654.606 303.2 654.083 302.667 653.699 301.984C653.326 301.291 653.139 300.491 653.139 299.584C653.139 298.677 653.32 297.883 653.683 297.2C654.056 296.507 654.574 295.973 655.235 295.6C655.907 295.227 656.675 295.04 657.539 295.04C658.371 295.04 659.112 295.221 659.763 295.584C660.414 295.947 660.92 296.459 661.283 297.12C661.646 297.771 661.827 298.523 661.827 299.376ZM659.923 298.8C659.912 298.128 659.672 297.589 659.203 297.184C658.734 296.779 658.152 296.576 657.459 296.576C656.83 296.576 656.291 296.779 655.843 297.184C655.395 297.579 655.128 298.117 655.043 298.8H659.923ZM663.014 299.552C663.014 298.667 663.195 297.883 663.558 297.2C663.931 296.517 664.433 295.989 665.062 295.616C665.702 295.232 666.411 295.04 667.19 295.04C667.766 295.04 668.331 295.168 668.886 295.424C669.451 295.669 669.899 296 670.23 296.416V292.16H672.07V304H670.23V302.672C669.931 303.099 669.515 303.451 668.982 303.728C668.459 304.005 667.857 304.144 667.174 304.144C666.406 304.144 665.702 303.952 665.062 303.568C664.433 303.173 663.931 302.629 663.558 301.936C663.195 301.232 663.014 300.437 663.014 299.552ZM670.23 299.584C670.23 298.976 670.102 298.448 669.846 298C669.601 297.552 669.275 297.211 668.87 296.976C668.465 296.741 668.027 296.624 667.558 296.624C667.089 296.624 666.651 296.741 666.246 296.976C665.841 297.2 665.51 297.536 665.254 297.984C665.009 298.421 664.886 298.944 664.886 299.552C664.886 300.16 665.009 300.693 665.254 301.152C665.51 301.611 665.841 301.963 666.246 302.208C666.662 302.443 667.099 302.56 667.558 302.56C668.027 302.56 668.465 302.443 668.87 302.208C669.275 301.973 669.601 301.632 669.846 301.184C670.102 300.725 670.23 300.192 670.23 299.584ZM685.326 301.728H680.67L679.87 304H677.966L681.95 292.864H684.062L688.046 304H686.126L685.326 301.728ZM684.814 300.24L683.006 295.072L681.182 300.24H684.814ZM694.226 295.04C694.919 295.04 695.538 295.184 696.082 295.472C696.637 295.76 697.069 296.187 697.378 296.752C697.687 297.317 697.842 298 697.842 298.8V304H696.034V299.072C696.034 298.283 695.837 297.68 695.442 297.264C695.047 296.837 694.509 296.624 693.826 296.624C693.143 296.624 692.599 296.837 692.194 297.264C691.799 297.68 691.602 298.283 691.602 299.072V304H689.778V295.184H691.602V296.192C691.901 295.829 692.279 295.547 692.738 295.344C693.207 295.141 693.703 295.04 694.226 295.04ZM699.561 299.552C699.561 298.667 699.742 297.883 700.105 297.2C700.478 296.517 700.979 295.989 701.609 295.616C702.249 295.232 702.953 295.04 703.721 295.04C704.414 295.04 705.017 295.179 705.529 295.456C706.051 295.723 706.467 296.059 706.777 296.464V295.184H708.617V304H706.777V302.688C706.467 303.104 706.046 303.451 705.513 303.728C704.979 304.005 704.371 304.144 703.689 304.144C702.931 304.144 702.238 303.952 701.609 303.568C700.979 303.173 700.478 302.629 700.105 301.936C699.742 301.232 699.561 300.437 699.561 299.552ZM706.777 299.584C706.777 298.976 706.649 298.448 706.393 298C706.147 297.552 705.822 297.211 705.417 296.976C705.011 296.741 704.574 296.624 704.105 296.624C703.635 296.624 703.198 296.741 702.793 296.976C702.387 297.2 702.057 297.536 701.801 297.984C701.555 298.421 701.433 298.944 701.433 299.552C701.433 300.16 701.555 300.693 701.801 301.152C702.057 301.611 702.387 301.963 702.793 302.208C703.209 302.443 703.646 302.56 704.105 302.56C704.574 302.56 705.011 302.443 705.417 302.208C705.822 301.973 706.147 301.632 706.393 301.184C706.649 300.725 706.777 300.192 706.777 299.584ZM712.837 292.16V304H711.013V292.16H712.837ZM723.167 295.184L717.759 308.144H715.871L717.663 303.856L714.191 295.184H716.223L718.703 301.904L721.279 295.184H723.167ZM726.672 296.672V301.552C726.672 301.883 726.746 302.123 726.896 302.272C727.056 302.411 727.322 302.48 727.696 302.48H728.816V304H727.376C726.554 304 725.925 303.808 725.488 303.424C725.05 303.04 724.832 302.416 724.832 301.552V296.672H723.792V295.184H724.832V292.992H726.672V295.184H728.816V296.672H726.672ZM731.425 294.016C731.094 294.016 730.817 293.904 730.593 293.68C730.369 293.456 730.257 293.179 730.257 292.848C730.257 292.517 730.369 292.24 730.593 292.016C730.817 291.792 731.094 291.68 731.425 291.68C731.745 291.68 732.017 291.792 732.241 292.016C732.465 292.24 732.577 292.517 732.577 292.848C732.577 293.179 732.465 293.456 732.241 293.68C732.017 293.904 731.745 294.016 731.425 294.016ZM732.321 295.184V304H730.497V295.184H732.321ZM734.108 299.584C734.108 298.677 734.289 297.883 734.652 297.2C735.025 296.507 735.537 295.973 736.188 295.6C736.838 295.227 737.585 295.04 738.428 295.04C739.494 295.04 740.374 295.296 741.068 295.808C741.772 296.309 742.246 297.029 742.492 297.968H740.524C740.364 297.531 740.108 297.189 739.756 296.944C739.404 296.699 738.961 296.576 738.428 296.576C737.681 296.576 737.084 296.843 736.636 297.376C736.198 297.899 735.98 298.635 735.98 299.584C735.98 300.533 736.198 301.275 736.636 301.808C737.084 302.341 737.681 302.608 738.428 302.608C739.484 302.608 740.182 302.144 740.524 301.216H742.492C742.236 302.112 741.756 302.827 741.052 303.36C740.348 303.883 739.473 304.144 738.428 304.144C737.585 304.144 736.838 303.957 736.188 303.584C735.537 303.2 735.025 302.667 734.652 301.984C734.289 301.291 734.108 300.491 734.108 299.584ZM747.509 304.144C746.816 304.144 746.192 304.021 745.637 303.776C745.093 303.52 744.661 303.179 744.341 302.752C744.021 302.315 743.851 301.829 743.829 301.296H745.717C745.749 301.669 745.925 301.984 746.245 302.24C746.576 302.485 746.987 302.608 747.477 302.608C747.989 302.608 748.384 302.512 748.661 302.32C748.949 302.117 749.093 301.861 749.093 301.552C749.093 301.221 748.933 300.976 748.613 300.816C748.304 300.656 747.808 300.48 747.125 300.288C746.464 300.107 745.925 299.931 745.509 299.76C745.093 299.589 744.731 299.328 744.421 298.976C744.123 298.624 743.973 298.16 743.973 297.584C743.973 297.115 744.112 296.688 744.389 296.304C744.667 295.909 745.061 295.6 745.573 295.376C746.096 295.152 746.693 295.04 747.365 295.04C748.368 295.04 749.173 295.296 749.781 295.808C750.4 296.309 750.731 296.997 750.773 297.872H748.949C748.917 297.477 748.757 297.163 748.469 296.928C748.181 296.693 747.792 296.576 747.301 296.576C746.821 296.576 746.453 296.667 746.197 296.848C745.941 297.029 745.813 297.269 745.813 297.568C745.813 297.803 745.899 298 746.069 298.16C746.24 298.32 746.448 298.448 746.693 298.544C746.939 298.629 747.301 298.741 747.781 298.88C748.421 299.051 748.944 299.227 749.349 299.408C749.765 299.579 750.123 299.835 750.421 300.176C750.72 300.517 750.875 300.971 750.885 301.536C750.885 302.037 750.747 302.485 750.469 302.88C750.192 303.275 749.797 303.584 749.285 303.808C748.784 304.032 748.192 304.144 747.509 304.144Z" fill="white"/>
<path d="M766 308C765.583 308 765.229 307.854 764.938 307.562C764.646 307.271 764.5 306.917 764.5 306.5V295.65C764.5 295.233 764.646 294.879 764.938 294.587C765.229 294.296 765.583 294.15 766 294.15H767.75V291.75C767.75 290.433 768.212 289.312 769.137 288.388C770.062 287.463 771.183 287 772.5 287C773.817 287 774.938 287.463 775.863 288.388C776.788 289.312 777.25 290.433 777.25 291.75V294.15H779C779.417 294.15 779.771 294.296 780.062 294.587C780.354 294.879 780.5 295.233 780.5 295.65V306.5C780.5 306.917 780.354 307.271 780.062 307.562C779.771 307.854 779.417 308 779 308H766ZM766 306.5H779V295.65H766V306.5ZM772.5 303C773.033 303 773.488 302.817 773.863 302.45C774.238 302.083 774.425 301.642 774.425 301.125C774.425 300.625 774.238 300.171 773.863 299.762C773.488 299.354 773.033 299.15 772.5 299.15C771.967 299.15 771.512 299.354 771.137 299.762C770.762 300.171 770.575 300.625 770.575 301.125C770.575 301.642 770.762 302.083 771.137 302.45C771.512 302.817 771.967 303 772.5 303ZM769.25 294.15H775.75V291.75C775.75 290.85 775.433 290.083 774.8 289.45C774.167 288.817 773.4 288.5 772.5 288.5C771.6 288.5 770.833 288.817 770.2 289.45C769.567 290.083 769.25 290.85 769.25 291.75V294.15ZM766 306.5V295.65V306.5Z" fill="white"/>
</svg>
