<svg width="16" height="16" viewBox="0 0 16 16" fill="none" xmlns="http://www.w3.org/2000/svg">
<path d="M8 7.74638C6.96875 7.74638 6.125 7.40821 5.46875 6.73188C4.8125 6.05556 4.48438 5.18599 4.48438 4.12319C4.48438 3.06039 4.8125 2.19082 5.46875 1.51449C6.125 0.838164 6.96875 0.5 8 0.5C9.03125 0.5 9.875 0.838164 10.5312 1.51449C11.1875 2.19082 11.5156 3.06039 11.5156 4.12319C11.5156 5.18599 11.1875 6.05556 10.5312 6.73188C9.875 7.40821 9.03125 7.74638 8 7.74638ZM14.0938 15.5H1.90625C1.51562 15.5 1.18359 15.3591 0.910156 15.0773C0.636719 14.7955 0.5 14.4533 0.5 14.0507V13.2295C0.5 12.6176 0.648437 12.0942 0.945312 11.6594C1.24219 11.2246 1.625 10.8945 2.09375 10.6691C3.14062 10.186 4.14453 9.82367 5.10547 9.58213C6.06641 9.34058 7.03125 9.21981 8 9.21981C8.96875 9.21981 9.92969 9.34461 10.8828 9.5942C11.8359 9.8438 12.8359 10.2021 13.8828 10.6691C14.3672 10.8945 14.7578 11.2246 15.0547 11.6594C15.3516 12.0942 15.5 12.6176 15.5 13.2295V14.0507C15.5 14.4533 15.3633 14.7955 15.0898 15.0773C14.8164 15.3591 14.4844 15.5 14.0938 15.5ZM1.90625 14.0507H14.0938V13.2295C14.0938 12.9718 14.0195 12.7262 13.8711 12.4928C13.7227 12.2593 13.5391 12.0862 13.3203 11.9734C12.3203 11.4742 11.4062 11.132 10.5781 10.9469C9.75 10.7617 8.89062 10.6691 8 10.6691C7.10938 10.6691 6.24219 10.7617 5.39844 10.9469C4.55469 11.132 3.64063 11.4742 2.65625 11.9734C2.4375 12.0862 2.25781 12.2593 2.11719 12.4928C1.97656 12.7262 1.90625 12.9718 1.90625 13.2295V14.0507ZM8 6.2971C8.60938 6.2971 9.11328 6.09179 9.51172 5.68116C9.91016 5.27053 10.1094 4.75121 10.1094 4.12319C10.1094 3.49517 9.91016 2.97585 9.51172 2.56522C9.11328 2.15459 8.60938 1.94928 8 1.94928C7.39062 1.94928 6.88672 2.15459 6.48828 2.56522C6.08984 2.97585 5.89062 3.49517 5.89062 4.12319C5.89062 4.75121 6.08984 5.27053 6.48828 5.68116C6.88672 6.09179 7.39062 6.2971 8 6.2971Z" fill="#CBD2E0"/>
</svg>
