<svg width="240" height="240" viewBox="0 0 240 240" fill="none" xmlns="http://www.w3.org/2000/svg">
<g clip-path="url(#clip0_83_1069)">
<rect width="240" height="240" rx="16" fill="white"/>
<path fill-rule="evenodd" clip-rule="evenodd" d="M216.9 313.52C222.173 313.282 220.052 304.66 219.674 301.494C215.498 289.928 216.48 277.31 214.838 265.188C213.815 253.872 212.5 242.591 211.394 231.283C209.223 208.33 193.628 161.602 175.832 154.088C173.59 144.894 164.33 136.312 152.615 136.312C144.625 127.472 135.008 121.25 122.673 122.506C117.575 122.723 112.632 127.776 107.747 128.752C105.012 129.105 80.7416 128.198 75.8799 130.896C72.4933 132.521 69.4362 135.525 70.4319 139.348C72.0207 143.981 67.0833 138.968 56.7837 143.913C35.7815 155.702 48.3315 171.474 48.8877 171.962C35.7814 189.006 24.326 202.833 19.0257 223.665C15.5906 239.132 15.9773 255.098 13.0991 270.643C12.0829 276.034 10.5239 281.24 8.83688 286.474C7.00854 293.325 6.11951 310.399 5.11174 310.552C3.27603 310.978 6.17268 314.501 8.11782 314.504C62.0469 322.865 116.826 314.85 171.045 313.54C186.324 313.044 201.621 312.929 216.9 313.52Z" fill="white"/>
<path fill-rule="evenodd" clip-rule="evenodd" d="M135.162 173.467C135.187 173.236 135.52 173.236 135.546 173.467L135.926 176.902C136.39 181.098 136.836 185.285 137.159 189.501C137.562 194.757 137.832 200.012 137.962 205.28C138.415 223.628 138.505 241.986 138.543 260.338C141.198 260.166 143.854 260.001 146.511 259.841C148.314 259.732 150.117 259.628 151.92 259.525L156.517 259.264L158.41 259.156C159.689 259.082 161.142 258.781 162.036 259.84C162.394 260.264 162.574 260.815 162.24 261.318C161.47 262.479 160.288 262.438 158.95 262.488C157.689 262.536 156.427 262.583 155.165 262.628C152.461 262.726 149.757 262.819 147.052 262.89C144.214 262.964 141.376 263.025 138.539 263.07C138.51 270.817 138.167 278.555 137.796 286.295L137.629 289.777C137.175 299.196 136.687 308.622 135.993 318.028C135.936 318.798 134.771 318.796 134.714 318.028C133.933 307.435 133.418 296.82 132.907 286.214C132.537 278.524 132.321 270.832 132.218 263.138C131.843 263.141 131.468 263.145 131.093 263.147C120.443 263.19 109.796 263.233 99.146 263.14C99.1638 263.16 99.1813 263.179 99.193 263.205C99.9636 264.906 100.037 267.076 100.018 268.901C99.9966 270.994 99.6951 273.061 99.1793 275.097C97.3315 282.388 92.5654 288.919 87.137 294.318L86.9597 294.494C85.6793 295.759 84.2104 297.029 83.4242 298.64C82.6211 300.284 82.3424 302.208 81.9461 303.975L81.8998 304.178L80.3504 310.867C79.8581 312.992 79.7184 316.091 77.919 317.624C76.2402 319.054 74.0161 318.307 73.2261 316.465C72.6091 315.028 73.2237 313.45 73.5891 312.013L76.452 300.765C76.9224 298.931 77.4364 297.085 78.4516 295.437C79.4916 293.749 81.0162 292.526 82.572 291.274C85.5178 288.903 88.2221 286.189 90.5092 283.251C92.7954 280.314 94.7493 277.076 96.1195 273.672C96.8055 271.968 97.3676 270.197 97.7554 268.412C98.1241 266.718 98.1208 264.964 98.5151 263.288C98.5421 263.173 98.6467 263.093 98.7665 263.058C98.7381 262.983 98.7815 262.882 98.8934 262.876L107.603 262.353C115.346 261.886 123.087 261.407 130.823 260.86L132.19 260.768C132.084 250.503 132.174 240.236 132.372 229.968C132.554 220.551 132.558 211.132 132.857 201.717C133.006 197.044 133.327 192.382 133.685 187.719C134.051 182.95 134.636 178.221 135.162 173.467ZM53.3798 228.065C53.287 227.542 53.9908 227.218 54.3153 227.697C58.0241 233.16 59.8123 239.095 60.566 245.489C61.2319 251.132 61.0357 256.857 60.7041 262.515C60.3505 268.549 59.9378 274.582 59.5206 280.614L58.8796 289.863L57.2709 313.05C57.1558 314.708 56.753 316.216 55.2251 316.987C55.0316 317.138 54.8299 317.274 54.595 317.391C53.7695 317.804 52.6747 317.595 52.1974 316.804L52.3888 316.921C52.5555 317.019 52.3683 316.882 51.8271 316.511L51.3678 315.955C51.0341 315.486 50.821 315.026 50.7353 314.468C50.6021 313.602 50.7746 312.653 50.8351 311.782L51.8896 296.578C52.7096 284.758 53.6672 272.941 54.389 261.115C54.7252 255.603 54.9607 250.086 54.8013 244.565C54.6425 239.074 54.3431 233.49 53.3798 228.065ZM85.4643 126.284L85.67 126.252C93.0366 125.108 101.047 125.322 107.779 128.641C107.835 128.668 107.81 128.755 107.747 128.752L105.58 128.671C98.7201 128.42 91.8812 128.272 85.136 129.778L84.4455 129.934C82.0163 130.487 79.4796 131.165 77.5284 132.665C75.6635 134.098 74.7349 136.309 73.842 138.345L73.7226 138.613C72.8166 140.624 71.67 142.531 69.6843 143.788C67.1123 145.416 64.0191 145.216 61.0701 145.437C55.8776 145.827 51.6322 149.345 49.5201 153.649C48.2411 156.255 47.6956 159.177 47.5875 162.027C47.5321 163.478 47.5242 164.985 47.731 166.427C47.7971 166.888 48.4067 168.567 48.7175 168.526C49.4082 168.437 50.0397 168.773 50.255 169.289C51.9611 167.749 53.7163 166.253 55.528 164.81C60.044 161.216 64.9082 157.958 70.0309 155.159C73.9405 153.022 78.0644 150.905 82.3348 149.304C81.9964 149.298 81.6627 149.36 81.3399 149.517C81.1985 149.586 81.058 149.421 81.1696 149.311C82.5146 147.988 84.1258 147.8 85.75 148.153C86.0966 148.05 86.4434 147.95 86.7916 147.855C86.9649 147.808 87.0511 148.031 86.9098 148.118L86.5108 148.356C88.2827 148.911 90.0223 150.001 91.3996 150.861C95.3559 153.333 98.8382 156.354 102.368 159.318L103.01 159.856C106.117 162.449 109.304 164.969 112.834 167.049C114.682 168.138 116.623 169.145 118.659 169.894C120.405 170.537 123.249 170.942 124.066 172.667C124.793 173.492 124.49 174.546 123.638 175.101C122.202 176.578 119.33 175.624 117.619 175.009C115.556 174.267 113.558 173.376 111.652 172.33C107.952 170.3 104.54 167.776 101.362 165.09C98.043 162.286 94.9122 159.307 91.6839 156.414C90.2852 155.161 88.9187 153.878 87.5179 152.626L86.8142 152.004C86.0993 151.377 85.0806 150.4 83.9915 149.809C81.9397 150.953 79.8562 152.05 77.8229 153.223C74.9846 154.861 72.2298 156.617 69.5176 158.431C64.2961 161.923 59.3481 165.834 54.7546 170.026C46.33 177.714 39.1526 186.493 32.8824 195.789L32.4063 196.497C28.8433 201.818 25.4738 207.31 23.0847 213.189C20.456 219.659 19.1775 226.462 18.483 233.329C17.7937 240.147 17.5612 247 16.7908 253.812C16.0008 260.798 14.4443 267.63 12.6738 274.449L12.2515 276.066C10.6495 282.173 8.99599 288.28 8.17249 294.531C7.73286 297.87 7.46844 301.255 7.5282 304.621C7.58823 308.007 8.15748 311.318 8.61675 314.668C8.79276 315.952 7.44142 317.023 6.23226 317.193C4.84162 317.388 3.64692 316.559 3.21467 315.352C1.86715 311.588 1.62237 307.427 1.66467 303.476C1.70724 299.466 2.25492 295.481 3.02556 291.54C4.54117 283.786 6.88009 276.194 8.83669 268.533C10.5611 261.782 11.7184 255.018 12.3422 248.101C12.9898 240.925 13.3775 233.725 14.5589 226.6C15.7249 219.567 17.9189 212.849 21.2277 206.435C24.2404 200.596 27.9958 195.1 31.9331 189.772C36.7143 183.303 41.9655 177.148 47.8353 171.539C47.3081 171.518 46.7667 171.358 46.2695 171.069C44.7484 170.182 44.04 168.447 43.8222 166.863C43.3125 163.158 43.4355 159.29 44.455 155.667C46.0997 149.824 50.3682 144.631 56.5546 142.525C58.1469 141.982 59.8396 141.785 61.5271 141.746C63.1284 141.708 64.8774 141.903 66.4225 141.429C68.8818 140.673 69.936 137.966 70.8594 135.914L70.9019 135.82C72.086 133.205 73.5072 130.963 76.0718 129.33C78.8079 127.588 82.2361 126.796 85.4643 126.284ZM155.459 136.626C157.673 135.908 160.44 136.56 162.605 137.187C165.017 137.885 167.246 139.172 169.156 140.701C171.172 142.313 172.838 144.303 174.015 146.527L174.128 146.741C175.203 148.804 176.427 151.635 175.885 153.901C175.87 153.966 175.852 154.028 175.832 154.088C180.224 156.108 184.28 158.64 187.812 161.848C191.925 165.583 195.408 169.833 198.355 174.425C210.06 192.664 212.12 214.568 213.503 235.367L213.847 240.641C214.598 252.029 215.477 263.39 217.759 274.621L217.925 275.432C220.364 287.19 223.856 299.039 223.502 311.101C223.396 314.716 217.681 314.691 217.516 311.101C216.892 297.59 213.518 284.545 211.234 271.245C207.215 247.846 209.229 223.723 203.533 200.559C201.299 191.468 197.836 182.65 192.893 174.535C190.45 170.527 187.656 166.653 184.383 163.195C181.567 160.219 178.641 157.355 175.35 154.854C174.298 155.838 172.197 155.337 171.648 153.901C171.271 152.915 171.381 151.762 171.139 150.729C170.914 149.77 170.605 148.819 170.192 147.916C169.37 146.117 168.162 144.389 166.769 142.933C165.263 141.358 163.533 140.051 161.597 138.971C159.647 137.883 157.515 137.559 155.459 136.764C155.39 136.737 155.383 136.651 155.459 136.626ZM164.06 261.678C164.063 261.583 164.183 261.539 164.256 261.602C165.032 262.27 165.502 263.227 166.073 264.049C166.731 264.995 167.423 265.923 168.149 266.826C169.602 268.636 171.22 270.342 172.851 272.013C174.367 273.567 175.984 275.056 177.661 276.46C179.478 277.98 181.514 279.337 183.164 281.021C186.609 284.535 187.165 289.357 187.892 293.885L187.972 294.375C188.415 297.062 188.812 299.757 189.17 302.455C189.344 303.767 189.518 305.081 189.659 306.397L189.703 306.814C189.829 308.102 189.863 309.409 189.072 310.534C188.225 311.739 186.298 312.161 185.153 311.006C183.185 309.022 183.554 305.499 183.298 302.947C183.087 300.837 182.847 298.73 182.578 296.625L182.442 295.573C182.125 293.179 181.868 290.738 181.282 288.385C180.765 286.314 179.781 284.75 178.166 283.25C176.539 281.738 174.849 280.327 173.347 278.699C171.754 276.972 170.317 275.12 169.023 273.188C167.916 271.535 167.028 269.737 166.215 267.94L166.08 267.641C165.294 265.889 163.998 263.608 164.06 261.678ZM192.471 186.426C192.488 186.181 192.874 186.177 192.88 186.426C192.929 188.527 192.976 190.629 193.022 192.731C193.398 209.667 193.166 226.643 194.984 243.521C195.842 251.479 197.421 259.32 199.248 267.128C200.183 271.124 201.163 275.11 202.095 279.106C203.003 283 203.977 286.914 204.698 290.844C205.406 294.707 206.04 298.6 206.324 302.513L206.359 303.024C206.482 304.919 207.067 307.707 205.95 309.387C204.74 311.207 202.424 311.24 201.127 309.502C199.91 307.871 200.212 304.97 199.997 303.024C199.779 301.041 199.548 299.057 199.285 297.079C198.773 293.221 198.098 289.371 197.396 285.539C195.934 277.559 193.814 269.68 192.249 261.712C190.645 253.548 189.505 245.326 189.457 237.013C189.409 228.63 190.358 220.264 190.838 211.899C191.324 203.404 191.878 194.915 192.471 186.426ZM106.871 133.748C107.358 132.217 109.075 131.26 110.75 131.69C112.285 132.084 113.552 133.825 112.952 135.315C112.297 136.941 111.152 138.327 110.188 139.805C109.296 141.17 107.996 142.245 107.088 143.586L108.089 144.594C108.589 145.097 109.091 145.597 109.599 146.088L111.344 147.778C112.703 149.091 114.071 150.396 115.477 151.664C119.611 155.392 123.812 158.997 128.442 162.189C129.496 162.915 130.559 163.638 131.651 164.314L132.058 164.566C132.807 165.025 133.643 165.476 134.548 165.398C136.748 165.209 138.735 163.026 140.246 161.667L140.325 161.597C144.071 158.266 147.539 154.624 150.571 150.708C151.244 149.838 151.896 148.954 152.531 148.058C151.065 146.458 151.415 143.334 151.334 141.393C151.277 140.028 151.273 138.663 151.265 137.297L151.261 137.022C151.243 136.138 151.201 135.29 151.814 134.562C151.85 134.52 151.924 134.522 151.97 134.544C152.81 134.956 153.069 135.645 153.428 136.418L153.466 136.499C153.902 137.427 154.32 138.364 154.743 139.297C155.186 140.274 155.592 141.266 156.004 142.255C156.195 142.715 156.378 143.177 156.557 143.642C156.666 143.938 156.778 144.233 156.894 144.528L156.921 144.551C157.074 144.672 157.204 144.8 157.315 144.932C157.785 145.151 158.157 145.551 158.332 146.138C158.713 147.416 157.925 148.458 157.222 149.473C154.368 153.594 151.114 157.522 147.497 161.085C145.701 162.855 143.811 164.545 141.843 166.149L141.499 166.427C139.732 167.847 137.813 169.192 135.453 169.524C132.69 169.912 130.442 168.628 128.328 167.149L128.117 167.001C126.112 165.583 124.148 164.114 122.245 162.579C118.364 159.448 114.673 156.086 111.397 152.397C108.21 148.81 105.06 144.798 103.096 140.482C102.976 140.219 103.291 139.943 103.538 140.163C104.497 141.017 105.42 141.917 106.333 142.828C106.358 141.486 106.093 140.133 106.24 138.783C106.42 137.142 106.368 135.328 106.871 133.748Z" fill="black"/>
<path fill-rule="evenodd" clip-rule="evenodd" d="M172.233 71.0988C169.763 61.3676 164.363 52.3115 155.719 44.9926C129.705 20.9547 81.9324 34.002 82.1488 70.2255C81.2158 74.4564 80.837 78.8066 81.1459 83.1214C81.2737 84.9624 82.1262 87.5316 80.9808 89.1884C78.3974 92.2881 76.896 94.5729 77.7752 98.6961C78.5099 102.296 81.1312 104.847 84.6689 106.203C86.7906 106.772 88.8037 108.011 89.5896 109.901C94.3122 117.982 97.8109 124.704 105.256 130.211C107.177 131.629 126.881 140.133 133.374 140.133C152.381 140.133 176.336 133.698 176.734 113.855C176.802 109.496 175.984 105.087 175.471 100.763C174.221 90.8955 174.662 80.6705 172.233 71.0988Z" fill="white"/>
<path fill-rule="evenodd" clip-rule="evenodd" d="M171.805 66.2314C171.811 66.111 171.996 66.084 172.031 66.2028C172.738 68.5455 173.138 70.9321 173.691 73.3112C174.223 75.6029 174.725 77.9012 175.143 80.213C175.932 84.5761 176.597 88.9505 177.215 93.3364L177.369 94.4331C178.444 102.15 180.219 110.19 178.667 117.952C177.342 124.576 172.902 129.914 167.18 133.828C161.762 137.534 155.193 139.912 148.67 141.264C141.669 142.715 133.371 143.148 127.675 138.35C125.395 136.429 128.504 132.617 130.977 134.351C136.786 138.421 144.175 137.221 150.73 135.602L150.928 135.552C156.681 134.12 162.472 131.95 167.039 128.287C172.088 124.238 174.585 118.619 174.873 112.456C175.035 108.993 174.69 105.535 174.317 102.092L174.276 101.71C173.848 97.7733 173.399 93.8386 172.985 89.9006C172.608 86.3095 172.282 82.6977 172.11 79.0906L172.029 77.2713C171.862 73.6033 171.636 69.8818 171.805 66.2314ZM103.681 35.7544C113.133 31.1549 123.996 29.5088 134.516 31.0524C144.628 32.5363 153.909 37.4135 160.846 44.4069C164.233 47.8213 167.239 51.7708 169.16 56.0856C170.115 58.2291 170.862 60.4651 171.26 62.7617C171.464 63.9423 171.665 65.1656 171.704 66.3625C171.739 67.4708 171.391 68.5101 171.432 69.6367C171.439 69.8129 171.15 69.8468 171.106 69.678C170.777 68.4219 169.985 67.472 169.489 66.2789C169.118 65.388 168.696 64.5182 168.268 63.6511L167.899 62.9081C166.83 60.7485 165.552 58.6777 164.288 56.6143C161.742 52.4584 158.476 48.6816 154.651 45.4947C147.936 39.8993 139.32 36.2874 130.328 35.637C120.995 34.9616 111.529 37.0409 103.558 41.6466C95.5884 46.2522 89.562 53.4116 86.4331 61.6547C84.8544 65.8144 83.9825 70.1486 83.7798 74.5554C83.6772 76.7861 83.773 79.0355 83.9402 81.2619L84.0233 82.3235C84.1207 83.5967 84.1874 84.865 83.9839 86.1074C85.4215 85.6883 86.9284 85.5146 88.4407 85.722C90.6879 86.0301 92.0305 86.8912 93.0386 88.7679C93.0912 88.8658 92.9856 88.9638 92.8811 88.915C91.5743 88.3055 89.4599 88.6263 88.0758 88.9459C86.6355 89.2785 85.3382 89.857 84.1143 90.639C81.8502 92.0849 80.0753 94.3255 79.6398 96.8962C79.2187 99.3795 80.3095 101.894 82.1416 103.674C83.0847 104.59 84.212 105.383 85.4741 105.876C87.0059 106.476 88.522 106.457 89.8772 107.447C90.7149 108.059 90.5125 109.106 89.9443 109.786C92.8033 112.716 95.3387 115.921 98.1975 118.863C99.5226 120.226 100.837 121.591 102.107 122.999L102.581 123.529C103.849 124.959 105.866 126.469 106.445 128.268C106.806 129.387 105.524 130.85 104.228 130.341C102.24 129.558 100.821 127.523 99.4775 125.962L99.39 125.861C97.9814 124.243 96.7307 122.535 95.5873 120.745L95.2114 120.156C93.1438 116.906 91.094 113.535 89.7757 109.965C89.6886 110.048 89.5964 110.124 89.4992 110.189C87.5999 111.451 84.8389 110.481 82.942 109.661C81.1513 108.887 79.5096 107.723 78.2301 106.32C75.4472 103.269 74.1643 99.318 75.0938 95.3583C75.8811 92.004 78.3684 88.7414 81.6294 87.0447C80.1242 85.4251 79.5009 83.2418 79.0861 81.1073C78.5567 78.3825 78.4511 75.5902 78.5949 72.8272C78.8817 67.3238 80.3971 61.8991 82.7395 56.8597C86.9305 47.8427 94.34 40.3002 103.681 35.7544ZM83.7871 95.9247C85.771 95.5773 87.6198 95.4934 89.5333 96.278C91.6088 97.1296 93.0696 98.5355 94.4275 100.183C95.9725 102.056 92.0128 104.103 91.0144 101.616L90.985 101.539C90.7176 100.803 90.2387 100.091 89.632 99.4356C89.45 99.6962 89.2066 99.9258 88.9206 100.057C88.5743 100.216 88.0455 100.106 87.9622 99.6927C87.87 99.2338 87.9721 98.6778 88.2553 98.2894L88.2941 98.2363C86.9176 97.201 85.262 96.4448 83.7871 96.2015C83.6397 96.177 83.6413 95.9502 83.7871 95.9247Z" fill="black"/>
<path fill-rule="evenodd" clip-rule="evenodd" d="M145.905 122.8C144.07 122.101 142.434 120.934 141.237 119.443C140.821 118.925 140.713 118.378 140.8 117.878C140.898 117.315 141.255 116.805 141.74 116.463C142.228 116.12 142.837 115.951 143.426 116.037C143.938 116.112 144.448 116.374 144.851 116.917L144.936 117.026C145.647 117.925 146.574 118.664 147.63 119.139C148.649 119.598 149.787 119.812 150.966 119.687C153.21 119.45 154.757 118.316 156.401 116.776C156.604 116.581 156.808 116.381 157.013 116.177C157.143 115.992 157.322 115.873 157.522 115.811C157.743 115.742 157.993 115.746 158.223 115.82C158.444 115.893 158.642 116.029 158.774 116.211C158.9 116.384 158.972 116.598 158.949 116.844C158.798 118.44 157.905 119.865 156.637 120.984C155.228 122.226 153.361 123.086 151.603 123.387C149.666 123.719 147.692 123.481 145.905 122.8ZM152.516 98.172C154.577 99.3427 157.717 102.073 155.5 104.975C152.891 107.534 149.134 104.6 147.282 103.273C145.566 102.244 143.637 104.889 145.23 106.09C158.607 115.348 164.037 98.4781 153.558 96.7955C152.405 96.6101 151.976 97.8098 152.516 98.172ZM128.543 87.4033C128.77 84.7619 133.075 84.1621 133.503 86.7759C133.886 89.1173 133.435 91.2682 132.306 93.3762C131.228 95.3901 128.518 94.4505 128.313 92.6167C128.039 90.1585 128.401 89.0464 128.543 87.4033ZM161.307 86.2339C161.907 85.4994 162.773 84.9979 163.811 85.2813C167.054 86.1671 166.099 90.4706 164.96 92.5654C164.341 93.703 162.34 93.9914 161.436 92.9898C159.962 91.3565 159.257 88.0945 161.13 86.4857C161.181 86.4025 161.237 86.3186 161.307 86.2339ZM132.261 75.8453L132.773 75.7614C134.358 75.5053 136.329 75.2591 137.45 76.45C138.044 77.0815 138.249 78.2553 137.45 78.8598C136.044 79.9233 134.489 79.5112 132.805 79.6012C131.416 79.6757 130.082 79.8904 128.744 80.2478C125.81 81.0316 123.42 82.4624 120.914 84.0336C120.585 84.2396 120.249 83.8466 120.406 83.5592C121.853 80.9109 124.656 78.7355 127.464 77.4095C128.963 76.7017 130.603 76.1146 132.261 75.8453ZM158.35 74.659L158.742 74.734C163.009 75.5676 168.554 77.233 170.574 81.1505C170.651 81.7044 170.57 81.8232 170.504 81.9007L170.482 81.9265C170.427 81.9928 170.384 82.0841 170.127 82.1595C170.056 82.1436 169.984 82.1268 169.911 82.109C168.985 81.8821 168.252 81.5695 167.542 81.2452L166.773 80.891C165.88 80.482 164.98 80.0879 164.026 79.7969C161.99 79.1761 159.895 78.7388 157.768 78.5053C157.307 78.4547 156.863 78.3093 156.513 78.0601C156.18 77.8235 155.927 77.496 155.811 77.0606C155.661 76.4972 155.704 76.0706 156.027 75.5623C156.27 75.1806 156.618 74.916 157.018 74.7641C157.425 74.6092 157.889 74.5727 158.35 74.659Z" fill="black"/>
<path fill-rule="evenodd" clip-rule="evenodd" d="M158.296 126.723C155.755 124.607 152.906 120.353 149.255 123.719C148.352 124.67 147.986 126.803 146.606 127.221C144.772 127.777 142.954 125.963 142.329 124.571C139.772 116.833 150.342 114.711 156.364 115.961C159.306 117.09 161.472 121.635 161.603 124.007C161.688 125.601 160.244 127.945 158.296 126.723ZM177.469 114.797C177.444 114.694 177.41 114.601 177.368 114.517C176.244 114.12 175.354 114.525 174.805 115.281C174.823 115.469 174.883 115.66 174.921 115.846C174.497 116.681 174.114 117.715 173.54 118.436C173.426 118.444 173.308 118.433 173.195 118.403C163.668 119.332 168.319 110.016 158.656 107.701C151.186 106.55 137.686 107.869 134.162 115.136C131.383 126.743 117.252 118.655 112.612 112.619C107.662 107.125 104.461 100.412 101.374 93.8978C100.722 92.5192 98.6868 93.505 98.9081 94.8277C96.0553 100.177 96.1503 106.601 95.4438 112.461C94.242 124.151 93.071 140.546 104.693 147.684C119.834 163.68 157.645 169.325 175.109 154.628C181.155 142.479 180.409 127.659 177.469 114.797Z" fill="black"/>
</g>
<rect x="2" y="2" width="236" height="236" rx="14" stroke="black" stroke-width="4"/>
<defs>
<clipPath id="clip0_83_1069">
<rect width="240" height="240" rx="16" fill="white"/>
</clipPath>
</defs>
</svg>
