<svg width="24" height="24" viewBox="0 0 24 24" fill="none" xmlns="http://www.w3.org/2000/svg">
<path d="M2.55001 17.45C2.40001 17.3 2.32918 17.125 2.33751 16.925C2.34584 16.725 2.41668 16.55 2.55001 16.4L8.77501 10.175C8.85834 10.0917 8.94168 10.0333 9.02501 9.99999C9.10834 9.96665 9.20001 9.94999 9.30001 9.94999C9.40001 9.94999 9.49168 9.96665 9.57501 9.99999C9.65834 10.0333 9.74168 10.0917 9.82501 10.175L13.475 13.825L19.5 7.79999H17.075C16.8583 7.79999 16.6792 7.72915 16.5375 7.58749C16.3958 7.44582 16.325 7.26665 16.325 7.04999C16.325 6.83332 16.3958 6.65415 16.5375 6.51249C16.6792 6.37082 16.8583 6.29999 17.075 6.29999H21.25C21.4667 6.29999 21.6458 6.37082 21.7875 6.51249C21.9292 6.65415 22 6.83332 22 7.04999V11.225C22 11.425 21.9292 11.6 21.7875 11.75C21.6458 11.9 21.475 11.975 21.275 11.975C21.075 11.975 20.9 11.9 20.75 11.75C20.6 11.6 20.525 11.425 20.525 11.225V8.89999L13.975 15.45C13.8917 15.5333 13.8083 15.5917 13.725 15.625C13.6417 15.6583 13.55 15.675 13.45 15.675C13.35 15.675 13.2583 15.6583 13.175 15.625C13.0917 15.5917 13.0083 15.5333 12.925 15.45L9.27501 11.8L3.60001 17.475C3.46668 17.6083 3.29584 17.675 3.08751 17.675C2.87918 17.675 2.70001 17.6 2.55001 17.45V17.45Z" fill="white"/>
</svg>
